<?xml version="1.0" encoding="utf-8"?>
<!-- Generator: Adobe Illustrator 26.5.0, SVG Export Plug-In . SVG Version: 6.00 Build 0)  -->
<svg version="1.1" id="Layer_1" xmlns="http://www.w3.org/2000/svg" xmlns:xlink="http://www.w3.org/1999/xlink" x="0px" y="0px"
	 viewBox="0 0 50 50" style="enable-background:new 0 0 50 50;" xml:space="preserve">
<style type="text/css">
	.st0{fill-rule:evenodd;clip-rule:evenodd;fill:#FBC02D;}
	.st1{fill-rule:evenodd;clip-rule:evenodd;fill:#FFFFFF;}
	.st2{fill:#FFFFFF;}
</style>
<path class="st0" d="M36.5,0H3.5v26.5V50l10.1-10.1h33V10C46.5,4.5,42,0,36.5,0z"/>
<path class="st1" d="M28,17.6v-1.9c0-5.7-3.9-10-10-10S7.9,10,7.9,15.7v20.7h5.9v-9.6h4v-5.5h-4v-6c0-2.1,1.3-4.2,4.2-4.2
	s4.2,2.1,4.2,4.2v2.2L28,17.6L28,17.6z M36.4,27.3c0,2.1-1.3,4.2-4.2,4.2S28,29.4,28,27.3v-5.8h-5.9V27c0,5.8,3.9,10.1,10.1,10.1
	s10-4.3,10-10.1V13.7h-5.8V27.3L36.4,27.3z"/>
<rect x="36.4" y="4" class="st2" width="5.8" height="5.8"/>
</svg>
