<svg width="471" height="358" viewBox="0 0 471 358" fill="none" xmlns="http://www.w3.org/2000/svg">
<g style="mix-blend-mode:multiply">
<g clip-path="url(#clip0_101_115)">
<path d="M431.349 150.466C399.263 139.388 378.003 115.017 358.308 88.6911C341.743 66.4053 325.961 42.9466 306.657 23.2674C283.832 -0.0610517 254.224 -4.62247 223.312 6.45526C200.357 14.7961 185.096 32.2599 171.01 51.5482C153.402 75.9192 136.054 100.811 115.577 122.837C93.534 146.556 64.5784 158.285 31.3186 158.155C-9.50616 157.894 -50.4613 157.894 -91.2861 158.025C-93.5034 158.025 -139.937 162.977 -141.241 162.456V200.12C-128.067 200.25 -70.5476 200.641 -57.8959 199.99C-19.9406 198.035 18.2755 202.466 56.1004 196.471C97.4469 189.955 132.794 170.927 159.271 138.085C178.836 113.974 197.096 88.8215 214.965 63.4078C232.312 38.9065 262.441 35.6483 283.049 57.5432C290.093 64.9718 295.571 73.7036 301.962 81.7839C323.092 108.37 339.656 138.215 368.09 159.328C399.394 182.526 433.175 195.95 471.261 199.859V159.067C457.174 157.764 442.827 154.376 431.349 150.466Z" fill="#284D84"/>
<path d="M421.306 158.025C380.481 157.764 339.526 157.764 298.701 158.155C265.441 158.416 236.486 146.556 214.443 122.837C193.313 100.16 177.531 77.092 159.01 51.6784C144.924 32.3901 129.663 14.9264 106.707 6.58554C75.7954 -4.62252 46.1877 -0.0610977 23.3624 23.2673C4.05864 42.9466 -11.7235 66.4053 -28.2881 88.6911C-47.8527 115.017 -69.2433 139.388 -101.329 150.466C-113.59 154.636 -126.763 156.33 -140.719 159.198V199.99C-102.894 195.95 -69.2433 182.526 -38.2009 159.458C-9.767 138.345 6.79768 108.501 27.9274 81.9141C34.3185 73.8339 39.7966 65.102 46.8399 57.6734C67.4479 35.7786 97.7077 39.0368 114.925 63.5381C132.924 88.8214 151.184 114.105 170.618 138.215C197.096 170.927 232.834 188.26 273.789 196.601C311.744 204.29 349.83 198.165 387.785 200.12C399.394 200.772 459.522 200.381 471.522 200.25V158.025C471.13 157.894 421.958 158.025 421.306 158.025Z" fill="#88CF00"/>
<path d="M-101.068 207.549C-68.9825 218.626 -47.7223 242.997 -28.0273 269.323C-11.4626 291.609 4.31949 315.068 23.6232 334.747C46.4485 358.076 76.0563 362.637 106.968 351.429C129.924 343.088 145.315 325.624 159.271 306.336C177.009 281.965 194.226 257.073 214.704 235.178C236.747 211.458 265.702 199.729 298.962 199.859C339.787 200.12 380.742 200.12 421.567 199.99C423.784 199.99 470.217 200.12 471.522 200.641V157.764C458.348 157.634 400.828 157.894 388.177 157.894C350.221 158.025 312.005 153.724 274.18 161.413C233.225 169.754 197.487 186.957 171.01 219.799C151.445 243.91 133.185 269.063 115.316 294.476C97.9686 318.978 67.8392 322.236 47.2311 300.341C40.1879 292.912 34.7098 284.181 28.3187 276.1C7.18896 249.514 -9.37572 219.669 -37.8096 198.556C-69.1129 175.358 -102.894 161.935 -140.98 158.025V198.817C-126.894 200.12 -112.546 203.509 -101.068 207.549Z" fill="#003A5D"/>
<path d="M-91.0252 199.859C-91.0252 199.859 -9.24529 200.12 31.5795 199.729C64.8392 199.468 93.7948 211.328 115.838 235.048C136.315 256.942 153.532 281.965 171.271 306.206C185.357 325.494 200.617 342.958 223.573 351.299C254.485 362.507 284.093 357.945 306.918 334.617C326.222 314.938 342.004 291.479 358.569 269.193C378.133 242.867 399.524 218.496 431.61 207.418C443.87 203.248 457.174 202.466 471.652 200.12V157.894C433.827 161.934 399.654 175.488 368.481 198.556C340.048 219.669 323.483 249.514 302.353 276.1C295.962 284.18 290.484 292.912 283.441 300.341C262.833 322.236 232.573 318.978 215.356 294.476C197.357 269.193 179.096 243.91 159.662 219.799C133.185 187.087 97.4469 169.754 56.4917 161.413C18.5364 153.724 -57.5046 157.894 -57.5046 157.894C-57.5046 157.894 -129.241 157.634 -141.241 157.764V199.99C-140.85 199.99 -91.0252 199.859 -91.0252 199.859Z" fill="#4FA9A3"/>
</g>
</g>
<defs>
<clipPath id="clip0_101_115">
<rect width="612.371" height="356.442" fill="white" transform="translate(-141.371 0.720947)"/>
</clipPath>
</defs>
</svg>
