<?xml version="1.0" encoding="utf-8"?>
<!-- Generator: Adobe Illustrator 26.5.0, SVG Export Plug-In . SVG Version: 6.00 Build 0)  -->
<svg version="1.1" id="Layer_1" xmlns="http://www.w3.org/2000/svg" xmlns:xlink="http://www.w3.org/1999/xlink" x="0px" y="0px"
	 viewBox="0 0 216 175" style="enable-background:new 0 0 216 175;" xml:space="preserve">
<style type="text/css">
	.st0{fill:#272727;}
	.st1{fill:none;stroke:#272727;stroke-width:1.4547;stroke-linecap:round;stroke-miterlimit:10;}
</style>
<g>
	<path class="st0" d="M104.1,29.6c-1.7,0-3.4,0.5-4.8,1.5c-1.4,0.9-2.5,2.3-3.2,3.9c-0.7,1.6-0.8,3.3-0.5,5c0.3,1.7,1.2,3.2,2.4,4.4
		c1.2,1.2,2.7,2,4.4,2.4c1.7,0.3,3.4,0.2,5-0.5c1.6-0.7,2.9-1.8,3.9-3.2c0.9-1.4,1.5-3.1,1.5-4.8c0-2.3-0.9-4.5-2.5-6.1
		C108.6,30.5,106.4,29.6,104.1,29.6L104.1,29.6z M111.2,38.2c0,1.4-0.4,2.8-1.2,4c-0.8,1.2-1.9,2.1-3.2,2.6
		c-1.3,0.5-2.7,0.7-4.1,0.4c-1.4-0.3-2.6-1-3.6-1.9c-1-1-1.7-2.3-1.9-3.6c-0.3-1.4-0.1-2.8,0.4-4.1c0.5-1.3,1.4-2.4,2.6-3.2
		c1.2-0.8,2.5-1.2,3.9-1.2c1.9,0,3.7,0.8,5,2.1C110.4,34.5,111.2,36.3,111.2,38.2L111.2,38.2z"/>
	<path class="st0" d="M104.1,32.2c-1.2,0-2.3,0.4-3.3,1c-1,0.7-1.8,1.6-2.2,2.7c-0.5,1.1-0.6,2.3-0.3,3.5c0.2,1.2,0.8,2.2,1.6,3.1
		c0.8,0.8,1.9,1.4,3.1,1.6c1.2,0.2,2.4,0.1,3.5-0.3c1.1-0.5,2-1.2,2.7-2.2c0.7-1,1-2.1,1-3.3c0-1.6-0.6-3.1-1.8-4.2
		C107.2,32.8,105.7,32.2,104.1,32.2z M108.6,38.2c0,0.9-0.3,1.8-0.8,2.5c-0.5,0.7-1.2,1.3-2,1.7c-0.8,0.3-1.7,0.4-2.6,0.3
		c-0.9-0.2-1.7-0.6-2.3-1.2c-0.6-0.6-1.1-1.4-1.2-2.3c-0.2-0.9-0.1-1.8,0.3-2.6c0.3-0.8,0.9-1.5,1.7-2c0.7-0.5,1.6-0.8,2.5-0.8
		c1.2,0,2.3,0.5,3.2,1.3C108.1,35.9,108.6,37,108.6,38.2L108.6,38.2z"/>
	<path class="st0" d="M104.1,36.1c-0.4,0-0.8,0.1-1.2,0.3c-0.3,0.2-0.6,0.6-0.8,0.9c-0.2,0.4-0.2,0.8-0.1,1.2
		c0.1,0.4,0.3,0.8,0.6,1.1c0.3,0.3,0.7,0.5,1.1,0.6c0.4,0.1,0.8,0,1.2-0.1c0.4-0.2,0.7-0.4,0.9-0.8c0.2-0.3,0.3-0.7,0.3-1.2
		c0-0.5-0.2-1.1-0.6-1.5C105.2,36.4,104.6,36.1,104.1,36.1z M104.7,38.2c0,0.1,0,0.2-0.1,0.3c-0.1,0.1-0.1,0.2-0.2,0.2
		c-0.1,0-0.2,0.1-0.3,0c-0.1,0-0.2-0.1-0.3-0.2c-0.1-0.1-0.1-0.2-0.2-0.3c0-0.1,0-0.2,0-0.3c0-0.1,0.1-0.2,0.2-0.3
		c0.1-0.1,0.2-0.1,0.3-0.1c0.1,0,0.3,0.1,0.4,0.2C104.6,37.9,104.6,38.1,104.7,38.2z"/>
	<path class="st0" d="M108,11.2c-0.9,0-1.8,0.3-2.6,0.8c-0.8,0.5-1.4,1.2-1.7,2.1c-0.4,0.9-0.4,1.8-0.3,2.7c0.2,0.9,0.6,1.7,1.3,2.4
		c0.7,0.7,1.5,1.1,2.4,1.3c0.9,0.2,1.9,0.1,2.7-0.3c0.9-0.4,1.6-1,2.1-1.7c0.5-0.8,0.8-1.7,0.8-2.6c0-1.2-0.5-2.4-1.4-3.3
		C110.5,11.7,109.3,11.2,108,11.2L108,11.2z M111.2,15.9c0,0.6-0.2,1.2-0.5,1.8c-0.3,0.5-0.8,0.9-1.4,1.2s-1.2,0.3-1.8,0.2
		c-0.6-0.1-1.2-0.4-1.6-0.9c-0.4-0.4-0.7-1-0.9-1.6c-0.1-0.6-0.1-1.3,0.2-1.8c0.2-0.6,0.6-1.1,1.2-1.4c0.5-0.3,1.1-0.5,1.8-0.5
		c0.8,0,1.7,0.3,2.2,0.9C110.9,14.3,111.2,15.1,111.2,15.9L111.2,15.9z"/>
	<path class="st0" d="M108,13.9c-0.4,0-0.8,0.1-1.2,0.3c-0.3,0.2-0.6,0.6-0.8,0.9c-0.2,0.4-0.2,0.8-0.1,1.2c0.1,0.4,0.3,0.8,0.6,1.1
		c0.3,0.3,0.7,0.5,1.1,0.6c0.4,0.1,0.8,0,1.2-0.1c0.4-0.2,0.7-0.4,0.9-0.8c0.2-0.3,0.3-0.7,0.3-1.2c0-0.3-0.1-0.5-0.2-0.8
		c-0.1-0.3-0.3-0.5-0.4-0.7c-0.2-0.2-0.4-0.3-0.7-0.4C108.6,13.9,108.3,13.9,108,13.9L108,13.9z M108.6,15.9c0,0.1,0,0.2-0.1,0.3
		c-0.1,0.1-0.1,0.2-0.3,0.2c-0.1,0-0.2,0.1-0.3,0c-0.1,0-0.2-0.1-0.3-0.2c-0.1-0.1-0.1-0.2-0.2-0.3c0-0.1,0-0.2,0-0.3
		c0-0.1,0.1-0.2,0.2-0.3c0.1-0.1,0.2-0.1,0.3-0.1c0.1,0,0.3,0.1,0.4,0.2C108.5,15.6,108.6,15.8,108.6,15.9L108.6,15.9z"/>
	<path class="st0" d="M125.1,28.3h-11.7v-1.9c0-0.5-0.2-1.1-0.6-1.5c-0.4-0.4-0.9-0.6-1.5-0.6h-0.5v-1.6c1.6-0.6,2.9-1.8,3.7-3.3
		c0.8-1.5,1.1-3.2,0.8-4.9c-0.3-1.7-1.2-3.2-2.5-4.3c-1.3-1.1-3-1.7-4.7-1.7s-3.3,0.6-4.7,1.7c-1.3,1.1-2.2,2.6-2.5,4.3
		c-0.3,1.7-0.1,3.4,0.8,4.9c0.8,1.5,2.1,2.7,3.7,3.3v1.6h-0.6c-0.5,0-1.1,0.2-1.5,0.6c-0.4,0.4-0.6,0.9-0.6,1.5v0.7
		c-1.3,0.2-2.7,0.6-3.8,1.2H91c-0.9,0-1.8,0.4-2.4,1c-0.6,0.6-1,1.5-1,2.4v14.4c0,0.9,0.4,1.8,1,2.4c0.6,0.6,1.5,1,2.4,1h34.1
		c0.9,0,1.8-0.4,2.4-1c0.6-0.6,1-1.5,1-2.4V31.6c0-0.4-0.1-0.9-0.3-1.3c-0.2-0.4-0.4-0.8-0.7-1.1c-0.3-0.3-0.7-0.6-1.1-0.7
		C125.9,28.4,125.5,28.3,125.1,28.3z M102.2,15.9c0-1.1,0.3-2.3,1-3.2c0.6-1,1.5-1.7,2.6-2.1c1.1-0.4,2.2-0.6,3.4-0.3
		c1.1,0.2,2.2,0.8,3,1.6c0.8,0.8,1.4,1.8,1.6,3c0.2,1.1,0.1,2.3-0.3,3.4c-0.4,1.1-1.2,2-2.1,2.6c-1,0.6-2.1,1-3.2,1
		c-1.5,0-3-0.6-4.1-1.7C102.8,18.9,102.2,17.5,102.2,15.9L102.2,15.9z M109.2,23.1v1.2h-2.4v-1.2C107.6,23.3,108.4,23.3,109.2,23.1
		L109.2,23.1z M93.8,42.7h-4.7V35h4.2c-0.3,1-0.5,2.1-0.5,3.2C92.8,39.7,93.1,41.3,93.8,42.7L93.8,42.7z M93.9,33.5h-4.8v-1.9
		c0-0.5,0.2-1,0.5-1.3c0.3-0.4,0.8-0.5,1.3-0.6h5.7C95.5,30.8,94.5,32.1,93.9,33.5L93.9,33.5z M89.1,44.2h5.5c1,1.5,2.3,2.8,3.9,3.7
		h-7.5c-0.5,0-1-0.2-1.3-0.6c-0.3-0.4-0.5-0.8-0.5-1.3V44.2z M111.8,28.3h-2.5c-1.6-0.8-3.4-1.3-5.2-1.3v-0.5c0-0.1,0.1-0.3,0.2-0.4
		c0.1-0.1,0.2-0.2,0.4-0.2h6.5c0.1,0,0.3,0.1,0.4,0.2c0.1,0.1,0.2,0.2,0.2,0.4V28.3z M126.9,33.5h-12.6c-0.7-1.4-1.6-2.7-2.8-3.7
		H125c0.5,0,1,0.2,1.3,0.5c0.4,0.4,0.5,0.8,0.5,1.3V33.5z M126.9,35v7.7h-12.5c0.6-1.4,0.9-2.9,0.9-4.5c0-1.1-0.2-2.1-0.5-3.2H126.9
		z M113.8,38.2c0,1.9-0.6,3.8-1.6,5.4c-1.1,1.6-2.6,2.8-4.4,3.6c-1.8,0.7-3.7,0.9-5.6,0.6c-1.9-0.4-3.6-1.3-5-2.7
		c-1.4-1.4-2.3-3.1-2.7-5c-0.4-1.9-0.2-3.8,0.6-5.6c0.7-1.8,2-3.3,3.6-4.4c1.6-1.1,3.5-1.6,5.4-1.6c1.3,0,2.5,0.2,3.7,0.7
		c1.2,0.5,2.3,1.2,3.2,2.1c0.9,0.9,1.6,2,2.1,3.2C113.6,35.7,113.8,36.9,113.8,38.2L113.8,38.2z M126.9,46.1c0,0.5-0.2,1-0.5,1.3
		c-0.3,0.4-0.8,0.5-1.3,0.5h-15.3c1.6-0.9,2.9-2.2,3.9-3.7H127L126.9,46.1z"/>
	<path class="st0" d="M125.8,30.9h-1.5v1.5h1.5V30.9z"/>
	<path class="st0" d="M120.6,30.9h-1.5v1.5h1.5V30.9z"/>
	<path class="st0" d="M123.2,30.9h-1.5v1.5h1.5V30.9z"/>
	<path class="st0" d="M123.2,15.2h-6.8v1.5h6.8V15.2z"/>
	<path class="st0" d="M122.2,10.8L122.2,10.8l-0.5-1.4l-6.1,2.5l-0.1,0l0.6,1.4L122.2,10.8z"/>
	<path class="st0" d="M94.3,9.4l-0.6,1.4l6.2,2.6l0.6-1.4L94.3,9.4z"/>
	<path class="st0" d="M99.6,15.2h-6.8v1.5h6.8V15.2z"/>
	<path class="st0" d="M93.8,21L93.8,21l0.5,1.4l6.1-2.6l0.1,0l-0.6-1.4L93.8,21z"/>
	<path class="st0" d="M116,18.3l-0.6,1.4l6.2,2.6l0.6-1.4L116,18.3z"/>
	<path class="st1" d="M57.3,98.4H0.7V155h56.6V98.4z"/>
	<path class="st1" d="M135.9,98.4H79.3V155h56.6V98.4z"/>
	<path class="st1" d="M214.4,98.4h-56.6V155h56.6V98.4z"/>
	<path class="st1" d="M136.3,0.7H79.7v56.6h56.6V0.7z"/>
	<path class="st1" d="M214.9,1.2h-56.6v56.6h56.6V1.2z"/>
	<path class="st1" d="M57.8,0.7H1.2v56.6h56.6V0.7z"/>
	<path class="st0" d="M47.8,7.9c-0.5,0-1,0.1-1.5,0.4l-6.2,3.8c-2.5-2.3-5.7-3.8-9.1-4.1c-3.4-0.3-6.8,0.4-9.7,2.2
		c-2.9,1.8-5.2,4.4-6.4,7.6c-1.3,3.2-1.4,6.7-0.5,10l-4,2.4c-0.6,0.4-1.2,0.9-1.5,1.6c-0.4,0.6-0.6,1.4-0.6,2.1
		c0,0.5,0.2,1.1,0.6,1.4c0.4,0.4,0.9,0.6,1.4,0.6c0.5,0,1.1-0.2,1.4-0.6c0.4-0.4,0.6-0.9,0.6-1.4v-0.3l3.6-2
		c1.4,2.3,3.4,4.3,5.7,5.6c2.4,1.3,5,2.1,7.8,2.1c0.6,0,1.3,0,1.9-0.1c0.3,0.1,0.6,0.1,0.8,0.1h8.9c0.5,0,1.1,0.2,1.4,0.6
		c0.4,0.4,0.6,0.9,0.6,1.4c0,0.5-0.2,1.1-0.6,1.4c-0.4,0.4-0.9,0.6-1.4,0.6H22c-0.9,0-1.8,0.4-2.4,1s-1,1.5-1,2.4
		c0,0.9,0.4,1.8,1,2.4c0.6,0.6,1.5,1,2.4,1h19.8v-1.4H22c-0.5,0-1.1-0.2-1.4-0.6c-0.4-0.4-0.6-0.9-0.6-1.4c0-0.5,0.2-1.1,0.6-1.4
		c0.4-0.4,0.9-0.6,1.4-0.6h19.1c0.4,0,0.9-0.1,1.3-0.3c0.4-0.2,0.8-0.4,1.1-0.7c0.3-0.3,0.6-0.7,0.7-1.1c0.2-0.4,0.3-0.9,0.3-1.3
		s-0.1-0.9-0.3-1.3c-0.2-0.4-0.4-0.8-0.7-1.1c-0.3-0.3-0.7-0.6-1.1-0.7c-0.4-0.2-0.9-0.3-1.3-0.3h-5.2c2-0.9,3.7-2.1,5.2-3.7
		c1.4-1.6,2.6-3.4,3.3-5.4c0.7-2,1-4.2,0.8-6.3c-0.2-2.1-0.7-4.2-1.7-6.1l5.8-3.2c0.5-0.3,1-0.8,1.2-1.4c0.2-0.6,0.3-1.2,0.1-1.8
		c-0.2-0.6-0.5-1.1-1-1.5C49,8.1,48.4,7.8,47.8,7.9L47.8,7.9z M43.1,24.4l0.6,0.4c-0.1,0.7-0.2,1.5-0.3,2.2l-2.3-1.3L43.1,24.4z
		 M39.7,26.4l3.3,1.9c-0.2,0.7-0.5,1.3-0.8,1.9l-4.5-2.6L39.7,26.4z M33.6,37.4V9.9c0.7,0.2,1.4,0.5,2,0.8v25.9
		C35,36.9,34.3,37.1,33.6,37.4L33.6,37.4z M37,35v-2.4l2.3,1.3c-0.5,0.5-1.1,1-1.7,1.4L37,35z M37,31.1v-2.4l4.5,2.6
		c-0.4,0.6-0.8,1.1-1.2,1.7L37,31.1z M37,12.2l0.6-0.4c0.5,0.3,0.9,0.6,1.3,1L37,14V12.2z M15.8,22.7l-0.6-0.4
		c0.1-0.7,0.2-1.5,0.3-2.2l2.3,1.3L15.8,22.7z M19.2,20.7l-3.3-1.9c0.2-0.7,0.5-1.3,0.8-1.9l4.5,2.6L19.2,20.7z M22,12.1v2.4
		l-2.3-1.3c0.5-0.5,1.1-1,1.7-1.4L22,12.1z M22,16v2.4l-4.5-2.6c0.4-0.6,0.8-1.1,1.2-1.6L22,16z M22,34.9l-0.6,0.4
		c-0.6-0.4-1.2-0.9-1.7-1.4l2.3-1.4V34.9z M15.2,24.7l6.8-3.9V23l-6.4,3.9C15.4,26.2,15.3,25.4,15.2,24.7L15.2,24.7z M11.1,32.7v1.1
		c0,0.2-0.1,0.4-0.2,0.5c-0.1,0.1-0.3,0.2-0.5,0.2c-0.2,0-0.4-0.1-0.5-0.2c-0.1-0.1-0.2-0.3-0.2-0.5c0-0.5,0.1-1,0.4-1.4
		c0.2-0.4,0.6-0.8,1-1.1L22,24.6v2L11.1,32.7z M22,28.2V31l-3.3,1.9c-0.6-0.6-1.1-1.3-1.5-2.1L22,28.2z M26.8,37.6v-25h-1.4v24.6
		c-0.7-0.2-1.4-0.5-2-0.8V10.6c0.6-0.3,1.3-0.6,2-0.8v1.4h1.4V9.5c0.7-0.1,1.3-0.2,2-0.2v24.5h1.4V9.3c0.7,0,1.3,0.1,2,0.2v28.1
		c-0.3,0-0.5,0.1-0.8,0.1c-0.4-0.2-0.7-0.4-0.9-0.8c-0.2-0.3-0.4-0.7-0.4-1.1v-0.7h-1.3v0.7c0,0.7,0.2,1.5,0.7,2
		C28.5,37.9,27.6,37.8,26.8,37.6L26.8,37.6z M43,18.8l-1.3,0.8l0.7,1.2l1-0.6c0.2,0.7,0.3,1.4,0.3,2.2L37,26.3v-2.4l4.3-2.5
		l-0.7-1.2L37,22.3v-2.5l5.2-2.9C42.5,17.6,42.8,18.2,43,18.8L43,18.8z M48.5,11.9L37,18.3v-2.8l10.1-6.1c0.2-0.1,0.5-0.2,0.8-0.2
		c0.3,0,0.6,0.1,0.9,0.3c0.3,0.2,0.4,0.5,0.5,0.8c0.1,0.3,0.1,0.6-0.1,0.9C49,11.5,48.8,11.8,48.5,11.9L48.5,11.9z"/>
	<path class="st0" d="M43.1,48.8h1.4v1.4h-1.4V48.8z"/>
	<path class="st0" d="M127.6,118.8c-0.1,0-0.2,0-0.3-0.1c-0.1,0-0.2-0.1-0.2-0.2c-0.1-0.1-0.1-0.2-0.2-0.2c0-0.1-0.1-0.2-0.1-0.3
		c0-0.1,0-0.2,0.1-0.3c0-0.1,0.1-0.2,0.2-0.2c2.3-2.3,1.9-6.5-0.9-9.4c-2.8-2.8-7-3.2-9.4-0.9c-0.1,0.1-0.2,0.1-0.2,0.2
		c-0.1,0-0.2,0.1-0.3,0.1s-0.2,0-0.3-0.1c-0.1,0-0.2-0.1-0.2-0.2c-0.1-0.1-0.1-0.2-0.2-0.2c0-0.1-0.1-0.2-0.1-0.3
		c0-0.1,0-0.2,0.1-0.3c0-0.1,0.1-0.2,0.2-0.2c2.9-2.9,8.1-2.5,11.5,0.9c3.4,3.4,3.8,8.6,0.9,11.5C128,118.7,127.8,118.8,127.6,118.8
		L127.6,118.8z"/>
	<path class="st0" d="M102.5,122.4c-0.2,0-0.3,0-0.4-0.1c-0.1-0.1-0.2-0.2-0.3-0.3s-0.1-0.3,0-0.4c0-0.1,0.1-0.3,0.2-0.4
		c2.3-2.3,4.6-4.9,6.8-7.4c2.2-2.5,4.6-5.1,7-7.6c0.1-0.1,0.3-0.2,0.5-0.2c0.2,0,0.4,0.1,0.5,0.2c0.1,0.1,0.2,0.3,0.2,0.5
		c0,0.2-0.1,0.4-0.2,0.5c-2.4,2.4-4.7,5-6.9,7.5c-2.2,2.5-4.5,5.1-6.8,7.4c-0.1,0.1-0.2,0.1-0.2,0.2
		C102.7,122.3,102.6,122.4,102.5,122.4L102.5,122.4z"/>
	<path class="st0" d="M112.7,132.6c-0.2,0-0.3-0.1-0.4-0.1c-0.1-0.1-0.2-0.2-0.3-0.3c-0.1-0.1-0.1-0.3,0-0.4c0-0.1,0.1-0.3,0.2-0.4
		c2.3-2.3,4.9-4.6,7.4-6.8c2.5-2.2,5.1-4.5,7.5-6.9c0.1-0.1,0.3-0.2,0.5-0.2c0.2,0,0.4,0.1,0.5,0.2c0.1,0.1,0.2,0.3,0.2,0.5
		s-0.1,0.4-0.2,0.5c-2.4,2.4-5,4.7-7.6,7c-2.6,2.3-5,4.4-7.3,6.8C113.1,132.5,112.9,132.6,112.7,132.6L112.7,132.6z"/>
	<path class="st0" d="M94.5,149.2c-2.5,0-4.9-1.1-6.6-2.9c-3.4-3.4-3.8-8.6-0.9-11.5c0.1-0.1,0.3-0.2,0.5-0.2c0.2,0,0.4,0.1,0.5,0.2
		c0.1,0.1,0.2,0.3,0.2,0.5c0,0.2-0.1,0.4-0.2,0.5c-2.3,2.3-1.9,6.5,0.9,9.4s7,3.2,9.4,0.9c0.1-0.1,0.3-0.2,0.5-0.2s0.4,0.1,0.5,0.2
		c0.1,0.1,0.2,0.3,0.2,0.5c0,0.2-0.1,0.4-0.2,0.5c-0.7,0.6-1.4,1.2-2.3,1.5C96.4,149.1,95.5,149.2,94.5,149.2L94.5,149.2z"/>
	<path class="st0" d="M87.6,136.1c-0.2,0-0.3-0.1-0.4-0.1c-0.1-0.1-0.2-0.2-0.3-0.3c-0.1-0.1-0.1-0.3,0-0.4c0-0.1,0.1-0.3,0.2-0.4
		c2.4-2.4,5-4.7,7.6-7c2.6-2.3,5-4.4,7.3-6.8c0.1-0.1,0.3-0.2,0.5-0.2s0.4,0.1,0.5,0.2c0.1,0.1,0.2,0.3,0.2,0.5
		c0,0.2-0.1,0.4-0.2,0.5c-2.3,2.3-4.9,4.6-7.4,6.8c-2.5,2.2-5.1,4.5-7.5,6.9C88,136,87.8,136.1,87.6,136.1L87.6,136.1z"/>
	<path class="st0" d="M98.9,147.4c-0.2,0-0.4-0.1-0.6-0.2c-0.1-0.1-0.1-0.2-0.2-0.2c0-0.1-0.1-0.2-0.1-0.3s0-0.2,0.1-0.3
		c0-0.1,0.1-0.2,0.2-0.2c2.4-2.4,4.7-5,6.9-7.5s4.5-5.1,6.8-7.4c0.1-0.1,0.2-0.1,0.2-0.2c0.1,0,0.2-0.1,0.3-0.1c0.1,0,0.2,0,0.3,0.1
		c0.1,0,0.2,0.1,0.3,0.2c0.1,0.1,0.1,0.2,0.2,0.3c0,0.1,0.1,0.2,0.1,0.3c0,0.1,0,0.2-0.1,0.3c0,0.1-0.1,0.2-0.2,0.2
		c-2.3,2.3-4.6,4.9-6.8,7.3s-4.6,5.1-7,7.6C99.3,147.4,99.1,147.4,98.9,147.4L98.9,147.4z"/>
	<path class="st0" d="M114.6,118.1c-0.2,0-0.3-0.1-0.4-0.1s-0.2-0.2-0.3-0.3c-0.1-0.1-0.1-0.3,0-0.4c0-0.1,0.1-0.3,0.2-0.4l0.2-0.2
		c0.1-0.1,0.3-0.2,0.5-0.2s0.4,0.1,0.5,0.2c0.1,0.1,0.2,0.3,0.2,0.5s-0.1,0.4-0.2,0.5l-0.2,0.2C115,118,114.8,118.1,114.6,118.1
		L114.6,118.1z"/>
	<path class="st0" d="M117,120.5c-0.2,0-0.4-0.1-0.5-0.2c-0.1-0.1-0.1-0.1-0.2-0.2c0-0.1-0.1-0.2-0.1-0.3c0-0.1,0-0.2,0-0.3
		s0.1-0.2,0.1-0.3l0.2-0.2c0.1-0.1,0.1-0.1,0.2-0.2c0.1,0,0.2-0.1,0.3-0.1c0.1,0,0.2,0,0.3,0s0.2,0.1,0.3,0.1
		c0.2,0.1,0.3,0.3,0.3,0.5c0,0.2,0,0.4-0.2,0.6l-0.2,0.2c-0.1,0.1-0.2,0.2-0.3,0.2C117.2,120.5,117.1,120.5,117,120.5z"/>
	<path class="st0" d="M116.7,115.9c-0.2,0-0.3,0-0.4-0.1c-0.1-0.1-0.2-0.2-0.3-0.3c-0.1-0.1-0.1-0.3,0-0.4c0-0.2,0.1-0.3,0.2-0.4
		l0.2-0.2c0.1-0.1,0.2-0.1,0.2-0.2c0.1,0,0.2-0.1,0.3-0.1c0.1,0,0.2,0,0.3,0.1c0.1,0,0.2,0.1,0.2,0.2c0.1,0.1,0.1,0.2,0.2,0.2
		c0,0.1,0.1,0.2,0.1,0.3c0,0.1,0,0.2-0.1,0.3c0,0.1-0.1,0.2-0.2,0.2l-0.2,0.2c-0.1,0.1-0.2,0.1-0.2,0.2
		C116.9,115.9,116.8,115.9,116.7,115.9L116.7,115.9z"/>
	<path class="st0" d="M119.1,118.4c-0.2,0-0.4-0.1-0.5-0.2c-0.1-0.1-0.1-0.2-0.2-0.2c0-0.1-0.1-0.2-0.1-0.3s0-0.2,0.1-0.3
		c0-0.1,0.1-0.2,0.2-0.2l0.2-0.2c0.1-0.1,0.3-0.2,0.5-0.2c0.2,0,0.4,0.1,0.5,0.2c0.1,0.1,0.2,0.3,0.2,0.5s-0.1,0.4-0.2,0.5l-0.2,0.2
		c-0.1,0.1-0.2,0.1-0.2,0.2C119.3,118.3,119.2,118.4,119.1,118.4z"/>
	<path class="st0" d="M112.4,120.2c-0.1,0-0.3,0-0.4-0.1c-0.1-0.1-0.2-0.2-0.3-0.3c-0.1-0.1-0.1-0.3-0.1-0.4c0-0.1,0.1-0.3,0.2-0.4
		l0.2-0.2c0.1-0.1,0.1-0.1,0.2-0.2c0.1,0,0.2-0.1,0.3-0.1c0.1,0,0.2,0,0.3,0c0.1,0,0.2,0.1,0.3,0.1c0.1,0.1,0.1,0.1,0.2,0.2
		c0,0.1,0.1,0.2,0.1,0.3c0,0.1,0,0.2,0,0.3c0,0.1-0.1,0.2-0.2,0.3l-0.2,0.2c-0.1,0.1-0.2,0.2-0.3,0.2
		C112.6,120.2,112.5,120.2,112.4,120.2L112.4,120.2z"/>
	<path class="st0" d="M114.8,122.6c-0.2,0-0.4-0.1-0.5-0.2c-0.1-0.1-0.1-0.1-0.2-0.2c0-0.1-0.1-0.2-0.1-0.3c0-0.1,0-0.2,0-0.3
		c0-0.1,0.1-0.2,0.1-0.3l0.2-0.2c0.1-0.1,0.1-0.1,0.2-0.2c0.1,0,0.2-0.1,0.3-0.1c0.1,0,0.2,0,0.3,0c0.1,0,0.2,0.1,0.3,0.2
		c0.1,0.1,0.1,0.1,0.2,0.2c0,0.1,0.1,0.2,0.1,0.3c0,0.1,0,0.2,0,0.3c0,0.1-0.1,0.2-0.1,0.3l-0.2,0.2c-0.1,0.1-0.2,0.2-0.3,0.2
		C115.1,122.6,114.9,122.6,114.8,122.6L114.8,122.6z"/>
	<path class="st0" d="M98,134.6c-0.1,0-0.2,0-0.3-0.1c-0.1,0-0.2-0.1-0.2-0.2c-0.1-0.1-0.1-0.2-0.2-0.2c0-0.1-0.1-0.2-0.1-0.3
		c0-0.1,0-0.2,0.1-0.3c0-0.1,0.1-0.2,0.2-0.2l0.2-0.2c0.1-0.1,0.3-0.2,0.5-0.2s0.4,0.1,0.5,0.2s0.2,0.3,0.2,0.5s-0.1,0.4-0.2,0.5
		l-0.2,0.2C98.4,134.5,98.2,134.6,98,134.6L98,134.6z"/>
	<path class="st0" d="M100.4,137c-0.1,0-0.2,0-0.3-0.1c-0.1,0-0.2-0.1-0.3-0.2c-0.1-0.1-0.1-0.2-0.1-0.3c0-0.1,0-0.2,0-0.3
		c0-0.1,0-0.2,0.1-0.3c0-0.1,0.1-0.2,0.2-0.2l0.2-0.1c0.1-0.1,0.2-0.1,0.3-0.2c0.1,0,0.2,0,0.3,0c0.1,0,0.2,0,0.3,0.1
		c0.1,0,0.2,0.1,0.2,0.2c0.1,0.1,0.1,0.2,0.1,0.3c0,0.1,0,0.2,0,0.3c0,0.1,0,0.2-0.1,0.3c0,0.1-0.1,0.2-0.2,0.2l-0.2,0.1
		C100.8,136.9,100.6,137,100.4,137L100.4,137z"/>
	<path class="st0" d="M100.2,132.4c-0.2,0-0.3-0.1-0.4-0.1c-0.1-0.1-0.2-0.2-0.3-0.4c-0.1-0.1-0.1-0.3,0-0.5c0-0.2,0.1-0.3,0.2-0.4
		l0.2-0.2c0.2-0.1,0.4-0.2,0.6-0.2c0.2,0,0.4,0.1,0.5,0.3c0.1,0.1,0.1,0.2,0.1,0.3s0,0.2,0,0.3c0,0.1,0,0.2-0.1,0.3
		c0,0.1-0.1,0.2-0.2,0.2l-0.2,0.2C100.5,132.4,100.3,132.5,100.2,132.4z"/>
	<path class="st0" d="M102.6,134.9c-0.1,0-0.2,0-0.3-0.1c-0.1,0-0.2-0.1-0.3-0.2c-0.1-0.1-0.1-0.2-0.2-0.3c0-0.1,0-0.2,0-0.3
		c0-0.1,0-0.2,0.1-0.3c0-0.1,0.1-0.2,0.2-0.2l0.2-0.1c0.1-0.1,0.2-0.1,0.3-0.2c0.1,0,0.2,0,0.3,0c0.1,0,0.2,0,0.3,0.1
		c0.1,0,0.2,0.1,0.2,0.2c0.1,0.1,0.1,0.2,0.1,0.3c0,0.1,0,0.2,0,0.3c0,0.1,0,0.2-0.1,0.3c0,0.1-0.1,0.2-0.2,0.2l-0.2,0.1
		C102.9,134.8,102.7,134.9,102.6,134.9L102.6,134.9z"/>
	<path class="st0" d="M95.9,136.8c-0.2,0-0.3-0.1-0.4-0.1c-0.1-0.1-0.2-0.2-0.3-0.3c-0.1-0.1-0.1-0.3,0-0.4c0-0.1,0.1-0.3,0.2-0.4
		l0.2-0.2c0.1-0.1,0.3-0.2,0.5-0.2c0.2,0,0.4,0.1,0.5,0.2c0.1,0.1,0.2,0.3,0.2,0.5c0,0.2-0.1,0.4-0.2,0.5l-0.2,0.2
		C96.3,136.7,96.1,136.7,95.9,136.8L95.9,136.8z"/>
	<path class="st0" d="M98.3,139.1c-0.1,0-0.2,0-0.3-0.1c-0.1,0-0.2-0.1-0.2-0.2c-0.1-0.1-0.1-0.2-0.2-0.2c0-0.1-0.1-0.2-0.1-0.3
		s0-0.2,0.1-0.3c0-0.1,0.1-0.2,0.2-0.2l0.2-0.2c0.1-0.1,0.2-0.1,0.2-0.2c0.1,0,0.2-0.1,0.3-0.1c0.1,0,0.2,0,0.3,0.1s0.2,0.1,0.2,0.2
		c0.1,0.1,0.1,0.2,0.2,0.2c0,0.1,0.1,0.2,0.1,0.3s0,0.2-0.1,0.3c0,0.1-0.1,0.2-0.2,0.2l-0.2,0.2c-0.1,0.1-0.2,0.1-0.3,0.2
		S98.4,139.2,98.3,139.1L98.3,139.1z"/>
	<path class="st0" d="M207.1,136.5c0.1-0.3,0-0.5-0.1-0.8c-0.1-0.3-0.3-0.5-0.5-0.6l-0.4-0.2c-1.5-1-3.2-1.4-4.9-1.2l-4.7,0.4
		l-0.7-2.3l0.5-0.2c0.3-0.1,0.6-0.4,0.7-0.7c0.1-0.3,0.2-0.7,0-1l-1.4-3.9c-0.3-0.9-1-1.8-1.8-2.3c-0.8-0.6-1.8-0.9-2.8-0.9h-1.7
		c-0.5,0-1-1-1.2-2.4c0.7-0.3,1.4-0.8,1.8-1.5c0.4-0.7,0.7-1.4,0.7-2.2v-4.2c0-0.6-0.2-1.1-0.4-1.7c-0.3-0.5-0.6-1-1.1-1.3
		c0-0.1,0.1-0.2,0.1-0.2c0.2-0.6,0.2-1.2,0-1.8c-0.4-1.1-1.6-1.8-3.2-1.8c-1.6,0-2.8,0.7-3.2,1.8c-0.2,0.6-0.2,1.2,0,1.8
		c0,0.1,0.1,0.2,0.1,0.2c-0.4,0.4-0.8,0.8-1.1,1.3c-0.3,0.5-0.4,1.1-0.4,1.7v4.2c0,0.8,0.3,1.6,0.7,2.2c0.4,0.7,1.1,1.2,1.8,1.5
		c-0.2,1.5-0.7,2.4-1.2,2.4h-1.6c-1,0-2,0.3-2.8,0.9c-0.8,0.6-1.4,1.4-1.8,2.3l-1.4,3.9c-0.1,0.3-0.1,0.7,0,1
		c0.1,0.3,0.4,0.6,0.7,0.7l0.5,0.2l-0.7,2.3l-4.7-0.4c-1.7-0.2-3.5,0.3-4.9,1.2l-0.4,0.2c-0.2,0.1-0.3,0.2-0.4,0.4
		c-0.1,0.2-0.2,0.3-0.2,0.5c0,0.2,0,0.4,0,0.5c0,0.2,0.1,0.3,0.2,0.5c0.1,0.1,0.2,0.3,0.4,0.4c0.2,0.1,0.3,0.1,0.5,0.2l2.8,0.3
		c-0.2,0.2-0.4,0.4-0.5,0.7c-0.2,0.5-0.4,1-0.4,1.5c0,0.5,0.1,1,0.3,1.5s0.5,0.9,0.9,1.2c0.4,0.3,0.8,0.6,1.3,0.7l10.7,3.1
		c0,0.4,0.2,0.7,0.5,0.9c0.3,0.2,0.6,0.4,1,0.4h2.6c0.8,0,1.7-0.1,2.5-0.4l13.4-4c0.5-0.1,1-0.4,1.4-0.7c0.4-0.3,0.7-0.8,0.9-1.2
		c0.2-0.5,0.3-1,0.3-1.5c0-0.5-0.2-1-0.4-1.5c-0.1-0.3-0.3-0.5-0.5-0.7l2.8-0.3c0.3,0,0.5-0.1,0.7-0.3
		C206.9,137,207,136.7,207.1,136.5L207.1,136.5z M186.1,109.5c0.7,0,1.5,0.2,2,0.6c0.6,0.4,1,1.1,1.2,1.8c-0.3-0.2-0.5-0.5-0.7-0.8
		c-0.1-0.2-0.2-0.3-0.4-0.4s-0.3-0.2-0.5-0.2c-0.2,0-0.4,0-0.5,0c-0.2,0-0.3,0.1-0.5,0.2c-1.1,0.8-2.5,1.3-3.9,1.3
		c0.1-0.8,0.5-1.4,1.1-1.9C184.6,109.7,185.3,109.5,186.1,109.5L186.1,109.5z M184.1,107.8c0.2-0.6,1-0.9,2-0.9s1.8,0.3,2,0.9
		c0.1,0.3,0.1,0.6,0,0.9c-0.6-0.3-1.3-0.4-2-0.4c-0.7,0-1.4,0.1-2,0.4C184,108.3,184,108,184.1,107.8L184.1,107.8z M182.8,116.6
		v-3.1c1.7,0,3.3-0.6,4.7-1.6c0.4,0.7,1.1,1.3,1.9,1.5v3.2c-0.1,0.8-0.5,1.5-1.1,2c-0.6,0.5-1.4,0.8-2.2,0.8c-0.8,0-1.6-0.3-2.2-0.8
		C183.3,118.1,182.9,117.3,182.8,116.6L182.8,116.6z M186.1,120.7c0.3,0,0.5,0,0.8-0.1c0.1,1,0.4,1.9,1,2.7
		c-0.5,0.4-1.2,0.6-1.8,0.6c-0.7,0-1.3-0.2-1.8-0.6l0,0c0.6-0.8,0.9-1.7,1-2.7C185.6,120.7,185.9,120.7,186.1,120.7L186.1,120.7z
		 M177.8,126.3c0.3-0.7,0.7-1.3,1.3-1.7c0.6-0.4,1.3-0.6,2-0.7h1.8l0.4,0.4c0.7,0.6,1.7,1,2.7,1c1,0,1.9-0.4,2.6-1l0.4-0.4h1.9
		c0.7,0,1.4,0.2,2,0.7c0.6,0.4,1.1,1,1.3,1.7l1.4,3.9l-4.3,1.7c0.3-1,0.7-2,1.1-3c0-0.1,0.1-0.2,0.1-0.3c0-0.1,0-0.2,0-0.3
		c0-0.1-0.1-0.2-0.1-0.2c-0.1-0.1-0.1-0.1-0.2-0.2c-0.1,0-0.2-0.1-0.3-0.1c-0.1,0-0.2,0-0.3,0c-0.1,0-0.2,0.1-0.2,0.1
		c-0.1,0.1-0.1,0.1-0.2,0.2c-0.1,0.2-2.2,4.5-1.6,8c-2.5,0.3-5,0.3-7.4,0c0.6-3.4-1.5-7.8-1.6-8c0-0.1-0.1-0.1-0.2-0.2
		c-0.1-0.1-0.1-0.1-0.2-0.1c-0.1,0-0.2,0-0.3,0c-0.1,0-0.2,0-0.2,0.1c-0.1,0-0.1,0.1-0.2,0.2c-0.1,0.1-0.1,0.1-0.1,0.2
		c0,0.1,0,0.2,0,0.3c0,0.1,0,0.2,0.1,0.2c0.5,1,0.8,2,1.1,3l-4.3-1.7L177.8,126.3z M180.9,137c-0.4,0.9-0.7,1.6-1,2.2l-2.2-0.8
		c0.3-0.1,0.6-0.3,0.9-0.5c0.3-0.2,0.4-0.5,0.5-0.9l1.2-3.9l0.7,0.3C181.3,134.7,181.2,135.9,180.9,137L180.9,137z M166.8,135.9
		c1.2-0.8,2.7-1.2,4.1-1l4.7,0.4c0.3,0,0.6-0.1,0.9-0.2c0.2-0.2,0.4-0.4,0.5-0.7l0.6-2.2l1.4,0.6l-1.2,4c0,0.1-0.1,0.3-0.3,0.4
		c-0.1,0.1-0.3,0.1-0.4,0.1l-4-0.4l-0.3-0.1c-0.6-0.2-1.2-0.2-1.9-0.1l-4.6-0.4L166.8,135.9z M169.7,140.9c-0.2-0.5-0.2-1.1,0-1.6
		c0.2-0.5,0.6-1,1.1-1.2c0.5-0.2,1.1-0.3,1.6-0.1l9.2,3.4c0.1,0,0.2,0,0.3,0c0.1,0,0.2,0,0.3-0.1c0.1,0,0.2-0.1,0.2-0.2
		c0.1-0.1,0.1-0.1,0.1-0.2c0.1-0.2,0.1-0.3,0-0.5c-0.1-0.2-0.2-0.3-0.4-0.3l-1-0.3c0.3-0.6,0.6-1.3,0.9-2.1c1.3,0.2,2.7,0.3,4.1,0.3
		c1.4,0,2.7-0.1,4.1-0.3c0.4,1,0.8,2,1.3,2.9l-3.5,1.7l-3.9-1.4c-0.1,0-0.2,0-0.3,0c-0.1,0-0.2,0-0.3,0.1c-0.1,0-0.2,0.1-0.2,0.2
		c-0.1,0.1-0.1,0.1-0.1,0.2c-0.1,0.2,0,0.3,0,0.5c0.1,0.2,0.2,0.3,0.4,0.3l2.6,1l-4,2c-0.1,0.1-0.2,0.1-0.3,0.2l-10.8-3.1
		c-0.3-0.1-0.6-0.2-0.8-0.5c-0.2-0.2-0.4-0.5-0.6-0.8L169.7,140.9z M183,146.4c0,0-0.1,0-0.1,0c0,0-0.1-0.1-0.1-0.1c0,0,0-0.1,0-0.1
		c0,0,0-0.1,0.1-0.1l3.3-1.6l0.8,1.8c-0.4,0.1-0.9,0.1-1.3,0.1H183z M202.5,140.9c-0.1,0.3-0.3,0.6-0.6,0.8
		c-0.2,0.2-0.5,0.4-0.8,0.5l-12.9,3.8l-0.9-2l12.5-6c0.5-0.2,1.1-0.1,1.6,0.1c0.5,0.3,0.9,0.7,1.1,1.2
		C202.7,139.8,202.7,140.4,202.5,140.9L202.5,140.9z M201.2,136.6c-0.6-0.1-1.3-0.1-1.9,0.1h-0.1l-0.1,0.1l-4.1,0.4
		c-0.2,0-0.3,0-0.4-0.1s-0.2-0.2-0.3-0.4l-0.4-1.3c0-0.1-0.1-0.2-0.1-0.2c-0.1-0.1-0.1-0.1-0.2-0.2c-0.1,0-0.2-0.1-0.3-0.1
		c-0.1,0-0.2,0-0.3,0c-0.1,0-0.2,0.1-0.2,0.1c-0.1,0.1-0.1,0.1-0.2,0.2c0,0.1-0.1,0.2-0.1,0.3c0,0.1,0,0.2,0,0.3l0.4,1.4
		c0.1,0.4,0.4,0.8,0.7,1c0.3,0.3,0.8,0.4,1.2,0.4h0.2h0.6l-3,1.5c-0.5-1-1-1.9-1.3-2.9c-0.4-1.1-0.4-2.3-0.2-3.5l0.7-0.3l0.2,0.7
		c0,0.1,0.1,0.2,0.1,0.2c0.1,0.1,0.1,0.1,0.2,0.2c0.1,0,0.2,0.1,0.2,0.1c0.1,0,0.2,0,0.3,0c0.2-0.1,0.3-0.2,0.4-0.3
		c0-0.1,0.1-0.2,0.1-0.3s0-0.2-0.1-0.3l-0.2-0.8l1.4-0.6l0.6,2.2c0.1,0.3,0.3,0.6,0.5,0.7c0.3,0.2,0.6,0.3,0.9,0.2l4.7-0.4
		c1.4-0.2,2.9,0.2,4.1,1l0.4,0.2L201.2,136.6z"/>
	<path class="st0" d="M193.8,28.4c0.4-0.5,0.6-1.1,0.6-1.7c0-0.8-0.3-1.5-0.8-2c-0.5-0.5-1.3-0.8-2-0.8h-0.1
		c0.1-0.2,0.1-0.4,0.1-0.7c0-0.5-0.2-1-0.5-1.4c-0.3-0.4-0.8-0.6-1.3-0.7l1.1-3.3c0-0.1,0.1-0.2,0-0.3c0-0.1-0.1-0.2-0.1-0.3
		c-0.1-0.1-0.2-0.2-0.3-0.2c-0.1-0.1-0.2-0.1-0.3-0.1h-2.8v-1.3h2.1c0.2,0,0.4-0.1,0.5-0.2c0.1-0.1,0.2-0.3,0.2-0.5v-7
		c0-0.2-0.1-0.4-0.2-0.5c-0.1-0.1-0.3-0.2-0.5-0.2h-5.6c-0.2,0-0.4,0.1-0.5,0.2c-0.1,0.1-0.2,0.3-0.2,0.5v7c0,0.1,0,0.2,0.1,0.3
		c0,0.1,0.1,0.2,0.2,0.2c0.1,0.1,0.2,0.1,0.2,0.2c0.1,0,0.2,0.1,0.3,0.1h2.1v1.3h-2.8c-0.1,0-0.2,0-0.3,0.1
		c-0.1,0.1-0.2,0.1-0.3,0.2c-0.1,0.1-0.1,0.2-0.1,0.3c0,0.1,0,0.2,0,0.4l1.1,3.3c-0.5,0.1-1,0.3-1.3,0.7c-0.3,0.4-0.5,0.9-0.5,1.4
		c0,0.2,0,0.4,0.1,0.7h-0.1c-0.4,0-0.8,0.1-1.1,0.2c-0.4,0.1-0.7,0.4-0.9,0.6c-0.3,0.3-0.5,0.6-0.6,0.9c-0.1,0.3-0.2,0.7-0.2,1.1
		c0,0.6,0.2,1.2,0.6,1.7c-1.6,0.5-3,1.5-4,2.8c-1,1.3-1.5,3-1.5,4.6v12c0,1.1,0.4,2.2,1.2,3c0.8,0.8,1.9,1.3,3,1.3H195
		c1.1,0,2.2-0.5,3-1.3c0.8-0.8,1.3-1.9,1.3-3v-12c0-1.7-0.5-3.3-1.5-4.6C196.7,29.9,195.3,28.9,193.8,28.4L193.8,28.4z M189.4,23.9
		h-5.6c-0.1,0-0.2,0-0.2,0c-0.1,0-0.2-0.1-0.2-0.1c-0.1-0.1-0.1-0.1-0.1-0.2c0-0.1,0-0.2,0-0.2c0-0.1,0-0.2,0-0.2
		c0-0.1,0.1-0.2,0.1-0.2c0.1-0.1,0.1-0.1,0.2-0.1c0.1,0,0.2,0,0.2,0h5.6c0.1,0,0.2,0,0.2,0c0.1,0,0.2,0.1,0.2,0.1
		c0.1,0.1,0.1,0.1,0.1,0.2c0,0.1,0.1,0.2,0.1,0.2c0,0.1,0,0.2-0.1,0.2c0,0.1-0.1,0.2-0.1,0.2c-0.1,0.1-0.1,0.1-0.2,0.1
		C189.6,23.9,189.5,23.9,189.4,23.9L189.4,23.9z M184.5,26.7v-1.4h4.1v1.4c0,0.8,0.3,1.5,0.8,2c0.5,0.5,1.3,0.8,2,0.8
		c1.7,0,3.3,0.7,4.4,1.8c1.2,1.2,1.8,2.8,1.8,4.4v12c0,0.7-0.3,1.4-0.8,1.9s-1.2,0.8-1.9,0.8h-16.9c-0.7,0-1.4-0.3-1.9-0.8
		s-0.8-1.2-0.8-1.9v-12c0-1.7,0.7-3.3,1.8-4.4c1.2-1.2,2.8-1.8,4.4-1.8c0.4,0,0.8-0.1,1.1-0.2c0.3-0.1,0.7-0.4,0.9-0.6
		c0.3-0.3,0.5-0.6,0.6-0.9C184.4,27.5,184.5,27.1,184.5,26.7L184.5,26.7z M191.5,28.1c-0.3,0-0.5-0.1-0.8-0.2
		c-0.2-0.1-0.4-0.4-0.5-0.6c-0.1-0.2-0.1-0.5-0.1-0.8c0.1-0.3,0.2-0.5,0.4-0.7c0.2-0.2,0.4-0.3,0.7-0.4c0.3-0.1,0.5,0,0.8,0.1
		c0.2,0.1,0.5,0.3,0.6,0.5c0.1,0.2,0.2,0.5,0.2,0.8c0,0.2,0,0.4-0.1,0.5c-0.1,0.2-0.2,0.3-0.3,0.4c-0.1,0.1-0.3,0.2-0.4,0.3
		C191.8,28.1,191.7,28.1,191.5,28.1z M181.6,25.4c0.3,0,0.5,0.1,0.8,0.2c0.2,0.1,0.4,0.4,0.5,0.6c0.1,0.2,0.1,0.5,0.1,0.8
		c-0.1,0.3-0.2,0.5-0.4,0.7c-0.2,0.2-0.4,0.3-0.7,0.4c-0.3,0.1-0.5,0-0.8-0.1c-0.2-0.1-0.5-0.3-0.6-0.5c-0.1-0.2-0.2-0.5-0.2-0.8
		c0-0.4,0.1-0.7,0.4-1C180.9,25.5,181.3,25.4,181.6,25.4L181.6,25.4z M188.6,8.5V14h-4.1V8.5H188.6z M184.1,18.4h4.9l-0.9,2.7H185
		L184.1,18.4z"/>
	<path class="st0" d="M185.9,9.9h1.4v2.8h-1.4V9.9z"/>
	<path class="st0" d="M47,126c0-0.1,0-0.3,0-0.4c-0.2-3-1.1-5.9-2.8-8.5l-0.1-0.1c0,0,0-0.1,0-0.1c-0.2-0.3-0.4-0.6-0.6-0.8
		l-0.2-0.3l-0.1-0.1c-0.1-0.2-0.3-0.4-0.4-0.5l-0.4-0.4l-0.3-0.4c-0.2-0.3-0.5-0.5-0.8-0.8l-0.2-0.2c-0.5-0.5-1.1-0.9-1.7-1.4
		c-0.1-0.1-0.3-0.2-0.4-0.3l-0.4-0.3c-0.3-0.2-0.6-0.3-0.9-0.5l-0.3-0.1h-0.1c-0.3-0.1-0.5-0.3-0.8-0.4h-0.1h-0.1
		c-2.2-1-4.7-1.5-7.1-1.5c-2,0-4.1,0.3-6,1h-0.1c-0.3,0.1-0.7,0.3-1,0.4l-0.4,0.2L21,111c-0.3,0.1-0.5,0.3-0.8,0.5l-0.3,0.2
		c-0.7,0.4-1.3,0.9-2,1.4l-0.1,0.1c-0.4,0.3-0.8,0.7-1.1,1l-0.1,0.1c-0.2,0.2-0.4,0.4-0.5,0.5l-0.3,0.3l-0.1,0.1l-0.6,0.7l-0.4,0.6
		l-0.1,0.1l-0.1,0.2c-1.8,2.7-2.9,5.8-3.1,9l0,0c0,0.4,0,0.8,0,1.1c0,0.3,0,0.7,0,1.2v0.3c0,0.3,0.1,0.7,0.1,1c0,0,0,0.1,0,0.1
		c0,0,0,0.1,0,0.1c0,0.3,0.1,0.7,0.2,1.1c0,0.1,0,0.2,0.1,0.3c0.1,0.3,0.1,0.6,0.2,0.9v0.1c0,0.1,0,0.1,0,0.2c0.1,0.3,0.2,0.7,0.3,1
		c0,0.1,0.1,0.2,0.1,0.3v0.1c0.1,0.2,0.2,0.5,0.3,0.7v0.1l0.1,0.3c0.1,0.3,0.3,0.6,0.5,0.9l0.2,0.3l0.1,0.1c0.1,0.2,0.2,0.4,0.4,0.6
		l0.1,0.1c0,0.1,0.1,0.1,0.1,0.2l0,0c2.2,3.2,5.3,5.7,9,7l0,0c0.1,0,0.1,0,0.2,0.1h0.1h0.1l0.3,0.1l0.3,0.1h0.1l0.7,0.2l0.5,0.1h0.2
		h0.2l0.4,0.1h0.4l0.5,0.1h0.4H28h0.3h0.9H30h0.3h0.6h0.2h0.1l0.5-0.1l0.4-0.1l0.5-0.1l0.4-0.1l0.4-0.1l0.4-0.1l0.4-0.1l0.5-0.1
		l0.3-0.1l0.4-0.2h0.1h0.1c3.4-1.3,6.4-3.7,8.4-6.8l0.1-0.2l0.1-0.1c0.1-0.2,0.2-0.4,0.4-0.6l0.1-0.1c0.1-0.1,0.1-0.2,0.2-0.3
		c0.2-0.3,0.3-0.6,0.5-0.9l0.1-0.3V134l0.3-0.7v-0.1l0.1-0.2c0.1-0.3,0.3-0.7,0.4-1l0.1-0.2v-0.1c0.1-0.3,0.2-0.6,0.2-0.9v-0.1
		c0-0.1,0-0.1,0-0.2c0.1-0.4,0.2-0.8,0.2-1.1c0,0,0-0.1,0-0.1v-0.1c0-0.3,0.1-0.6,0.1-1v-0.3c0-0.5,0-0.8,0-1.2S47,126.2,47,126z
		 M37,112.3c1.8,1,3.5,2.4,4.8,4l0.1,0.1h-0.1l-4.1-0.5L37,112.3L37,112.3z M37.2,117.4l5.8,0.7c1.3,2.1,2.1,4.6,2.3,7.1l-4.4,3.2
		l-4.6-1l-2.3-7L37.2,117.4z M34.8,127.9l-5.8,4.2l-5.8-4.2l2.2-6.8h7.2L34.8,127.9z M22.7,116.1l1.2-5c1.7-0.5,3.4-0.8,5.2-0.8
		c2.1,0,4.2,0.4,6.1,1.2l0,0l1,4.9l-3.3,3.2h-7.6L22.7,116.1L22.7,116.1z M16.7,115.9l0.1-0.1l0.2-0.2l0.3-0.4l0.3-0.3l0.3-0.3
		l0.4-0.3l0.1-0.1l0.2-0.2l0.5-0.4l0.1-0.1l0.1-0.1l0.6-0.4h0.1c0.2-0.2,0.5-0.3,0.7-0.5l0.1-0.1h0.1l0.5-0.3l0.4-0.2l0.1-0.1
		l0.2-0.1H22v0.1l-0.9,3.8l-4.7,0.4L16.7,115.9z M12.7,125.2c0.2-2.7,1.1-5.3,2.6-7.5l0,0l6.2-0.5l2.5,3.3l-2.3,7.1l-4.6,1
		L12.7,125.2L12.7,125.2z M14.4,134.2l-0.2-0.3c0-0.1-0.1-0.2-0.1-0.3l-0.2-0.5c0-0.1-0.1-0.2-0.1-0.3l-0.2-0.5
		c0-0.1-0.1-0.2-0.1-0.4c0-0.1-0.1-0.3-0.1-0.4s-0.1-0.3-0.1-0.4c0,0,0-0.1,0-0.1l-0.1-0.2c-0.1-0.3-0.1-0.5-0.2-0.8
		c0-0.1,0-0.1,0-0.2v-0.1v-0.1l-0.1-0.5c0-0.1,0-0.1,0-0.2v-0.1c0-0.2,0-0.4-0.1-0.5c-0.1-0.2,0-0.2,0-0.3v-0.1c0-0.2,0-0.4,0-0.5
		v-0.3l0.1,0.1l3.4,2.5l-1.5,4.7L14.4,134.2z M23.2,142c-3.1-1.2-5.8-3.3-7.6-6l0,0v-0.1l2-6.1l4.6-1l6.1,4.4v4.8L23.2,142z
		 M33.5,142.4h-0.1c-0.3,0.1-0.6,0.2-0.8,0.2h-0.1l-1,0.2h-0.1c-0.3,0-0.6,0.1-0.9,0.1h-0.2h-0.8H29c-0.6,0-1.2,0-1.8-0.1H27
		l-0.8-0.1H26l-0.8-0.2h-0.1H25l0.1-0.1l4.1-3.1L33.5,142.4L33.5,142.4z M42.5,136c-1.8,2.6-4.3,4.6-7.2,5.8l0,0l-5.5-3.8v-4.6
		l6.1-4.4l4.6,1L42.5,136L42.5,136z M45.4,127.1v0.2c0,0.2,0,0.3,0,0.5v0.4c0,0.2,0,0.3-0.1,0.5v0.1v0.2c0,0.2-0.1,0.4-0.1,0.6
		c0,0,0,0.1,0,0.1v0.2c-0.1,0.3-0.1,0.6-0.2,0.8c0,0.1,0,0.2-0.1,0.2c0,0,0,0.1,0,0.1v0.1l-0.1,0.4l-0.1,0.3v0.2l-0.1,0.3
		c0,0.1-0.1,0.3-0.2,0.5c-0.1,0.2-0.1,0.2-0.1,0.3l-0.2,0.5l-0.1,0.3l-0.1,0.2l-0.1,0.2v-0.1l-1.5-4.6l3.5-2.5L45.4,127.1z"/>
</g>
<g>
	<g>
		<g>
			<path class="st0" d="M5,63.1h1.3v1.8H5.8l-2.9,8.8H1.2L5,63.1z M3.5,69.5h4.7l0.5,1.3H3L3.5,69.5z M5.9,64.9v-1.8h0.9l3.7,10.6
				H8.8L5.9,64.9z"/>
			<path class="st0" d="M11.8,66h1.6v1.3h0c0.1-0.5,0.3-0.8,0.6-1.1c0.3-0.3,0.7-0.4,1.1-0.4c0.1,0,0.2,0,0.3,0s0.2,0,0.2,0v1.5
				c-0.1,0-0.2,0-0.3-0.1s-0.3,0-0.4,0c-0.3,0-0.6,0.1-0.9,0.2s-0.4,0.4-0.6,0.6c-0.1,0.3-0.2,0.6-0.2,1v4.6h-1.6V66z"/>
			<path class="st0" d="M18.1,73.3c-0.4-0.3-0.5-0.9-0.5-1.7v-4.4h-1.1V66h1.1v-2h1.6v2h1.4v1.3h-1.4v4.3c0,0.4,0.1,0.7,0.2,0.8
				c0.2,0.1,0.4,0.2,0.7,0.2c0.1,0,0.2,0,0.2,0c0.1,0,0.1,0,0.2,0v1.2c-0.1,0-0.2,0-0.3,0s-0.3,0-0.4,0C19,73.8,18.4,73.7,18.1,73.3
				z"/>
			<path class="st0" d="M23.4,73.6c-0.5-0.2-0.8-0.5-1.1-0.8c-0.3-0.4-0.4-0.8-0.5-1.2l0-0.1h1.5l0,0.1c0.1,0.4,0.2,0.6,0.5,0.8
				c0.3,0.2,0.6,0.3,1.1,0.3c0.3,0,0.6,0,0.8-0.1c0.2-0.1,0.4-0.2,0.5-0.3s0.2-0.3,0.2-0.5v0c0-0.2-0.1-0.4-0.2-0.6
				s-0.4-0.3-0.8-0.4l-1.2-0.3c-0.7-0.2-1.2-0.4-1.6-0.8c-0.4-0.4-0.5-0.8-0.5-1.4v0c0-0.5,0.1-0.9,0.4-1.2c0.2-0.3,0.6-0.6,1-0.8
				c0.4-0.2,0.9-0.3,1.5-0.3c0.6,0,1.1,0.1,1.5,0.3s0.8,0.5,1,0.8c0.2,0.4,0.4,0.7,0.4,1.2v0.1h-1.5l0-0.1c0-0.3-0.2-0.6-0.4-0.8
				c-0.3-0.2-0.6-0.3-1-0.3c-0.3,0-0.5,0-0.7,0.1c-0.2,0.1-0.4,0.2-0.5,0.4c-0.1,0.2-0.2,0.3-0.2,0.5v0c0,0.2,0.1,0.4,0.3,0.6
				s0.5,0.3,0.9,0.4l1.2,0.3c0.8,0.2,1.3,0.4,1.6,0.8c0.3,0.3,0.5,0.8,0.5,1.3v0c0,0.5-0.1,0.9-0.4,1.2s-0.6,0.6-1.1,0.8
				c-0.5,0.2-1,0.3-1.6,0.3C24.4,73.8,23.9,73.7,23.4,73.6z"/>
			<path class="st0" d="M34,73.5c-0.4-0.2-0.7-0.5-0.9-0.8c-0.2-0.4-0.3-0.8-0.3-1.2v0c0-0.7,0.2-1.2,0.7-1.6
				c0.5-0.4,1.2-0.6,2.1-0.7l2.8-0.2v1.1l-2.6,0.2c-0.5,0-0.8,0.1-1.1,0.3c-0.2,0.2-0.4,0.5-0.4,0.8v0c0,0.3,0.1,0.6,0.4,0.8
				c0.3,0.2,0.6,0.3,1,0.3c0.4,0,0.7-0.1,1-0.2s0.5-0.4,0.7-0.6c0.2-0.3,0.2-0.6,0.2-0.9v-2.3c0-0.4-0.1-0.8-0.4-1
				c-0.3-0.2-0.6-0.4-1.1-0.4c-0.4,0-0.8,0.1-1.1,0.3s-0.4,0.4-0.5,0.8l0,0.1h-1.5l0-0.1c0-0.4,0.2-0.8,0.4-1.2
				c0.3-0.4,0.6-0.6,1.1-0.8s1-0.3,1.6-0.3s1.1,0.1,1.6,0.3s0.8,0.5,1,0.9c0.2,0.4,0.4,0.8,0.4,1.3v5.3h-1.6v-1.2h0
				c-0.1,0.3-0.3,0.5-0.6,0.7c-0.2,0.2-0.5,0.4-0.8,0.5c-0.3,0.1-0.6,0.2-0.9,0.2C34.8,73.8,34.4,73.7,34,73.5z"/>
			<path class="st0" d="M41.2,66h1.6v1.2h0c0.2-0.4,0.5-0.7,0.9-0.9c0.4-0.2,0.9-0.4,1.4-0.4c0.8,0,1.5,0.3,1.9,0.8s0.7,1.2,0.7,2.1
				v5h-1.6V69c0-0.6-0.1-1-0.4-1.3c-0.3-0.3-0.7-0.5-1.2-0.5c-0.4,0-0.7,0.1-0.9,0.2s-0.5,0.4-0.6,0.7c-0.1,0.3-0.2,0.6-0.2,1.1v4.5
				h-1.6V66z"/>
			<path class="st0" d="M50.7,73.4c-0.5-0.3-0.8-0.8-1.1-1.4c-0.3-0.6-0.4-1.3-0.4-2.1v0c0-0.8,0.1-1.5,0.4-2.1s0.6-1.1,1.1-1.4
				s1-0.5,1.6-0.5c0.5,0,1,0.1,1.4,0.4c0.4,0.3,0.7,0.6,1,1.1h0v-4.2h1.6v10.6h-1.6v-1.3h0c-0.2,0.4-0.5,0.8-0.9,1.1
				c-0.4,0.3-0.9,0.4-1.4,0.4C51.8,73.8,51.2,73.7,50.7,73.4z M53.8,72.2c0.3-0.2,0.5-0.5,0.7-0.9c0.2-0.4,0.3-0.9,0.3-1.4v0
				c0-0.5-0.1-1-0.3-1.4c-0.2-0.4-0.4-0.7-0.7-0.9s-0.6-0.3-1-0.3c-0.4,0-0.8,0.1-1.1,0.3c-0.3,0.2-0.5,0.5-0.7,0.9
				c-0.2,0.4-0.2,0.9-0.2,1.4v0c0,0.5,0.1,1,0.2,1.4s0.4,0.7,0.7,0.9s0.6,0.3,1.1,0.3C53.2,72.5,53.5,72.4,53.8,72.2z"/>
			<path class="st0" d="M11.9,85.4c-0.5-0.3-0.9-0.8-1.2-1.4c-0.3-0.6-0.4-1.3-0.4-2.1v0c0-0.8,0.1-1.5,0.4-2.1s0.7-1.1,1.2-1.4
				c0.5-0.3,1.2-0.5,1.9-0.5c0.6,0,1.2,0.1,1.7,0.4c0.5,0.3,0.8,0.6,1.1,1c0.3,0.4,0.4,0.9,0.5,1.3l0,0.1h-1.5l0-0.1
				c-0.1-0.4-0.3-0.7-0.6-1c-0.3-0.3-0.7-0.4-1.2-0.4c-0.4,0-0.7,0.1-1,0.3c-0.3,0.2-0.5,0.5-0.7,0.9c-0.2,0.4-0.2,0.9-0.2,1.4v0
				c0,0.6,0.1,1,0.2,1.4c0.2,0.4,0.4,0.7,0.7,0.9s0.6,0.3,1,0.3c0.5,0,0.9-0.1,1.2-0.4c0.3-0.3,0.5-0.6,0.6-1l0-0.1H17v0.1
				c-0.1,0.5-0.2,1-0.5,1.4c-0.3,0.4-0.7,0.7-1.1,1c-0.5,0.2-1,0.4-1.6,0.4C13,85.8,12.4,85.7,11.9,85.4z"/>
			<path class="st0" d="M18.5,78h1.6v1.3h0c0.1-0.5,0.3-0.8,0.6-1.1c0.3-0.3,0.7-0.4,1.1-0.4c0.1,0,0.2,0,0.3,0s0.2,0,0.2,0v1.5
				c-0.1,0-0.2,0-0.3-0.1s-0.3,0-0.4,0c-0.3,0-0.6,0.1-0.9,0.2s-0.4,0.4-0.6,0.6c-0.1,0.3-0.2,0.6-0.2,1v4.6h-1.6V78z"/>
			<path class="st0" d="M24.7,85.5c-0.4-0.2-0.7-0.5-0.9-0.8c-0.2-0.4-0.3-0.8-0.3-1.2v0c0-0.7,0.2-1.2,0.7-1.6
				c0.5-0.4,1.2-0.6,2.1-0.7l2.8-0.2v1.1l-2.6,0.2c-0.5,0-0.8,0.1-1.1,0.3c-0.2,0.2-0.4,0.5-0.4,0.8v0c0,0.3,0.1,0.6,0.4,0.8
				c0.3,0.2,0.6,0.3,1,0.3c0.4,0,0.7-0.1,1-0.2s0.5-0.4,0.7-0.6c0.2-0.3,0.2-0.6,0.2-0.9v-2.3c0-0.4-0.1-0.8-0.4-1
				c-0.3-0.2-0.6-0.4-1.1-0.4c-0.4,0-0.8,0.1-1.1,0.3s-0.4,0.4-0.5,0.8l0,0.1h-1.5l0-0.1c0-0.4,0.2-0.8,0.4-1.2
				c0.3-0.4,0.6-0.6,1.1-0.8s1-0.3,1.6-0.3s1.1,0.1,1.6,0.3s0.8,0.5,1,0.9c0.2,0.4,0.4,0.8,0.4,1.3v5.3h-1.6v-1.2h0
				c-0.1,0.3-0.3,0.5-0.6,0.7c-0.2,0.2-0.5,0.4-0.8,0.5c-0.3,0.1-0.6,0.2-0.9,0.2C25.5,85.8,25,85.7,24.7,85.5z"/>
			<path class="st0" d="M32.3,79.2h-1V78h1v-0.8c0-0.7,0.2-1.3,0.5-1.7c0.4-0.4,0.9-0.5,1.7-0.5c0.2,0,0.3,0,0.5,0s0.3,0,0.4,0v1.2
				c-0.1,0-0.2,0-0.2,0s-0.2,0-0.3,0c-0.3,0-0.6,0.1-0.8,0.3c-0.2,0.2-0.3,0.4-0.3,0.8V78h1.5v1.3h-1.5v6.4h-1.6V79.2z"/>
			<path class="st0" d="M37.9,85.3c-0.4-0.3-0.5-0.9-0.5-1.7v-4.4h-1.1V78h1.1v-2H39v2h1.4v1.3H39v4.3c0,0.4,0.1,0.7,0.2,0.8
				c0.2,0.1,0.4,0.2,0.7,0.2c0.1,0,0.2,0,0.2,0c0.1,0,0.1,0,0.2,0v1.2c-0.1,0-0.2,0-0.3,0s-0.3,0-0.4,0
				C38.9,85.8,38.3,85.7,37.9,85.3z"/>
			<path class="st0" d="M43.3,85.6c-0.5-0.2-0.8-0.5-1.1-0.8c-0.3-0.4-0.4-0.8-0.5-1.2l0-0.1h1.5l0,0.1c0.1,0.4,0.2,0.6,0.5,0.8
				c0.3,0.2,0.6,0.3,1.1,0.3c0.3,0,0.6,0,0.8-0.1c0.2-0.1,0.4-0.2,0.5-0.3s0.2-0.3,0.2-0.5v0c0-0.2-0.1-0.4-0.2-0.6
				s-0.4-0.3-0.8-0.4l-1.2-0.3c-0.7-0.2-1.2-0.4-1.6-0.8c-0.4-0.4-0.5-0.8-0.5-1.4v0c0-0.5,0.1-0.9,0.4-1.2c0.2-0.3,0.6-0.6,1-0.8
				c0.4-0.2,0.9-0.3,1.5-0.3c0.6,0,1.1,0.1,1.5,0.3s0.8,0.5,1,0.8c0.2,0.4,0.4,0.7,0.4,1.2v0.1h-1.5l0-0.1c0-0.3-0.2-0.6-0.4-0.8
				c-0.3-0.2-0.6-0.3-1-0.3c-0.3,0-0.5,0-0.7,0.1c-0.2,0.1-0.4,0.2-0.5,0.4c-0.1,0.2-0.2,0.3-0.2,0.5v0c0,0.2,0.1,0.4,0.3,0.6
				s0.5,0.3,0.9,0.4l1.2,0.3c0.8,0.2,1.3,0.4,1.6,0.8c0.3,0.3,0.5,0.8,0.5,1.3v0c0,0.5-0.1,0.9-0.4,1.2s-0.6,0.6-1.1,0.8
				c-0.5,0.2-1,0.3-1.6,0.3C44.3,85.8,43.8,85.7,43.3,85.6z"/>
		</g>
	</g>
</g>
<g>
	<g>
		<path class="st0" d="M88.6,73.7c-0.1,0-0.2,0-0.3-0.1v-1.5c0,0,0.1,0,0.2,0c0.1,0,0.2,0,0.2,0c0.3,0,0.6-0.1,0.8-0.3
			c0.2-0.2,0.4-0.5,0.5-0.9c0.1-0.4,0.2-0.9,0.2-1.5l0.4-6.5h6.6v10.6h-1.6v-9.1H92l-0.3,5.1c-0.1,0.9-0.2,1.7-0.4,2.3
			c-0.2,0.6-0.5,1.1-0.9,1.4c-0.4,0.3-0.9,0.5-1.5,0.5C88.8,73.8,88.7,73.8,88.6,73.7z"/>
		<path class="st0" d="M100.8,73.4c-0.5-0.3-1-0.8-1.2-1.4c-0.3-0.6-0.4-1.3-0.4-2.1v0c0-0.8,0.1-1.5,0.4-2.1
			c0.3-0.6,0.7-1.1,1.3-1.4s1.2-0.5,1.9-0.5c0.7,0,1.3,0.2,1.9,0.5c0.5,0.3,1,0.8,1.3,1.4c0.3,0.6,0.4,1.3,0.4,2.1v0
			c0,0.8-0.1,1.5-0.4,2.1c-0.3,0.6-0.7,1.1-1.2,1.4c-0.5,0.3-1.2,0.5-1.9,0.5C101.9,73.8,101.3,73.7,100.8,73.4z M103.7,72.2
			c0.3-0.2,0.5-0.5,0.7-0.9c0.2-0.4,0.2-0.9,0.2-1.4v0c0-0.6-0.1-1-0.2-1.4c-0.2-0.4-0.4-0.7-0.7-0.9c-0.3-0.2-0.7-0.3-1.1-0.3
			c-0.4,0-0.7,0.1-1,0.3s-0.5,0.5-0.7,0.9c-0.2,0.4-0.3,0.9-0.3,1.4v0c0,0.6,0.1,1,0.2,1.4c0.2,0.4,0.4,0.7,0.7,0.9
			c0.3,0.2,0.7,0.3,1.1,0.3C103.1,72.5,103.4,72.4,103.7,72.2z"/>
		<path class="st0" d="M107.8,66h1.6v1.2h0c0.2-0.4,0.4-0.7,0.8-1c0.4-0.2,0.8-0.4,1.3-0.4c0.3,0,0.7,0.1,0.9,0.2s0.5,0.3,0.7,0.5
			c0.2,0.2,0.3,0.5,0.4,0.8h0c0.1-0.3,0.3-0.6,0.5-0.8c0.2-0.2,0.5-0.4,0.8-0.5c0.3-0.1,0.6-0.2,1-0.2c0.5,0,0.9,0.1,1.3,0.3
			c0.4,0.2,0.7,0.5,0.9,0.9s0.3,0.8,0.3,1.3v5.3h-1.6v-4.9c0-0.5-0.1-0.9-0.4-1.2c-0.2-0.3-0.6-0.4-1.1-0.4c-0.3,0-0.6,0.1-0.8,0.2
			s-0.4,0.3-0.5,0.6s-0.2,0.5-0.2,0.9v4.8h-1.5v-5c0-0.4-0.1-0.8-0.4-1.1c-0.3-0.3-0.6-0.4-1-0.4c-0.3,0-0.6,0.1-0.8,0.2
			c-0.2,0.1-0.4,0.4-0.6,0.6s-0.2,0.6-0.2,0.9v4.8h-1.6V66z"/>
		<path class="st0" d="M121.7,73.4c-0.5-0.3-1-0.8-1.2-1.4c-0.3-0.6-0.4-1.3-0.4-2.1v0c0-0.8,0.1-1.5,0.4-2.1
			c0.3-0.6,0.7-1.1,1.3-1.4s1.2-0.5,1.9-0.5c0.7,0,1.3,0.2,1.9,0.5c0.5,0.3,1,0.8,1.3,1.4c0.3,0.6,0.4,1.3,0.4,2.1v0
			c0,0.8-0.1,1.5-0.4,2.1c-0.3,0.6-0.7,1.1-1.2,1.4c-0.5,0.3-1.2,0.5-1.9,0.5C122.9,73.8,122.2,73.7,121.7,73.4z M124.6,72.2
			c0.3-0.2,0.5-0.5,0.7-0.9c0.2-0.4,0.2-0.9,0.2-1.4v0c0-0.6-0.1-1-0.2-1.4c-0.2-0.4-0.4-0.7-0.7-0.9c-0.3-0.2-0.7-0.3-1.1-0.3
			c-0.4,0-0.7,0.1-1,0.3s-0.5,0.5-0.7,0.9c-0.2,0.4-0.3,0.9-0.3,1.4v0c0,0.6,0.1,1,0.2,1.4c0.2,0.4,0.4,0.7,0.7,0.9
			c0.3,0.2,0.7,0.3,1.1,0.3C124,72.5,124.4,72.4,124.6,72.2z"/>
	</g>
</g>
<g>
	<g>
		<path class="st0" d="M167.1,63.1h1.6v4.5h5.3v-4.5h1.6v10.6H174V69h-5.3v4.7h-1.6V63.1z"/>
		<path class="st0" d="M179.1,73.4c-0.5-0.3-1-0.8-1.2-1.4c-0.3-0.6-0.4-1.3-0.4-2.1v0c0-0.8,0.1-1.5,0.4-2.1
			c0.3-0.6,0.7-1.1,1.3-1.4s1.2-0.5,1.9-0.5c0.7,0,1.3,0.2,1.9,0.5c0.5,0.3,1,0.8,1.3,1.4c0.3,0.6,0.4,1.3,0.4,2.1v0
			c0,0.8-0.1,1.5-0.4,2.1c-0.3,0.6-0.7,1.1-1.2,1.4c-0.5,0.3-1.2,0.5-1.9,0.5C180.3,73.8,179.6,73.7,179.1,73.4z M182,72.2
			c0.3-0.2,0.5-0.5,0.7-0.9c0.2-0.4,0.2-0.9,0.2-1.4v0c0-0.6-0.1-1-0.2-1.4c-0.2-0.4-0.4-0.7-0.7-0.9c-0.3-0.2-0.7-0.3-1.1-0.3
			c-0.4,0-0.7,0.1-1,0.3s-0.5,0.5-0.7,0.9c-0.2,0.4-0.3,0.9-0.3,1.4v0c0,0.6,0.1,1,0.2,1.4c0.2,0.4,0.4,0.7,0.7,0.9
			c0.3,0.2,0.7,0.3,1.1,0.3C181.4,72.5,181.7,72.4,182,72.2z"/>
		<path class="st0" d="M186.2,66h1.6v1.2h0c0.2-0.4,0.4-0.7,0.8-1c0.4-0.2,0.8-0.4,1.3-0.4c0.3,0,0.7,0.1,0.9,0.2s0.5,0.3,0.7,0.5
			c0.2,0.2,0.3,0.5,0.4,0.8h0c0.1-0.3,0.3-0.6,0.5-0.8c0.2-0.2,0.5-0.4,0.8-0.5c0.3-0.1,0.6-0.2,1-0.2c0.5,0,0.9,0.1,1.3,0.3
			c0.4,0.2,0.7,0.5,0.9,0.9s0.3,0.8,0.3,1.3v5.3h-1.6v-4.9c0-0.5-0.1-0.9-0.4-1.2c-0.2-0.3-0.6-0.4-1.1-0.4c-0.3,0-0.6,0.1-0.8,0.2
			s-0.4,0.3-0.5,0.6s-0.2,0.5-0.2,0.9v4.8h-1.5v-5c0-0.4-0.1-0.8-0.4-1.1c-0.3-0.3-0.6-0.4-1-0.4c-0.3,0-0.6,0.1-0.8,0.2
			c-0.2,0.1-0.4,0.4-0.6,0.6s-0.2,0.6-0.2,0.9v4.8h-1.6V66z"/>
		<path class="st0" d="M200,73.4c-0.5-0.3-0.9-0.8-1.2-1.4c-0.3-0.6-0.4-1.3-0.4-2.1v0c0-0.8,0.1-1.5,0.4-2.1s0.7-1.1,1.2-1.4
			s1.1-0.5,1.8-0.5c0.7,0,1.3,0.2,1.8,0.5c0.5,0.3,0.9,0.8,1.2,1.4s0.4,1.3,0.4,2v0.5h-6.1v-1.1h5.4l-0.8,1v-0.6
			c0-0.5-0.1-1-0.2-1.4c-0.2-0.4-0.4-0.6-0.7-0.8s-0.6-0.3-1-0.3c-0.4,0-0.7,0.1-1,0.3c-0.3,0.2-0.5,0.5-0.7,0.8
			c-0.2,0.4-0.2,0.8-0.2,1.3v0.6c0,0.5,0.1,0.9,0.2,1.3c0.2,0.4,0.4,0.6,0.7,0.8c0.3,0.2,0.7,0.3,1.1,0.3c0.3,0,0.6,0,0.8-0.1
			c0.2-0.1,0.4-0.2,0.6-0.4c0.2-0.2,0.3-0.3,0.3-0.5l0-0.1h1.5l0,0.1c-0.1,0.3-0.2,0.6-0.4,0.9s-0.4,0.5-0.7,0.8
			c-0.3,0.2-0.6,0.4-1,0.5c-0.4,0.1-0.8,0.2-1.2,0.2C201.2,73.8,200.5,73.7,200,73.4z"/>
		<path class="st0" d="M159.4,75.1h1.6v10.6h-1.6V75.1z M160.2,84.4h3c0.7,0,1.3-0.1,1.6-0.4s0.6-0.7,0.6-1.3v0c0-0.4-0.1-0.7-0.3-1
			s-0.4-0.4-0.8-0.6c-0.3-0.1-0.8-0.2-1.3-0.2h-2.9v-1.3h2.6c0.7,0,1.2-0.1,1.6-0.4c0.4-0.3,0.6-0.7,0.6-1.2v0
			c0-0.5-0.2-0.9-0.5-1.1c-0.3-0.3-0.8-0.4-1.3-0.4h-2.9v-1.3h3.3c0.6,0,1.1,0.1,1.6,0.3c0.5,0.2,0.8,0.5,1.1,0.9
			c0.2,0.4,0.4,0.9,0.4,1.4v0c0,0.4-0.1,0.7-0.2,1.1c-0.2,0.3-0.4,0.6-0.7,0.8s-0.6,0.4-1,0.4v0c0.5,0,0.9,0.2,1.3,0.4
			s0.6,0.5,0.8,0.9c0.2,0.4,0.3,0.8,0.3,1.3v0c0,0.6-0.1,1.2-0.4,1.6s-0.7,0.8-1.2,1c-0.5,0.2-1.2,0.4-1.9,0.4h-3.3V84.4z"/>
		<path class="st0" d="M168.6,78h1.6v1.3h0c0.1-0.5,0.3-0.8,0.6-1.1c0.3-0.3,0.7-0.4,1.1-0.4c0.1,0,0.2,0,0.3,0s0.2,0,0.2,0v1.5
			c-0.1,0-0.2,0-0.3-0.1s-0.3,0-0.4,0c-0.3,0-0.6,0.1-0.9,0.2c-0.2,0.1-0.4,0.4-0.6,0.6c-0.1,0.3-0.2,0.6-0.2,1v4.6h-1.6V78z"/>
		<path class="st0" d="M175.2,85.4c-0.5-0.3-0.9-0.8-1.2-1.4c-0.3-0.6-0.4-1.3-0.4-2.1v0c0-0.8,0.1-1.5,0.4-2.1s0.7-1.1,1.2-1.4
			s1.1-0.5,1.8-0.5c0.7,0,1.3,0.2,1.8,0.5c0.5,0.3,0.9,0.8,1.2,1.4s0.4,1.3,0.4,2v0.5h-6.1v-1.1h5.4l-0.8,1v-0.6
			c0-0.5-0.1-1-0.2-1.4c-0.2-0.4-0.4-0.6-0.7-0.8s-0.6-0.3-1-0.3c-0.4,0-0.7,0.1-1,0.3c-0.3,0.2-0.5,0.5-0.7,0.8
			c-0.2,0.4-0.2,0.8-0.2,1.3v0.6c0,0.5,0.1,0.9,0.2,1.3c0.2,0.4,0.4,0.6,0.7,0.8c0.3,0.2,0.7,0.3,1.1,0.3c0.3,0,0.6,0,0.8-0.1
			c0.2-0.1,0.4-0.2,0.6-0.4c0.2-0.2,0.3-0.3,0.3-0.5l0-0.1h1.5l0,0.1c-0.1,0.3-0.2,0.6-0.4,0.9s-0.4,0.5-0.7,0.8
			c-0.3,0.2-0.6,0.4-1,0.5c-0.4,0.1-0.8,0.2-1.2,0.2C176.4,85.8,175.7,85.7,175.2,85.4z"/>
		<path class="st0" d="M181.5,78h1.6l1.4,6.1h0L186,78h1.5l1.6,6.1h0l1.4-6.1h1.5l-2.1,7.7h-1.6l-1.6-5.8h0l-1.6,5.8h-1.6L181.5,78z
			"/>
		<path class="st0" d="M194.7,85.4c-0.5-0.3-0.9-0.8-1.2-1.4c-0.3-0.6-0.4-1.3-0.4-2.1v0c0-0.8,0.1-1.5,0.4-2.1s0.7-1.1,1.2-1.4
			s1.1-0.5,1.8-0.5c0.7,0,1.3,0.2,1.8,0.5c0.5,0.3,0.9,0.8,1.2,1.4s0.4,1.3,0.4,2v0.5h-6.1v-1.1h5.4l-0.8,1v-0.6
			c0-0.5-0.1-1-0.2-1.4c-0.2-0.4-0.4-0.6-0.7-0.8s-0.6-0.3-1-0.3c-0.4,0-0.7,0.1-1,0.3c-0.3,0.2-0.5,0.5-0.7,0.8
			c-0.2,0.4-0.2,0.8-0.2,1.3v0.6c0,0.5,0.1,0.9,0.2,1.3c0.2,0.4,0.4,0.6,0.7,0.8c0.3,0.2,0.7,0.3,1.1,0.3c0.3,0,0.6,0,0.8-0.1
			c0.2-0.1,0.4-0.2,0.6-0.4c0.2-0.2,0.3-0.3,0.3-0.5l0-0.1h1.5l0,0.1c-0.1,0.3-0.2,0.6-0.4,0.9s-0.4,0.5-0.7,0.8
			c-0.3,0.2-0.6,0.4-1,0.5c-0.4,0.1-0.8,0.2-1.2,0.2C195.8,85.8,195.2,85.7,194.7,85.4z"/>
		<path class="st0" d="M201.5,78h1.6v1.3h0c0.1-0.5,0.3-0.8,0.6-1.1c0.3-0.3,0.7-0.4,1.1-0.4c0.1,0,0.2,0,0.3,0s0.2,0,0.2,0v1.5
			c-0.1,0-0.2,0-0.3-0.1s-0.3,0-0.4,0c-0.3,0-0.6,0.1-0.9,0.2c-0.2,0.1-0.4,0.4-0.6,0.6c-0.1,0.3-0.2,0.6-0.2,1v4.6h-1.6V78z"/>
		<path class="st0" d="M207.2,88.2c-0.1,0-0.3,0-0.4-0.1V87c0.1,0,0.1,0,0.2,0c0.1,0,0.2,0,0.3,0c0.4,0,0.7-0.1,0.9-0.2
			s0.4-0.4,0.5-0.7l0.1-0.4l-2.7-7.7h1.7l2,6.6l-0.3-0.3h0.4l-0.3,0.3l2-6.6h1.6l-2.8,8.1c-0.2,0.5-0.4,1-0.7,1.3
			c-0.3,0.3-0.6,0.6-0.9,0.7c-0.3,0.1-0.8,0.2-1.3,0.2C207.5,88.3,207.4,88.3,207.2,88.2z"/>
	</g>
</g>
<g>
	<g>
		<g>
			<path class="st0" d="M72.1,171.4c-0.6-0.2-1-0.6-1.4-1c-0.3-0.4-0.5-1-0.6-1.6l0-0.1h1.6l0,0.1c0,0.3,0.2,0.6,0.4,0.8
				c0.2,0.2,0.5,0.4,0.9,0.5c0.4,0.1,0.8,0.2,1.2,0.2c0.5,0,0.9-0.1,1.2-0.2s0.6-0.3,0.8-0.6c0.2-0.2,0.3-0.5,0.3-0.9v0
				c0-0.4-0.1-0.8-0.4-1c-0.3-0.3-0.8-0.5-1.5-0.6l-1.1-0.2c-1-0.2-1.8-0.6-2.3-1.1c-0.5-0.5-0.7-1.1-0.7-1.9v0
				c0-0.6,0.2-1.1,0.5-1.6c0.3-0.5,0.8-0.8,1.3-1.1c0.6-0.3,1.2-0.4,1.9-0.4c0.7,0,1.3,0.1,1.9,0.4s1,0.6,1.3,1
				c0.3,0.4,0.5,1,0.5,1.6l0,0.1h-1.6l0-0.1c0-0.3-0.2-0.6-0.4-0.8s-0.4-0.4-0.8-0.5c-0.3-0.1-0.7-0.2-1.1-0.2
				c-0.4,0-0.8,0.1-1.1,0.2c-0.3,0.1-0.6,0.3-0.7,0.5c-0.2,0.2-0.3,0.5-0.3,0.8v0c0,0.4,0.2,0.7,0.5,1s0.8,0.4,1.4,0.6l1.1,0.2
				c1.1,0.2,1.8,0.6,2.3,1.1c0.5,0.5,0.7,1.1,0.7,1.9v0c0,0.6-0.2,1.2-0.5,1.7c-0.3,0.5-0.8,0.8-1.4,1.1c-0.6,0.3-1.3,0.4-2.1,0.4
				C73.3,171.7,72.7,171.6,72.1,171.4z"/>
			<path class="st0" d="M79.7,163.8h1.6v1.2h0c0.2-0.4,0.5-0.7,0.9-0.9c0.4-0.2,0.9-0.4,1.4-0.4c0.8,0,1.5,0.3,1.9,0.8
				c0.5,0.5,0.7,1.2,0.7,2.1v5h-1.6v-4.7c0-0.6-0.1-1-0.4-1.3c-0.3-0.3-0.7-0.5-1.2-0.5c-0.4,0-0.7,0.1-0.9,0.2s-0.5,0.4-0.6,0.7
				c-0.1,0.3-0.2,0.7-0.2,1.1v4.5h-1.6V163.8z"/>
			<path class="st0" d="M89.5,171.2c-0.5-0.3-1-0.8-1.2-1.4c-0.3-0.6-0.4-1.3-0.4-2.1v0c0-0.8,0.1-1.5,0.4-2.1
				c0.3-0.6,0.7-1.1,1.3-1.4s1.2-0.5,1.9-0.5c0.7,0,1.3,0.2,1.9,0.5c0.5,0.3,1,0.8,1.3,1.4c0.3,0.6,0.4,1.3,0.4,2.1v0
				c0,0.8-0.1,1.5-0.4,2.1c-0.3,0.6-0.7,1.1-1.2,1.4c-0.5,0.3-1.2,0.5-1.9,0.5C90.7,171.7,90,171.5,89.5,171.2z M92.4,170.1
				c0.3-0.2,0.5-0.5,0.7-0.9c0.2-0.4,0.2-0.9,0.2-1.4v0c0-0.6-0.1-1-0.2-1.4c-0.2-0.4-0.4-0.7-0.7-0.9c-0.3-0.2-0.7-0.3-1.1-0.3
				c-0.4,0-0.7,0.1-1,0.3s-0.5,0.5-0.7,0.9c-0.2,0.4-0.3,0.9-0.3,1.4v0c0,0.6,0.1,1,0.2,1.4c0.2,0.4,0.4,0.7,0.7,0.9
				c0.3,0.2,0.7,0.3,1.1,0.3C91.8,170.4,92.1,170.3,92.4,170.1z"/>
			<path class="st0" d="M96,163.8h1.6l1.4,6.1h0l1.6-6.1h1.5l1.6,6.1h0l1.4-6.1h1.5l-2.1,7.7h-1.6l-1.6-5.8h0l-1.6,5.8H98L96,163.8z
				"/>
			<path class="st0" d="M110.5,171.3c-0.4-0.3-0.7-0.6-0.9-1.1h0v1.3h-1.6V161h1.6v4.2h0c0.2-0.5,0.5-0.8,1-1.1s0.9-0.4,1.4-0.4
				c0.6,0,1.2,0.2,1.6,0.5c0.5,0.3,0.8,0.8,1.1,1.4c0.3,0.6,0.4,1.3,0.4,2.1v0c0,0.8-0.1,1.5-0.4,2.1c-0.3,0.6-0.6,1.1-1.1,1.4
				c-0.5,0.3-1,0.5-1.7,0.5C111.3,171.7,110.9,171.6,110.5,171.3z M112.5,170c0.3-0.2,0.5-0.5,0.7-0.9c0.2-0.4,0.2-0.9,0.2-1.4v0
				c0-0.5-0.1-1-0.2-1.4c-0.2-0.4-0.4-0.7-0.7-0.9c-0.3-0.2-0.6-0.3-1.1-0.3c-0.4,0-0.7,0.1-1,0.3c-0.3,0.2-0.5,0.5-0.7,0.9
				c-0.2,0.4-0.3,0.9-0.3,1.4v0c0,0.5,0.1,1,0.3,1.4c0.2,0.4,0.4,0.7,0.7,0.9c0.3,0.2,0.6,0.3,1,0.3
				C111.9,170.3,112.2,170.2,112.5,170z"/>
			<path class="st0" d="M118,171.2c-0.5-0.3-1-0.8-1.2-1.4c-0.3-0.6-0.4-1.3-0.4-2.1v0c0-0.8,0.2-1.5,0.4-2.1s0.7-1.1,1.2-1.4
				c0.5-0.3,1.2-0.5,1.9-0.5c0.7,0,1.3,0.2,1.9,0.5c0.5,0.3,1,0.8,1.2,1.4s0.4,1.3,0.4,2.1v0c0,0.8-0.2,1.5-0.4,2.1
				s-0.7,1.1-1.2,1.4c-0.5,0.3-1.2,0.5-1.9,0.5C119.2,171.7,118.5,171.5,118,171.2z M120.9,170.1c0.3-0.2,0.5-0.5,0.7-0.9
				c0.2-0.4,0.2-0.9,0.2-1.4v0c0-0.6-0.1-1-0.2-1.4c-0.2-0.4-0.4-0.7-0.7-0.9c-0.3-0.2-0.7-0.3-1.1-0.3c-0.4,0-0.7,0.1-1,0.3
				c-0.3,0.2-0.5,0.5-0.7,0.9s-0.2,0.9-0.2,1.4v0c0,0.6,0.1,1,0.2,1.4c0.2,0.4,0.4,0.7,0.7,0.9s0.7,0.3,1.1,0.3
				C120.3,170.4,120.6,170.3,120.9,170.1z"/>
			<path class="st0" d="M126,171.4c-0.4-0.2-0.7-0.5-0.9-0.8s-0.3-0.8-0.3-1.2v0c0-0.7,0.2-1.2,0.7-1.6c0.5-0.4,1.2-0.6,2.1-0.7
				l2.8-0.2v1.1l-2.6,0.2c-0.5,0-0.8,0.1-1.1,0.3c-0.2,0.2-0.4,0.5-0.4,0.8v0c0,0.3,0.1,0.6,0.4,0.8s0.6,0.3,1,0.3
				c0.4,0,0.7-0.1,1-0.2c0.3-0.2,0.5-0.4,0.7-0.6c0.2-0.3,0.2-0.6,0.2-0.9v-2.3c0-0.4-0.1-0.8-0.4-1c-0.3-0.2-0.6-0.4-1.1-0.4
				c-0.4,0-0.8,0.1-1.1,0.3c-0.3,0.2-0.4,0.4-0.5,0.8l0,0.1h-1.5l0-0.1c0-0.4,0.2-0.8,0.4-1.2c0.3-0.4,0.6-0.6,1.1-0.8
				c0.4-0.2,1-0.3,1.6-0.3c0.6,0,1.1,0.1,1.6,0.3c0.4,0.2,0.8,0.5,1,0.9c0.2,0.4,0.4,0.8,0.4,1.3v5.3h-1.6v-1.2h0
				c-0.1,0.3-0.3,0.5-0.6,0.7c-0.2,0.2-0.5,0.4-0.8,0.5c-0.3,0.1-0.6,0.2-0.9,0.2C126.8,171.7,126.4,171.6,126,171.4z"/>
			<path class="st0" d="M133.1,163.8h1.6v1.3h0c0.1-0.5,0.3-0.8,0.6-1.1c0.3-0.3,0.7-0.4,1.1-0.4c0.1,0,0.2,0,0.3,0
				c0.1,0,0.2,0,0.2,0v1.5c-0.1,0-0.2,0-0.3-0.1c-0.1,0-0.3,0-0.4,0c-0.3,0-0.6,0.1-0.9,0.2c-0.2,0.1-0.4,0.4-0.6,0.6
				c-0.1,0.3-0.2,0.6-0.2,1v4.6h-1.6V163.8z"/>
			<path class="st0" d="M139.5,171.2c-0.5-0.3-0.8-0.8-1.1-1.4c-0.3-0.6-0.4-1.3-0.4-2.1v0c0-0.8,0.1-1.5,0.4-2.1
				c0.3-0.6,0.6-1.1,1.1-1.4c0.5-0.3,1-0.5,1.6-0.5c0.5,0,1,0.1,1.4,0.4s0.7,0.6,1,1.1h0V161h1.6v10.6h-1.6v-1.3h0
				c-0.2,0.4-0.5,0.8-0.9,1.1c-0.4,0.3-0.9,0.4-1.4,0.4C140.5,171.7,140,171.5,139.5,171.2z M142.6,170c0.3-0.2,0.5-0.5,0.7-0.9
				c0.2-0.4,0.3-0.9,0.3-1.4v0c0-0.5-0.1-1-0.3-1.4c-0.2-0.4-0.4-0.7-0.7-0.9c-0.3-0.2-0.6-0.3-1-0.3c-0.4,0-0.8,0.1-1.1,0.3
				c-0.3,0.2-0.5,0.5-0.7,0.9c-0.2,0.4-0.2,0.9-0.2,1.4v0c0,0.5,0.1,1,0.2,1.4c0.2,0.4,0.4,0.7,0.7,0.9c0.3,0.2,0.6,0.3,1.1,0.3
				C142,170.3,142.3,170.2,142.6,170z"/>
		</g>
	</g>
</g>
<g>
	<g>
		<g>
			<path class="st0" d="M172.5,167.4l-3.6-6.2h1.8l2.6,4.7h0l2.6-4.7h1.8l-3.6,6.2v4.3h-1.6V167.4z"/>
			<path class="st0" d="M180.5,171.4c-0.5-0.3-1-0.8-1.2-1.4c-0.3-0.6-0.4-1.3-0.4-2.1v0c0-0.8,0.1-1.5,0.4-2.1
				c0.3-0.6,0.7-1.1,1.3-1.4s1.2-0.5,1.9-0.5c0.7,0,1.3,0.2,1.9,0.5c0.5,0.3,1,0.8,1.3,1.4c0.3,0.6,0.4,1.3,0.4,2.1v0
				c0,0.8-0.1,1.5-0.4,2.1c-0.3,0.6-0.7,1.1-1.2,1.4c-0.5,0.3-1.2,0.5-1.9,0.5C181.7,171.9,181,171.7,180.5,171.4z M183.4,170.2
				c0.3-0.2,0.5-0.5,0.7-0.9c0.2-0.4,0.2-0.9,0.2-1.4v0c0-0.6-0.1-1-0.2-1.4c-0.2-0.4-0.4-0.7-0.7-0.9c-0.3-0.2-0.7-0.3-1.1-0.3
				c-0.4,0-0.7,0.1-1,0.3s-0.5,0.5-0.7,0.9c-0.2,0.4-0.3,0.9-0.3,1.4v0c0,0.6,0.1,1,0.2,1.4c0.2,0.4,0.4,0.7,0.7,0.9
				c0.3,0.2,0.7,0.3,1.1,0.3C182.8,170.5,183.1,170.4,183.4,170.2z"/>
			<path class="st0" d="M189.2,174.1c-0.5-0.2-0.9-0.4-1.2-0.8c-0.3-0.3-0.5-0.7-0.6-1.1l0-0.1h1.5l0,0.1c0.1,0.2,0.3,0.4,0.6,0.6
				c0.3,0.2,0.7,0.2,1.2,0.2c0.6,0,1.1-0.2,1.4-0.5c0.3-0.3,0.5-0.7,0.5-1.3v-1.1h0c-0.1,0.3-0.3,0.5-0.6,0.7
				c-0.2,0.2-0.5,0.4-0.8,0.5s-0.6,0.2-1,0.2c-0.6,0-1.2-0.2-1.7-0.5c-0.5-0.3-0.8-0.8-1.1-1.4c-0.3-0.6-0.4-1.3-0.4-2.1v0
				c0-0.8,0.1-1.5,0.4-2.1c0.3-0.6,0.6-1,1.1-1.4c0.5-0.3,1-0.5,1.7-0.5c0.4,0,0.7,0.1,1,0.2s0.6,0.3,0.8,0.5
				c0.2,0.2,0.4,0.5,0.6,0.8h0V164h1.6v7.5c0,0.6-0.1,1.1-0.4,1.5c-0.3,0.4-0.7,0.8-1.2,1c-0.5,0.2-1.1,0.4-1.8,0.4
				C190.2,174.4,189.7,174.3,189.2,174.1z M191.8,170.1c0.3-0.2,0.5-0.5,0.7-0.9s0.2-0.8,0.2-1.4v0c0-0.5-0.1-1-0.2-1.4
				c-0.2-0.4-0.4-0.7-0.7-0.9c-0.3-0.2-0.6-0.3-1-0.3c-0.4,0-0.8,0.1-1.1,0.3s-0.5,0.5-0.7,0.9c-0.2,0.4-0.2,0.8-0.2,1.4v0
				c0,0.5,0.1,1,0.2,1.4c0.2,0.4,0.4,0.7,0.7,0.9c0.3,0.2,0.6,0.3,1.1,0.3C191.2,170.4,191.6,170.3,191.8,170.1z"/>
			<path class="st0" d="M197.2,171.6c-0.4-0.2-0.7-0.5-0.9-0.8c-0.2-0.4-0.3-0.8-0.3-1.2v0c0-0.7,0.2-1.2,0.7-1.6
				c0.5-0.4,1.2-0.6,2.1-0.7l2.8-0.2v1.1l-2.6,0.2c-0.5,0-0.8,0.1-1.1,0.3c-0.2,0.2-0.4,0.5-0.4,0.8v0c0,0.3,0.1,0.6,0.4,0.8
				s0.6,0.3,1,0.3c0.4,0,0.7-0.1,1-0.2s0.5-0.4,0.7-0.6c0.2-0.3,0.2-0.6,0.2-0.9v-2.3c0-0.4-0.1-0.8-0.4-1c-0.3-0.2-0.6-0.4-1.1-0.4
				c-0.4,0-0.8,0.1-1.1,0.3c-0.3,0.2-0.4,0.4-0.5,0.8l0,0.1h-1.5l0-0.1c0-0.4,0.2-0.8,0.4-1.2c0.3-0.4,0.6-0.6,1.1-0.8
				c0.4-0.2,1-0.3,1.6-0.3c0.6,0,1.1,0.1,1.6,0.3c0.4,0.2,0.8,0.5,1,0.9c0.2,0.4,0.4,0.8,0.4,1.3v5.3h-1.6v-1.2h0
				c-0.1,0.3-0.3,0.5-0.6,0.7c-0.2,0.2-0.5,0.4-0.8,0.5c-0.3,0.1-0.6,0.2-0.9,0.2C198,171.8,197.6,171.7,197.2,171.6z"/>
		</g>
	</g>
</g>
<g>
	<g>
		<g>
			<g>
				<path class="st0" d="M3.1,161h6.4v1.4H4.7v3.3h4.4v1.4H4.7v4.4H3.1V161z"/>
				<path class="st0" d="M12.5,171.2c-0.5-0.3-1-0.8-1.2-1.4c-0.3-0.6-0.4-1.3-0.4-2.1v0c0-0.8,0.1-1.5,0.4-2.1s0.7-1.1,1.3-1.4
					c0.5-0.3,1.2-0.5,1.9-0.5c0.7,0,1.3,0.2,1.9,0.5c0.5,0.3,1,0.8,1.3,1.4s0.4,1.3,0.4,2.1v0c0,0.8-0.1,1.5-0.4,2.1
					s-0.7,1.1-1.2,1.4c-0.5,0.3-1.2,0.5-1.9,0.5C13.7,171.7,13.1,171.5,12.5,171.2z M15.5,170.1c0.3-0.2,0.5-0.5,0.7-0.9
					c0.2-0.4,0.2-0.9,0.2-1.4v0c0-0.6-0.1-1-0.2-1.4c-0.2-0.4-0.4-0.7-0.7-0.9c-0.3-0.2-0.7-0.3-1.1-0.3c-0.4,0-0.7,0.1-1,0.3
					s-0.5,0.5-0.7,0.9s-0.2,0.9-0.2,1.4v0c0,0.6,0.1,1,0.2,1.4c0.2,0.4,0.4,0.7,0.7,0.9s0.7,0.3,1.1,0.3
					C14.8,170.4,15.2,170.3,15.5,170.1z"/>
				<path class="st0" d="M21,171.2c-0.5-0.3-1-0.8-1.2-1.4c-0.3-0.6-0.4-1.3-0.4-2.1v0c0-0.8,0.1-1.5,0.4-2.1s0.7-1.1,1.3-1.4
					c0.5-0.3,1.2-0.5,1.9-0.5c0.7,0,1.3,0.2,1.9,0.5c0.5,0.3,1,0.8,1.3,1.4s0.4,1.3,0.4,2.1v0c0,0.8-0.1,1.5-0.4,2.1
					s-0.7,1.1-1.2,1.4c-0.5,0.3-1.2,0.5-1.9,0.5C22.1,171.7,21.5,171.5,21,171.2z M23.9,170.1c0.3-0.2,0.5-0.5,0.7-0.9
					c0.2-0.4,0.2-0.9,0.2-1.4v0c0-0.6-0.1-1-0.2-1.4c-0.2-0.4-0.4-0.7-0.7-0.9c-0.3-0.2-0.7-0.3-1.1-0.3c-0.4,0-0.7,0.1-1,0.3
					s-0.5,0.5-0.7,0.9s-0.2,0.9-0.2,1.4v0c0,0.6,0.1,1,0.2,1.4c0.2,0.4,0.4,0.7,0.7,0.9s0.7,0.3,1.1,0.3
					C23.2,170.4,23.6,170.3,23.9,170.1z"/>
				<path class="st0" d="M29,171.2c-0.4-0.3-0.5-0.9-0.5-1.7v-4.4h-1.1v-1.3h1.1v-2h1.6v2h1.4v1.3h-1.4v4.3c0,0.4,0.1,0.7,0.2,0.8
					c0.2,0.1,0.4,0.2,0.7,0.2c0.1,0,0.2,0,0.2,0c0.1,0,0.1,0,0.2,0v1.2c-0.1,0-0.2,0-0.3,0s-0.3,0-0.4,0
					C29.9,171.7,29.4,171.5,29,171.2z"/>
				<path class="st0" d="M35.8,171.3c-0.4-0.3-0.7-0.6-0.9-1.1h0v1.3h-1.6V161h1.6v4.2h0c0.2-0.5,0.5-0.8,1-1.1s0.9-0.4,1.4-0.4
					c0.6,0,1.2,0.2,1.6,0.5c0.5,0.3,0.8,0.8,1.1,1.4c0.3,0.6,0.4,1.3,0.4,2.1v0c0,0.8-0.1,1.5-0.4,2.1c-0.3,0.6-0.6,1.1-1.1,1.4
					s-1,0.5-1.7,0.5C36.6,171.7,36.2,171.6,35.8,171.3z M37.8,170c0.3-0.2,0.5-0.5,0.7-0.9c0.2-0.4,0.2-0.9,0.2-1.4v0
					c0-0.5-0.1-1-0.2-1.4c-0.2-0.4-0.4-0.7-0.7-0.9c-0.3-0.2-0.6-0.3-1.1-0.3c-0.4,0-0.7,0.1-1,0.3c-0.3,0.2-0.5,0.5-0.7,0.9
					c-0.2,0.4-0.3,0.9-0.3,1.4v0c0,0.5,0.1,1,0.3,1.4s0.4,0.7,0.7,0.9c0.3,0.2,0.6,0.3,1,0.3C37.2,170.3,37.5,170.2,37.8,170z"/>
				<path class="st0" d="M42.8,171.4c-0.4-0.2-0.7-0.5-0.9-0.8c-0.2-0.4-0.3-0.8-0.3-1.2v0c0-0.7,0.2-1.2,0.7-1.6
					c0.5-0.4,1.2-0.6,2.1-0.7l2.8-0.2v1.1l-2.6,0.2c-0.5,0-0.8,0.1-1.1,0.3c-0.2,0.2-0.4,0.5-0.4,0.8v0c0,0.3,0.1,0.6,0.4,0.8
					c0.3,0.2,0.6,0.3,1,0.3c0.4,0,0.7-0.1,1-0.2s0.5-0.4,0.7-0.6c0.2-0.3,0.2-0.6,0.2-0.9v-2.3c0-0.4-0.1-0.8-0.4-1
					c-0.3-0.2-0.6-0.4-1.1-0.4c-0.4,0-0.8,0.1-1.1,0.3c-0.3,0.2-0.4,0.4-0.5,0.8l0,0.1H42l0-0.1c0-0.4,0.2-0.8,0.4-1.2
					c0.3-0.4,0.6-0.6,1.1-0.8s1-0.3,1.6-0.3s1.1,0.1,1.6,0.3c0.4,0.2,0.8,0.5,1,0.9c0.2,0.4,0.4,0.8,0.4,1.3v5.3h-1.6v-1.2h0
					c-0.1,0.3-0.3,0.5-0.6,0.7c-0.2,0.2-0.5,0.4-0.8,0.5c-0.3,0.1-0.6,0.2-0.9,0.2C43.7,171.7,43.2,171.6,42.8,171.4z"/>
				<path class="st0" d="M50,161h1.6v10.6H50V161z"/>
				<path class="st0" d="M53.7,161h1.6v10.6h-1.6V161z"/>
			</g>
		</g>
	</g>
</g>
</svg>
