<svg width="216" height="175" viewBox="0 0 216 175" fill="none" xmlns="http://www.w3.org/2000/svg">
<g clip-path="url(#clip0_2_196)">
<path d="M104.09 29.58C102.39 29.58 100.72 30.09 99.3 31.03C97.88 31.98 96.78 33.32 96.13 34.9C95.48 36.48 95.31 38.21 95.64 39.88C95.97 41.55 96.79 43.09 98 44.29C99.21 45.5 100.74 46.32 102.41 46.65C104.08 46.98 105.82 46.81 107.39 46.16C108.96 45.51 110.31 44.4 111.26 42.99C112.21 41.57 112.71 39.91 112.71 38.2C112.71 35.91 111.8 33.72 110.18 32.11C108.57 30.49 106.37 29.58 104.09 29.58V29.58ZM111.2 38.2C111.2 39.61 110.78 40.98 110 42.15C109.22 43.32 108.11 44.23 106.81 44.77C105.51 45.31 104.08 45.45 102.7 45.17C101.32 44.9 100.05 44.22 99.06 43.22C98.07 42.23 97.39 40.96 97.11 39.58C96.84 38.2 96.98 36.77 97.51 35.47C98.05 34.17 98.96 33.06 100.13 32.28C101.3 31.5 102.67 31.08 104.08 31.08C105.97 31.08 107.77 31.83 109.11 33.17C110.44 34.5 111.19 36.31 111.19 38.19L111.2 38.2Z" fill="#272727"/>
<path d="M104.09 32.21C102.9 32.21 101.74 32.56 100.76 33.22C99.77 33.88 99 34.82 98.55 35.91C98.1 37.01 97.98 38.21 98.21 39.38C98.44 40.54 99.01 41.61 99.85 42.45C100.69 43.29 101.76 43.86 102.92 44.09C104.08 44.32 105.29 44.2 106.39 43.75C107.49 43.3 108.42 42.53 109.08 41.54C109.74 40.55 110.09 39.39 110.09 38.21C110.09 36.62 109.46 35.09 108.33 33.97C107.21 32.84 105.68 32.21 104.09 32.21V32.21ZM108.58 38.21C108.58 39.1 108.32 39.97 107.83 40.71C107.34 41.45 106.64 42.03 105.82 42.37C105 42.71 104.1 42.8 103.22 42.63C102.35 42.46 101.55 42.03 100.92 41.4C100.29 40.77 99.86 39.97 99.69 39.1C99.52 38.23 99.6 37.33 99.94 36.5C100.28 35.68 100.86 34.98 101.59 34.48C102.33 33.99 103.2 33.72 104.08 33.72C105.27 33.72 106.41 34.19 107.25 35.03C108.09 35.87 108.57 37 108.57 38.19L108.58 38.21Z" fill="#272727"/>
<path d="M104.09 36.14C103.68 36.14 103.28 36.26 102.94 36.49C102.6 36.72 102.33 37.04 102.18 37.42C102.02 37.8 101.98 38.22 102.06 38.62C102.14 39.02 102.34 39.39 102.63 39.68C102.92 39.97 103.29 40.17 103.69 40.24C104.09 40.32 104.51 40.28 104.89 40.12C105.27 39.96 105.59 39.7 105.82 39.35C106.05 39.01 106.17 38.61 106.16 38.2C106.16 37.65 105.94 37.13 105.55 36.74C105.16 36.35 104.64 36.14 104.09 36.14V36.14ZM104.65 38.2C104.65 38.31 104.62 38.42 104.56 38.51C104.5 38.6 104.41 38.68 104.31 38.72C104.21 38.76 104.1 38.78 103.99 38.76C103.88 38.74 103.78 38.69 103.7 38.61C103.62 38.53 103.57 38.43 103.54 38.32C103.52 38.21 103.53 38.1 103.57 38C103.61 37.9 103.68 37.81 103.78 37.75C103.87 37.69 103.98 37.65 104.09 37.65C104.24 37.65 104.38 37.71 104.48 37.81C104.58 37.91 104.65 38.05 104.65 38.2Z" fill="#272727"/>
<path d="M108.02 11.23C107.09 11.23 106.19 11.51 105.41 12.02C104.64 12.54 104.04 13.27 103.68 14.12C103.33 14.98 103.23 15.92 103.41 16.83C103.59 17.74 104.04 18.58 104.69 19.23C105.35 19.89 106.18 20.33 107.09 20.51C108 20.69 108.94 20.6 109.8 20.24C110.66 19.89 111.39 19.28 111.9 18.51C112.41 17.74 112.69 16.83 112.69 15.9C112.69 14.66 112.2 13.46 111.32 12.58C110.44 11.7 109.25 11.21 108 11.21L108.02 11.23ZM111.2 15.92C111.2 16.55 111.01 17.16 110.66 17.69C110.31 18.21 109.81 18.62 109.23 18.86C108.65 19.1 108.01 19.16 107.39 19.04C106.77 18.92 106.21 18.61 105.76 18.17C105.32 17.73 105.01 17.16 104.89 16.54C104.77 15.92 104.83 15.28 105.07 14.7C105.31 14.12 105.72 13.62 106.24 13.27C106.76 12.92 107.38 12.73 108.01 12.73C108.85 12.73 109.66 13.07 110.26 13.66C110.86 14.26 111.19 15.06 111.19 15.91L111.2 15.92Z" fill="#272727"/>
<path d="M108.02 13.86C107.61 13.86 107.21 13.98 106.87 14.21C106.53 14.44 106.26 14.76 106.11 15.14C105.95 15.52 105.91 15.94 105.99 16.34C106.07 16.74 106.27 17.11 106.56 17.4C106.85 17.69 107.22 17.89 107.62 17.96C108.02 18.04 108.44 18 108.82 17.84C109.2 17.68 109.52 17.41 109.75 17.07C109.98 16.73 110.1 16.33 110.09 15.92C110.09 15.65 110.04 15.38 109.93 15.13C109.83 14.88 109.67 14.65 109.48 14.46C109.29 14.27 109.06 14.12 108.81 14.01C108.56 13.91 108.29 13.85 108.02 13.86V13.86ZM108.58 15.92C108.58 16.03 108.55 16.14 108.49 16.23C108.43 16.32 108.34 16.39 108.24 16.44C108.14 16.48 108.02 16.49 107.92 16.47C107.81 16.45 107.71 16.4 107.63 16.32C107.55 16.24 107.5 16.14 107.48 16.03C107.46 15.92 107.47 15.81 107.51 15.71C107.55 15.61 107.62 15.52 107.72 15.46C107.81 15.4 107.92 15.37 108.03 15.37C108.18 15.37 108.32 15.43 108.43 15.53C108.54 15.63 108.59 15.78 108.59 15.93L108.58 15.92Z" fill="#272727"/>
<path d="M125.06 28.27H113.37V26.41C113.37 25.86 113.15 25.33 112.76 24.95C112.37 24.56 111.84 24.34 111.3 24.34H110.76V22.75C112.34 22.12 113.64 20.96 114.46 19.47C115.27 17.98 115.54 16.25 115.22 14.58C114.9 12.91 114 11.41 112.7 10.33C111.39 9.25 109.74 8.66 108.05 8.66C106.36 8.66 104.71 9.25 103.4 10.33C102.09 11.41 101.2 12.91 100.88 14.58C100.56 16.25 100.83 17.98 101.64 19.47C102.45 20.96 103.76 22.12 105.34 22.75V24.39H104.78C104.23 24.39 103.7 24.61 103.32 25C102.93 25.39 102.71 25.91 102.71 26.46V27.11C101.36 27.28 100.06 27.69 98.86 28.32H91.01C90.12 28.32 89.26 28.68 88.63 29.31C88 29.94 87.64 30.8 87.64 31.7V46.12C87.64 47.01 87.99 47.87 88.63 48.51C89.26 49.14 90.12 49.5 91.01 49.5H125.09C125.99 49.5 126.85 49.14 127.48 48.51C128.11 47.88 128.47 47.02 128.47 46.12V31.65C128.47 31.21 128.38 30.76 128.21 30.35C128.04 29.94 127.79 29.57 127.47 29.25C127.15 28.94 126.78 28.69 126.37 28.52C125.96 28.35 125.52 28.26 125.07 28.27H125.06ZM102.22 15.92C102.22 14.77 102.56 13.65 103.2 12.7C103.84 11.75 104.74 11 105.8 10.56C106.86 10.12 108.03 10.01 109.15 10.23C110.27 10.45 111.31 11.01 112.12 11.82C112.93 12.63 113.48 13.66 113.71 14.79C113.93 15.92 113.82 17.08 113.38 18.14C112.94 19.2 112.2 20.11 111.24 20.74C110.29 21.38 109.17 21.72 108.02 21.72C106.48 21.72 105.01 21.11 103.92 20.02C102.83 18.93 102.22 17.46 102.22 15.92V15.92ZM109.22 23.12V24.34H106.8V23.12C107.6 23.27 108.43 23.27 109.23 23.12H109.22ZM93.76 42.69H89.09V35.03H93.28C92.97 36.06 92.82 37.13 92.82 38.2C92.82 39.75 93.14 41.27 93.76 42.69V42.69ZM93.86 33.52H89.09V31.65C89.09 31.16 89.29 30.68 89.63 30.33C89.98 29.98 90.45 29.78 90.95 29.78H96.63C95.47 30.82 94.54 32.1 93.89 33.52H93.86V33.52ZM89.09 44.2H94.57C95.54 45.74 96.87 47.02 98.44 47.94H90.95C90.46 47.94 89.98 47.74 89.63 47.39C89.28 47.04 89.09 46.57 89.09 46.07V44.2V44.2ZM111.83 28.27H109.32C107.73 27.43 105.96 26.98 104.16 26.96V26.41C104.16 26.26 104.22 26.12 104.32 26.01C104.43 25.9 104.57 25.85 104.72 25.85H111.27C111.42 25.85 111.56 25.91 111.67 26.01C111.78 26.11 111.83 26.26 111.83 26.41V28.27ZM126.9 33.52H114.27C113.61 32.1 112.66 30.82 111.49 29.78H125.03C125.53 29.78 126 29.98 126.35 30.33C126.7 30.68 126.9 31.16 126.9 31.65V33.52V33.52ZM126.9 35.03V42.69H114.36C114.98 41.27 115.3 39.75 115.3 38.2C115.3 37.13 115.15 36.06 114.84 35.03H126.9V35.03ZM113.79 38.2C113.79 40.12 113.22 42.01 112.15 43.61C111.08 45.21 109.56 46.46 107.78 47.19C106 47.93 104.05 48.12 102.16 47.74C100.27 47.36 98.54 46.44 97.18 45.08C95.82 43.72 94.89 41.99 94.52 40.1C94.14 38.21 94.34 36.26 95.07 34.48C95.81 32.7 97.05 31.18 98.65 30.11C100.25 29.04 102.13 28.47 104.06 28.47C105.34 28.47 106.61 28.72 107.79 29.2C108.97 29.69 110.05 30.4 110.96 31.31C111.87 32.21 112.58 33.29 113.08 34.47C113.57 35.65 113.83 36.92 113.83 38.2H113.8H113.79ZM126.9 46.07C126.9 46.57 126.7 47.04 126.35 47.39C126 47.74 125.52 47.94 125.03 47.94H109.76C111.33 47.02 112.66 45.74 113.63 44.2H126.98L126.9 46.07V46.07Z" fill="#272727"/>
<path d="M125.82 30.9H124.31V32.41H125.82V30.9V30.9Z" fill="#272727"/>
<path d="M120.58 30.9H119.07V32.41H120.58V30.9V30.9Z" fill="#272727"/>
<path d="M123.2 30.9H121.69V32.41H123.2V30.9V30.9Z" fill="#272727"/>
<path d="M123.2 15.17H116.45V16.68H123.2V15.17Z" fill="#272727"/>
<path d="M122.24 10.85L122.33 10.81L121.75 9.42001L115.61 11.96L115.51 12L116.09 13.4L122.24 10.85V10.85Z" fill="#272727"/>
<path d="M94.26 9.37L93.68 10.77L99.92 13.35L100.5 11.95L94.26 9.37Z" fill="#272727"/>
<path d="M99.6 15.17H92.85V16.68H99.6V15.17Z" fill="#272727"/>
<path d="M93.81 20.99L93.72 21.03L94.3 22.43L100.44 19.88L100.53 19.84L99.95 18.45L93.81 20.99V20.99Z" fill="#272727"/>
<path d="M115.98 18.28L115.4 19.68L121.64 22.26L122.22 20.86L115.98 18.28Z" fill="#272727"/>
<path d="M57.34 98.38H0.729996V154.99H57.34V98.38V98.38Z" stroke="#272727" stroke-width="1.45" stroke-miterlimit="10" stroke-linecap="round"/>
<path d="M135.88 98.38H79.27V154.99H135.88V98.38V98.38Z" stroke="#272727" stroke-width="1.45" stroke-miterlimit="10" stroke-linecap="round"/>
<path d="M214.43 98.38H157.82V154.99H214.43V98.38V98.38Z" stroke="#272727" stroke-width="1.45" stroke-miterlimit="10" stroke-linecap="round"/>
<path d="M136.33 0.730011H79.72V57.34H136.33V0.730011Z" stroke="#272727" stroke-width="1.45" stroke-miterlimit="10" stroke-linecap="round"/>
<path d="M214.88 1.25H158.27V57.86H214.88V1.25Z" stroke="#272727" stroke-width="1.45" stroke-miterlimit="10" stroke-linecap="round"/>
<path d="M57.78 0.730011H1.17V57.34H57.78V0.730011Z" stroke="#272727" stroke-width="1.45" stroke-miterlimit="10" stroke-linecap="round"/>
<path d="M47.81 7.88001C47.29 7.88001 46.79 8.02001 46.35 8.29001L40.13 12.06C37.63 9.73001 34.44 8.28001 31.04 7.94001C27.64 7.59001 24.23 8.36001 21.31 10.14C18.39 11.91 16.13 14.59 14.88 17.76C13.62 20.93 13.44 24.43 14.35 27.72L10.4 30.11C9.77 30.5 9.25 31.04 8.88 31.69C8.52 32.34 8.33 33.06 8.33 33.8C8.33 34.34 8.55 34.86 8.93 35.25C9.31 35.63 9.83 35.85 10.38 35.85C10.93 35.85 11.44 35.63 11.83 35.25C12.21 34.87 12.43 34.35 12.43 33.8V33.52L15.98 31.52C17.37 33.86 19.35 35.8 21.72 37.15C24.09 38.5 26.77 39.21 29.49 39.22C30.12 39.22 30.75 39.18 31.37 39.11C31.65 39.18 31.93 39.21 32.21 39.22H41.08C41.62 39.22 42.15 39.44 42.53 39.82C42.91 40.2 43.13 40.73 43.13 41.27C43.13 41.81 42.91 42.34 42.53 42.72C42.15 43.1 41.62 43.32 41.08 43.32H21.97C21.07 43.32 20.2 43.68 19.56 44.32C18.92 44.96 18.56 45.83 18.56 46.73C18.56 47.63 18.92 48.5 19.56 49.14C20.2 49.78 21.07 50.14 21.97 50.14H41.76V48.77H21.97C21.43 48.77 20.91 48.55 20.52 48.17C20.14 47.79 19.92 47.27 19.92 46.72C19.92 46.17 20.14 45.66 20.52 45.27C20.9 44.89 21.42 44.67 21.97 44.67H41.07C41.52 44.67 41.96 44.58 42.37 44.41C42.78 44.24 43.16 43.99 43.48 43.67C43.8 43.35 44.05 42.98 44.22 42.56C44.39 42.15 44.48 41.7 44.48 41.26C44.48 40.82 44.39 40.37 44.22 39.96C44.05 39.55 43.8 39.17 43.48 38.85C43.16 38.53 42.79 38.28 42.37 38.11C41.96 37.94 41.51 37.85 41.07 37.85H35.86C37.81 36.98 39.57 35.73 41.02 34.16C42.47 32.59 43.58 30.74 44.29 28.72C45 26.7 45.28 24.56 45.13 22.43C44.98 20.3 44.39 18.22 43.41 16.32L49.17 13.13C49.72 12.83 50.14 12.35 50.39 11.77C50.64 11.2 50.69 10.56 50.53 9.95001C50.37 9.35001 50.02 8.81001 49.53 8.42001C49.04 8.04001 48.43 7.82001 47.81 7.82001V7.86001V7.88001ZM43.12 24.36L43.74 24.72C43.69 25.45 43.57 26.17 43.4 26.88L41.07 25.54L43.12 24.36V24.36ZM39.71 26.36L43.01 28.26C42.78 28.91 42.51 29.55 42.2 30.16L37.66 27.54L39.71 26.36V26.36ZM33.57 37.36V9.90001C34.27 10.11 34.96 10.38 35.62 10.7V36.56C34.96 36.87 34.27 37.14 33.57 37.36ZM36.98 35.05V32.69L39.3 34.03C38.77 34.53 38.21 34.99 37.61 35.41L36.98 35.05V35.05ZM36.98 31.11V28.75L41.51 31.37C41.14 31.95 40.73 32.5 40.27 33.02L36.98 31.11ZM36.98 12.21L37.6 11.85C38.06 12.16 38.49 12.49 38.91 12.85L36.98 14.02V12.21ZM15.83 22.75L15.21 22.39C15.27 21.66 15.38 20.94 15.55 20.23L17.88 21.57L15.83 22.75V22.75ZM19.24 20.75L15.94 18.85C16.17 18.2 16.44 17.56 16.75 16.95L21.29 19.57L19.24 20.75V20.75ZM21.97 12.09V14.45L19.65 13.11C20.18 12.61 20.74 12.15 21.34 11.73L21.97 12.09ZM21.97 16.03V18.39L17.44 15.77C17.81 15.19 18.22 14.64 18.68 14.13L21.97 16.03V16.03ZM21.97 34.93L21.35 35.29C20.75 34.88 20.17 34.42 19.64 33.92L21.97 32.57V34.93V34.93ZM15.2 24.67L21.97 20.75V23.03L15.56 26.92C15.38 26.18 15.26 25.43 15.2 24.67ZM11.05 32.67V33.75C11.05 33.93 10.98 34.1 10.85 34.23C10.72 34.36 10.55 34.43 10.37 34.43C10.19 34.43 10.02 34.36 9.89 34.23C9.76 34.1 9.69 33.93 9.69 33.75C9.69 33.24 9.83 32.75 10.08 32.31C10.33 31.87 10.68 31.5 11.11 31.23L21.97 24.64V26.64L11.05 32.67ZM21.97 28.19V31L18.66 32.91C18.1 32.27 17.6 31.58 17.17 30.85L21.97 28.19V28.19ZM26.75 37.58V12.58H25.38V37.22C24.69 37.01 24.03 36.75 23.38 36.43V10.65C24.02 10.33 24.69 10.06 25.38 9.85001V11.29H26.76V9.51001C27.42 9.38001 28.09 9.31001 28.76 9.28001V33.8H30.13V9.28001C30.8 9.30001 31.47 9.38001 32.13 9.50001V37.63C31.88 37.63 31.63 37.71 31.37 37.75C30.99 37.6 30.67 37.33 30.44 36.99C30.21 36.65 30.09 36.25 30.09 35.85V35.17H28.76V35.85C28.76 36.59 29.01 37.31 29.46 37.9C28.54 37.9 27.63 37.81 26.73 37.63L26.75 37.58V37.58ZM43.02 18.85L41.68 19.62L42.36 20.81L43.41 20.2C43.57 20.91 43.69 21.64 43.75 22.37L36.98 26.28V23.91L41.29 21.43L40.6 20.25L36.98 22.34V19.88L42.22 16.98C42.53 17.58 42.8 18.21 43.02 18.85V18.85ZM48.51 11.93L36.98 18.32V15.52L47.06 9.40001C47.29 9.26001 47.55 9.19001 47.81 9.19001C48.13 9.19001 48.45 9.30001 48.7 9.50001C48.96 9.70001 49.14 9.98001 49.22 10.29C49.3 10.6 49.27 10.94 49.14 11.23C49.01 11.53 48.79 11.77 48.5 11.93H48.51Z" fill="#272727"/>
<path d="M43.12 48.81H44.48V50.18H43.12V48.81Z" fill="#272727"/>
<path d="M127.57 118.82C127.47 118.82 127.37 118.8 127.28 118.76C127.19 118.72 127.1 118.66 127.03 118.59C126.96 118.52 126.9 118.43 126.86 118.34C126.82 118.25 126.8 118.15 126.8 118.05C126.8 117.95 126.82 117.85 126.86 117.76C126.9 117.67 126.96 117.58 127.03 117.51C129.36 115.18 128.96 110.98 126.13 108.15C123.3 105.32 119.13 104.91 116.77 107.23C116.7 107.3 116.61 107.36 116.52 107.4C116.43 107.44 116.33 107.46 116.23 107.46C116.13 107.46 116.03 107.44 115.94 107.4C115.85 107.36 115.76 107.3 115.69 107.23C115.62 107.16 115.56 107.07 115.52 106.98C115.48 106.89 115.46 106.79 115.46 106.69C115.46 106.59 115.48 106.49 115.52 106.39C115.56 106.3 115.62 106.21 115.69 106.14C118.62 103.21 123.79 103.63 127.23 107.07C130.67 110.51 131.06 115.67 128.13 118.6C127.98 118.75 127.79 118.83 127.58 118.83L127.57 118.82Z" fill="#272727"/>
<path d="M102.49 122.36C102.34 122.36 102.19 122.32 102.06 122.23C101.93 122.15 101.83 122.03 101.78 121.89C101.73 121.75 101.71 121.6 101.73 121.45C101.76 121.3 101.83 121.16 101.94 121.06C104.25 118.75 106.52 116.19 108.7 113.71C110.88 111.23 113.26 108.56 115.7 106.14C115.85 106 116.04 105.91 116.25 105.91C116.46 105.91 116.65 105.99 116.79 106.14C116.93 106.29 117.02 106.48 117.02 106.69C117.02 106.9 116.94 107.09 116.79 107.23C114.4 109.61 112.1 112.23 109.88 114.73C107.66 117.23 105.39 119.81 103.05 122.15C102.98 122.22 102.89 122.28 102.8 122.32C102.71 122.36 102.61 122.38 102.51 122.38H102.49V122.36Z" fill="#272727"/>
<path d="M112.68 132.56C112.53 132.56 112.38 132.51 112.26 132.42C112.14 132.33 112.04 132.21 111.98 132.07C111.92 131.93 111.91 131.78 111.93 131.63C111.96 131.48 112.03 131.34 112.13 131.24C114.46 128.9 117.04 126.62 119.52 124.42C122 122.22 124.63 119.89 127.02 117.51C127.17 117.39 127.35 117.32 127.55 117.33C127.74 117.33 127.93 117.42 128.06 117.55C128.2 117.69 128.28 117.87 128.29 118.06C128.3 118.25 128.24 118.44 128.11 118.59C125.69 121.01 123.11 123.33 120.54 125.59C117.97 127.85 115.54 130.04 113.22 132.35C113.07 132.49 112.88 132.58 112.67 132.58V132.56H112.68Z" fill="#272727"/>
<path d="M94.54 149.18C92.05 149.13 89.68 148.1 87.95 146.32C84.52 142.88 84.1 137.71 87.03 134.78C87.17 134.63 87.37 134.55 87.57 134.55C87.77 134.55 87.97 134.63 88.12 134.78C88.26 134.93 88.35 135.12 88.35 135.32C88.35 135.52 88.27 135.72 88.12 135.86C85.79 138.19 86.21 142.39 89.04 145.22C91.87 148.05 96.04 148.45 98.4 146.12C98.54 145.97 98.74 145.89 98.95 145.89C99.16 145.89 99.35 145.97 99.49 146.12C99.63 146.26 99.72 146.46 99.72 146.66C99.72 146.86 99.64 147.06 99.49 147.2C98.84 147.85 98.07 148.35 97.22 148.7C96.37 149.04 95.46 149.21 94.54 149.2V149.16V149.18Z" fill="#272727"/>
<path d="M87.57 136.1C87.42 136.1 87.27 136.05 87.15 135.96C87.03 135.87 86.93 135.75 86.87 135.61C86.81 135.47 86.8 135.32 86.83 135.17C86.86 135.02 86.93 134.89 87.03 134.78C89.45 132.37 92.03 130.05 94.6 127.78C97.17 125.51 99.6 123.33 101.94 121.02C102.08 120.88 102.28 120.79 102.48 120.79C102.68 120.79 102.88 120.87 103.02 121.02C103.16 121.17 103.25 121.36 103.25 121.57C103.25 121.78 103.17 121.97 103.02 122.11C100.68 124.45 98.1 126.73 95.61 128.93C93.12 131.13 90.49 133.46 88.11 135.84C87.96 135.99 87.77 136.07 87.56 136.07V136.1H87.57Z" fill="#272727"/>
<path d="M98.95 147.45C98.74 147.45 98.55 147.37 98.4 147.22C98.33 147.15 98.27 147.06 98.23 146.97C98.19 146.88 98.17 146.78 98.17 146.68C98.17 146.58 98.19 146.48 98.23 146.39C98.27 146.3 98.33 146.21 98.4 146.14C100.79 143.76 103.09 141.14 105.31 138.65C107.53 136.16 109.8 133.59 112.14 131.25C112.21 131.17 112.29 131.1 112.39 131.06C112.49 131.01 112.59 130.99 112.7 130.98C112.81 130.98 112.91 130.99 113.01 131.03C113.11 131.07 113.2 131.13 113.27 131.2C113.34 131.28 113.4 131.37 113.44 131.47C113.48 131.57 113.5 131.68 113.49 131.78C113.49 131.89 113.46 131.99 113.41 132.09C113.36 132.19 113.3 132.27 113.21 132.34C110.91 134.65 108.64 137.2 106.46 139.67C104.28 142.14 101.9 144.81 99.46 147.23C99.32 147.37 99.12 147.46 98.92 147.46H98.94L98.95 147.45Z" fill="#272727"/>
<path d="M114.55 118.08C114.4 118.08 114.25 118.03 114.13 117.94C114.01 117.85 113.91 117.73 113.85 117.59C113.79 117.45 113.78 117.3 113.81 117.15C113.84 117 113.91 116.87 114.01 116.76L114.19 116.58C114.33 116.43 114.53 116.35 114.73 116.35C114.93 116.35 115.13 116.43 115.27 116.58C115.41 116.72 115.5 116.92 115.5 117.12C115.5 117.32 115.42 117.52 115.27 117.66L115.09 117.84C114.94 117.99 114.75 118.07 114.54 118.07L114.55 118.08Z" fill="#272727"/>
<path d="M116.97 120.49C116.79 120.49 116.61 120.42 116.47 120.3C116.39 120.24 116.33 120.16 116.28 120.07C116.23 119.98 116.21 119.88 116.2 119.78C116.2 119.68 116.2 119.58 116.23 119.48C116.26 119.38 116.31 119.29 116.38 119.22L116.54 119.04C116.6 118.96 116.68 118.9 116.77 118.85C116.86 118.8 116.96 118.78 117.06 118.77C117.16 118.77 117.26 118.77 117.36 118.8C117.46 118.83 117.54 118.88 117.62 118.95C117.77 119.08 117.87 119.27 117.89 119.48C117.91 119.68 117.84 119.89 117.71 120.04L117.55 120.22C117.48 120.3 117.39 120.37 117.29 120.42C117.19 120.47 117.08 120.49 116.97 120.49V120.49Z" fill="#272727"/>
<path d="M116.69 115.94C116.54 115.94 116.39 115.89 116.26 115.81C116.13 115.73 116.04 115.61 115.98 115.47C115.92 115.33 115.91 115.18 115.93 115.03C115.96 114.88 116.03 114.74 116.14 114.63L116.32 114.45C116.39 114.38 116.48 114.32 116.57 114.28C116.66 114.24 116.76 114.22 116.86 114.22C116.96 114.22 117.06 114.24 117.16 114.28C117.25 114.32 117.34 114.38 117.41 114.45C117.48 114.52 117.54 114.61 117.58 114.7C117.62 114.79 117.64 114.89 117.64 115C117.64 115.11 117.62 115.2 117.58 115.29C117.54 115.38 117.48 115.47 117.41 115.54L117.23 115.72C117.16 115.79 117.07 115.85 116.98 115.88C116.89 115.92 116.79 115.94 116.69 115.94V115.94Z" fill="#272727"/>
<path d="M119.1 118.36C118.89 118.36 118.7 118.28 118.55 118.13C118.48 118.06 118.42 117.97 118.38 117.88C118.34 117.79 118.32 117.69 118.32 117.59C118.32 117.49 118.34 117.39 118.38 117.3C118.42 117.21 118.47 117.12 118.55 117.05L118.73 116.87C118.87 116.72 119.07 116.64 119.27 116.64C119.47 116.64 119.67 116.72 119.81 116.87C119.95 117.01 120.04 117.21 120.04 117.41C120.04 117.61 119.96 117.81 119.81 117.95L119.63 118.13C119.56 118.2 119.48 118.26 119.38 118.3C119.29 118.34 119.19 118.36 119.09 118.36H119.1Z" fill="#272727"/>
<path d="M112.42 120.21C112.27 120.21 112.13 120.17 112.01 120.09C111.89 120.01 111.79 119.9 111.73 119.76C111.67 119.63 111.65 119.48 111.67 119.33C111.69 119.19 111.75 119.05 111.85 118.94L112 118.76C112.06 118.68 112.14 118.61 112.24 118.56C112.33 118.51 112.43 118.48 112.53 118.47C112.63 118.46 112.74 118.47 112.84 118.5C112.94 118.53 113.03 118.58 113.11 118.65C113.19 118.72 113.25 118.8 113.3 118.89C113.35 118.98 113.37 119.08 113.38 119.19C113.38 119.29 113.38 119.4 113.34 119.49C113.3 119.59 113.25 119.68 113.18 119.75L113.03 119.93C112.96 120.02 112.87 120.08 112.77 120.13C112.67 120.18 112.56 120.2 112.44 120.2L112.42 120.21Z" fill="#272727"/>
<path d="M114.84 122.62C114.66 122.62 114.48 122.55 114.34 122.43C114.26 122.37 114.2 122.29 114.15 122.2C114.1 122.11 114.08 122.01 114.07 121.91C114.07 121.81 114.07 121.71 114.1 121.61C114.13 121.51 114.18 121.43 114.25 121.35L114.41 121.17C114.47 121.09 114.55 121.03 114.64 120.98C114.73 120.93 114.83 120.91 114.93 120.9C115.03 120.9 115.13 120.9 115.23 120.94C115.33 120.97 115.41 121.02 115.49 121.09C115.57 121.15 115.63 121.23 115.68 121.32C115.73 121.41 115.75 121.51 115.76 121.61C115.76 121.71 115.76 121.81 115.73 121.91C115.7 122.01 115.65 122.1 115.58 122.17L115.42 122.35C115.35 122.43 115.26 122.5 115.16 122.55C115.06 122.6 114.95 122.62 114.84 122.62V122.62Z" fill="#272727"/>
<path d="M98.02 134.61C97.92 134.61 97.82 134.59 97.73 134.55C97.64 134.51 97.55 134.45 97.48 134.38C97.41 134.31 97.35 134.22 97.31 134.13C97.27 134.04 97.25 133.94 97.25 133.84C97.25 133.74 97.27 133.64 97.31 133.54C97.35 133.45 97.41 133.36 97.48 133.29L97.66 133.11C97.8 132.96 98 132.88 98.21 132.88C98.42 132.88 98.61 132.96 98.75 133.11C98.89 133.26 98.98 133.45 98.98 133.65C98.98 133.85 98.9 134.05 98.75 134.19L98.57 134.37C98.42 134.52 98.23 134.6 98.02 134.6V134.61Z" fill="#272727"/>
<path d="M100.44 137C100.33 137 100.22 136.98 100.11 136.93C100.01 136.88 99.92 136.81 99.85 136.73C99.78 136.65 99.73 136.56 99.7 136.47C99.67 136.37 99.66 136.27 99.66 136.17C99.66 136.07 99.69 135.97 99.74 135.88C99.79 135.79 99.85 135.71 99.93 135.64L100.11 135.49C100.19 135.42 100.28 135.37 100.37 135.33C100.47 135.3 100.57 135.28 100.67 135.29C100.77 135.29 100.87 135.32 100.97 135.37C101.06 135.42 101.15 135.48 101.21 135.56C101.28 135.64 101.33 135.73 101.36 135.83C101.39 135.93 101.4 136.03 101.39 136.13C101.39 136.23 101.35 136.33 101.3 136.42C101.25 136.51 101.18 136.59 101.1 136.66L100.92 136.81C100.78 136.93 100.6 137 100.42 137H100.43H100.44Z" fill="#272727"/>
<path d="M100.15 132.45C99.99 132.45 99.84 132.4 99.71 132.31C99.58 132.22 99.48 132.09 99.43 131.95C99.38 131.8 99.37 131.64 99.41 131.49C99.45 131.34 99.53 131.2 99.65 131.1L99.83 130.94C99.99 130.81 100.19 130.74 100.39 130.76C100.59 130.78 100.78 130.87 100.92 131.03C100.99 131.11 101.04 131.2 101.07 131.29C101.1 131.38 101.11 131.49 101.1 131.59C101.1 131.69 101.06 131.79 101.02 131.88C100.97 131.97 100.91 132.05 100.83 132.11L100.65 132.27C100.51 132.39 100.33 132.45 100.15 132.45V132.45Z" fill="#272727"/>
<path d="M102.57 134.87C102.46 134.87 102.35 134.85 102.25 134.8C102.15 134.75 102.06 134.69 101.99 134.6C101.92 134.52 101.87 134.43 101.84 134.34C101.81 134.24 101.8 134.14 101.8 134.04C101.8 133.94 101.84 133.84 101.88 133.75C101.92 133.66 101.99 133.58 102.07 133.51L102.25 133.36C102.33 133.29 102.42 133.24 102.51 133.2C102.61 133.17 102.71 133.15 102.81 133.16C102.91 133.16 103.01 133.19 103.11 133.24C103.2 133.29 103.29 133.35 103.35 133.43C103.42 133.51 103.47 133.6 103.5 133.7C103.53 133.8 103.54 133.9 103.53 134.01C103.52 134.11 103.49 134.21 103.44 134.3C103.39 134.39 103.32 134.47 103.24 134.54L103.06 134.69C102.92 134.81 102.74 134.88 102.56 134.88H102.57V134.87Z" fill="#272727"/>
<path d="M95.89 136.75C95.74 136.75 95.59 136.7 95.47 136.61C95.35 136.52 95.25 136.4 95.19 136.26C95.13 136.12 95.12 135.97 95.15 135.82C95.18 135.67 95.25 135.53 95.35 135.43L95.53 135.26C95.67 135.12 95.87 135.04 96.07 135.04C96.27 135.04 96.47 135.12 96.61 135.26C96.75 135.4 96.83 135.6 96.83 135.8C96.83 136 96.75 136.2 96.61 136.34L96.44 136.52C96.29 136.66 96.1 136.75 95.89 136.75V136.75Z" fill="#272727"/>
<path d="M98.3 139.15C98.2 139.15 98.1 139.13 98.01 139.09C97.92 139.05 97.83 139 97.76 138.93C97.69 138.86 97.63 138.77 97.59 138.68C97.55 138.59 97.53 138.49 97.53 138.39C97.53 138.29 97.55 138.19 97.59 138.1C97.63 138.01 97.69 137.92 97.76 137.85L97.94 137.67C98.01 137.6 98.1 137.54 98.19 137.5C98.28 137.46 98.38 137.44 98.49 137.44C98.6 137.44 98.69 137.46 98.78 137.5C98.87 137.54 98.96 137.6 99.03 137.67C99.1 137.74 99.16 137.83 99.2 137.92C99.24 138.01 99.26 138.11 99.26 138.21C99.26 138.31 99.24 138.41 99.2 138.5C99.16 138.59 99.1 138.68 99.03 138.75L98.85 138.93C98.78 139 98.69 139.06 98.6 139.1C98.51 139.14 98.4 139.16 98.3 139.15Z" fill="#272727"/>
<path d="M207.1 136.51C207.16 136.25 207.14 135.97 207.05 135.72C206.95 135.46 206.77 135.25 206.54 135.1L206.17 134.85C204.72 133.88 202.98 133.45 201.24 133.62L196.51 133.98L195.85 131.68L196.33 131.48C196.65 131.36 196.91 131.11 197.05 130.8C197.19 130.49 197.2 130.13 197.08 129.81L195.68 125.94C195.33 125 194.71 124.19 193.89 123.61C193.07 123.04 192.09 122.73 191.09 122.73H189.43C188.91 122.73 188.43 121.73 188.23 120.29C188.96 119.98 189.59 119.47 190.04 118.81C190.49 118.15 190.74 117.38 190.75 116.59V112.39C190.74 111.81 190.6 111.25 190.34 110.73C190.09 110.21 189.72 109.76 189.28 109.39C189.33 109.31 189.37 109.23 189.4 109.14C189.59 108.57 189.59 107.95 189.4 107.38C188.99 106.29 187.77 105.63 186.15 105.63C184.53 105.63 183.31 106.29 182.9 107.38C182.71 107.95 182.71 108.58 182.9 109.15C182.9 109.23 182.98 109.31 183.01 109.39C182.57 109.75 182.2 110.21 181.95 110.73C181.7 111.25 181.56 111.81 181.55 112.39V116.59C181.57 117.38 181.81 118.15 182.26 118.81C182.71 119.47 183.33 119.98 184.06 120.29C183.85 121.78 183.39 122.73 182.86 122.73H181.21C180.21 122.73 179.23 123.04 178.41 123.62C177.59 124.19 176.96 125 176.62 125.94L175.21 129.82C175.08 130.14 175.08 130.5 175.21 130.82C175.35 131.13 175.6 131.37 175.92 131.5L176.41 131.7L175.75 134L171.03 133.64C169.29 133.46 167.54 133.9 166.09 134.87L165.7 135.12C165.55 135.22 165.42 135.35 165.32 135.5C165.22 135.65 165.16 135.82 165.13 136C165.1 136.18 165.11 136.36 165.15 136.54C165.19 136.72 165.27 136.88 165.38 137.02C165.49 137.16 165.63 137.28 165.79 137.37C165.95 137.46 166.12 137.51 166.3 137.53L169.09 137.8C168.9 138.01 168.74 138.25 168.61 138.5C168.38 138.96 168.26 139.46 168.25 139.98C168.24 140.49 168.34 141 168.55 141.47C168.76 141.94 169.06 142.36 169.45 142.7C169.84 143.04 170.29 143.29 170.79 143.43L181.53 146.5C181.58 146.86 181.75 147.18 182.02 147.42C182.3 147.66 182.65 147.8 183.02 147.79H185.65C186.48 147.79 187.31 147.67 188.11 147.43L201.51 143.43C202.01 143.29 202.47 143.03 202.86 142.69C203.25 142.34 203.56 141.92 203.76 141.44C203.97 140.96 204.06 140.44 204.04 139.92C204.02 139.4 203.89 138.89 203.65 138.43C203.52 138.17 203.36 137.93 203.16 137.72L205.96 137.45C206.23 137.42 206.49 137.31 206.7 137.13C206.9 136.95 207.05 136.71 207.11 136.45V136.51H207.1ZM186.09 109.51C186.83 109.47 187.55 109.69 188.14 110.13C188.74 110.57 189.16 111.2 189.33 111.92C189.03 111.71 188.78 111.45 188.59 111.14C188.49 110.99 188.36 110.86 188.21 110.76C188.06 110.66 187.89 110.6 187.71 110.57C187.53 110.54 187.36 110.55 187.18 110.59C187.01 110.63 186.85 110.71 186.71 110.82C185.57 111.63 184.22 112.08 182.82 112.12C182.95 111.36 183.36 110.67 183.96 110.19C184.56 109.71 185.32 109.46 186.09 109.51ZM184.09 107.77C184.3 107.21 185.09 106.87 186.09 106.87C187.09 106.87 187.9 107.21 188.09 107.76C188.17 108.04 188.17 108.34 188.09 108.62C187.46 108.34 186.78 108.2 186.09 108.2C185.4 108.2 184.72 108.34 184.09 108.62C184 108.34 184 108.05 184.09 107.77ZM182.81 116.55V113.43C184.5 113.4 186.14 112.85 187.51 111.87C187.93 112.59 188.61 113.12 189.4 113.37V116.55C189.28 117.34 188.89 118.06 188.28 118.59C187.68 119.11 186.9 119.4 186.1 119.4C185.3 119.4 184.53 119.11 183.92 118.59C183.32 118.07 182.92 117.34 182.8 116.55H182.81ZM186.11 120.71C186.39 120.71 186.66 120.69 186.93 120.64C187.01 121.61 187.36 122.53 187.93 123.32C187.42 123.74 186.78 123.97 186.12 123.97C185.46 123.97 184.82 123.74 184.31 123.32C184.88 122.53 185.23 121.61 185.31 120.64C185.58 120.69 185.85 120.71 186.13 120.71H186.11V120.71ZM177.81 126.35C178.06 125.67 178.52 125.07 179.12 124.66C179.71 124.25 180.4 124.02 181.12 124H182.97L183.41 124.37C184.15 125 185.09 125.36 186.07 125.37C187.04 125.36 187.98 125 188.72 124.37L189.16 124H191.02C191.74 124.01 192.43 124.24 193.02 124.65C193.62 125.07 194.08 125.66 194.33 126.35L195.73 130.22L191.44 131.93C191.73 130.9 192.1 129.9 192.55 128.93C192.59 128.85 192.61 128.77 192.62 128.68C192.62 128.59 192.62 128.5 192.59 128.42C192.56 128.34 192.52 128.26 192.46 128.19C192.4 128.12 192.33 128.07 192.25 128.03C192.17 127.99 192.08 127.97 192 127.97C191.91 127.97 191.82 127.97 191.74 128.01C191.66 128.04 191.58 128.09 191.52 128.15C191.46 128.21 191.4 128.28 191.37 128.36C191.27 128.56 189.19 132.9 189.75 136.36C187.29 136.69 184.79 136.69 182.33 136.36C182.88 132.95 180.8 128.61 180.7 128.36C180.66 128.28 180.61 128.21 180.54 128.15C180.47 128.09 180.4 128.05 180.32 128.02C180.24 127.99 180.15 127.98 180.06 127.98C179.97 127.98 179.89 128.01 179.81 128.05C179.73 128.09 179.66 128.14 179.6 128.21C179.54 128.28 179.5 128.35 179.47 128.43C179.44 128.51 179.43 128.6 179.43 128.69C179.43 128.78 179.46 128.86 179.5 128.94C179.95 129.91 180.33 130.91 180.62 131.94L176.32 130.22L177.81 126.35V126.35ZM180.87 136.97C180.51 137.86 180.18 138.61 179.87 139.22L177.7 138.44C178.03 138.36 178.34 138.19 178.59 137.95C178.84 137.71 179.03 137.42 179.13 137.09L180.3 133.2L181.03 133.5C181.27 134.65 181.21 135.85 180.84 136.97H180.87V136.97ZM166.8 135.91C168.01 135.11 169.46 134.75 170.9 134.91L175.63 135.28C175.93 135.3 176.24 135.22 176.49 135.05C176.74 134.88 176.92 134.62 177 134.33L177.63 132.15L179.08 132.73L177.88 136.73C177.84 136.88 177.74 137 177.62 137.09C177.49 137.18 177.34 137.21 177.19 137.2L173.19 136.82L172.86 136.7C172.26 136.5 171.61 136.47 170.99 136.61L166.44 136.18L166.8 135.91V135.91ZM169.73 140.91C169.52 140.39 169.52 139.8 169.73 139.28C169.93 138.75 170.32 138.32 170.83 138.07C171.34 137.82 171.92 137.78 172.46 137.95L181.71 141.3C181.79 141.33 181.88 141.34 181.97 141.34C182.06 141.34 182.14 141.32 182.22 141.28C182.3 141.24 182.37 141.19 182.43 141.13C182.49 141.07 182.53 140.99 182.57 140.91C182.63 140.75 182.63 140.56 182.57 140.4C182.49 140.24 182.35 140.12 182.19 140.06L181.19 139.71C181.47 139.12 181.78 138.41 182.11 137.6C183.46 137.79 184.81 137.88 186.17 137.87C187.53 137.88 188.89 137.79 190.23 137.59C190.62 138.59 191.06 139.56 191.56 140.51L188.08 142.19L184.22 140.8C184.14 140.77 184.05 140.76 183.96 140.76C183.87 140.76 183.79 140.78 183.71 140.82C183.63 140.86 183.56 140.91 183.5 140.97C183.44 141.03 183.39 141.11 183.36 141.19C183.3 141.36 183.31 141.54 183.39 141.7C183.46 141.86 183.6 141.98 183.76 142.04L186.41 143.04L182.41 145.04C182.28 145.1 182.16 145.19 182.06 145.29L171.25 142.2C170.94 142.11 170.66 141.96 170.41 141.75C170.17 141.54 169.98 141.28 169.85 140.98L169.73 140.91ZM182.98 146.44C182.98 146.44 182.91 146.43 182.88 146.41C182.85 146.39 182.83 146.36 182.82 146.32C182.82 146.29 182.82 146.25 182.82 146.22C182.83 146.19 182.85 146.16 182.88 146.14L186.16 144.56L186.94 146.31C186.5 146.39 186.05 146.44 185.6 146.44H182.97H182.98ZM202.49 140.93C202.36 141.23 202.17 141.49 201.93 141.7C201.69 141.91 201.41 142.07 201.1 142.16L188.25 145.97L187.36 143.97L199.81 137.97C200.35 137.8 200.94 137.84 201.45 138.1C201.96 138.35 202.35 138.79 202.54 139.32C202.73 139.85 202.72 140.43 202.49 140.95V140.93V140.93ZM201.23 136.62C200.61 136.48 199.96 136.51 199.36 136.71H199.28L199.13 136.78L195.03 137.17C194.88 137.19 194.73 137.15 194.6 137.06C194.47 136.97 194.38 136.85 194.34 136.7L193.93 135.35C193.91 135.26 193.87 135.18 193.82 135.1C193.77 135.03 193.7 134.96 193.62 134.92C193.54 134.87 193.45 134.85 193.36 134.83C193.27 134.82 193.18 134.83 193.09 134.85C193 134.88 192.92 134.92 192.85 134.98C192.78 135.04 192.72 135.11 192.68 135.19C192.64 135.27 192.62 135.36 192.61 135.45C192.61 135.54 192.62 135.63 192.65 135.72L193.05 137.07C193.18 137.47 193.43 137.82 193.77 138.07C194.11 138.32 194.52 138.46 194.95 138.46H195.7L192.7 139.93C192.19 138.98 191.74 138 191.36 136.99C191 135.87 190.94 134.67 191.18 133.51L191.92 133.22L192.13 133.91C192.15 133.99 192.19 134.07 192.24 134.14C192.29 134.21 192.36 134.27 192.44 134.31C192.52 134.35 192.6 134.38 192.69 134.39C192.78 134.4 192.87 134.39 192.95 134.37C193.12 134.32 193.26 134.2 193.34 134.04C193.37 133.96 193.39 133.87 193.39 133.78C193.39 133.69 193.37 133.61 193.34 133.52L193.1 132.72L194.55 132.14L195.17 134.31C195.25 134.61 195.44 134.86 195.69 135.04C195.94 135.21 196.25 135.29 196.55 135.27L201.29 134.9C202.73 134.75 204.17 135.1 205.38 135.9L205.76 136.15L201.21 136.6L201.23 136.62Z" fill="#272727"/>
<path d="M193.76 28.44C194.14 27.95 194.34 27.36 194.34 26.74C194.34 25.98 194.03 25.25 193.5 24.71C192.96 24.17 192.23 23.87 191.47 23.87H191.41C191.48 23.66 191.52 23.43 191.52 23.21C191.52 22.7 191.33 22.2 191 21.81C190.66 21.42 190.2 21.17 189.69 21.09L190.78 17.82C190.82 17.71 190.83 17.59 190.81 17.47C190.79 17.35 190.75 17.24 190.68 17.15C190.61 17.05 190.52 16.97 190.41 16.92C190.3 16.86 190.19 16.83 190.07 16.83H187.3V15.53H189.36C189.56 15.53 189.76 15.45 189.9 15.31C190.04 15.17 190.12 14.97 190.12 14.77V7.77002C190.12 7.57002 190.04 7.38002 189.89 7.24002C189.75 7.10002 189.56 7.02002 189.36 7.02002H183.76C183.56 7.02002 183.37 7.10002 183.23 7.24002C183.09 7.38002 183.01 7.57002 183.01 7.77002V14.77C183.01 14.87 183.03 14.97 183.06 15.06C183.1 15.15 183.15 15.24 183.22 15.31C183.29 15.38 183.37 15.44 183.46 15.48C183.55 15.52 183.65 15.54 183.75 15.54H185.81V16.84H183.05C182.93 16.84 182.81 16.87 182.7 16.92C182.59 16.97 182.5 17.05 182.43 17.15C182.36 17.25 182.31 17.36 182.3 17.48C182.28 17.6 182.3 17.72 182.34 17.84L183.43 21.11C182.92 21.19 182.46 21.44 182.12 21.83C181.78 22.22 181.6 22.72 181.6 23.23C181.6 23.45 181.64 23.68 181.71 23.89H181.65C181.27 23.89 180.9 23.96 180.55 24.1C180.2 24.24 179.88 24.45 179.61 24.72C179.34 24.99 179.13 25.3 178.98 25.65C178.84 26 178.76 26.37 178.76 26.75C178.76 27.36 178.97 27.96 179.34 28.45C177.75 28.94 176.36 29.93 175.37 31.27C174.38 32.61 173.84 34.23 173.84 35.89V47.84C173.84 48.97 174.29 50.06 175.09 50.86C175.89 51.66 176.97 52.11 178.1 52.11H194.98C196.11 52.11 197.2 51.66 198 50.86C198.8 50.06 199.25 48.98 199.25 47.84V35.89C199.25 34.23 198.71 32.61 197.72 31.27C196.73 29.93 195.35 28.94 193.76 28.44V28.44ZM189.36 23.87H183.76C183.68 23.87 183.59 23.85 183.51 23.82C183.43 23.79 183.36 23.74 183.3 23.68C183.24 23.62 183.19 23.55 183.16 23.47C183.13 23.39 183.11 23.31 183.11 23.22C183.11 23.13 183.13 23.05 183.16 22.97C183.19 22.89 183.24 22.82 183.3 22.76C183.36 22.7 183.43 22.65 183.51 22.62C183.59 22.59 183.67 22.57 183.76 22.57H189.38C189.46 22.57 189.55 22.59 189.63 22.62C189.71 22.65 189.78 22.7 189.84 22.76C189.9 22.82 189.95 22.89 189.98 22.97C190.01 23.05 190.03 23.13 190.03 23.22C190.03 23.31 190.01 23.39 189.98 23.47C189.95 23.55 189.9 23.62 189.84 23.68C189.78 23.74 189.71 23.79 189.63 23.82C189.55 23.85 189.47 23.87 189.38 23.87H189.36ZM184.49 26.74V25.38H188.61V26.75C188.61 27.51 188.91 28.23 189.45 28.77C189.98 29.31 190.71 29.61 191.47 29.61C193.14 29.61 194.73 30.27 195.91 31.45C197.09 32.63 197.75 34.23 197.75 35.89V47.84C197.75 48.57 197.46 49.27 196.94 49.79C196.42 50.31 195.72 50.6 194.99 50.6H178.11C177.38 50.6 176.68 50.31 176.16 49.79C175.64 49.27 175.35 48.57 175.35 47.84V35.89C175.35 34.23 176.01 32.63 177.19 31.45C178.37 30.27 179.96 29.61 181.63 29.61C182.01 29.61 182.38 29.54 182.73 29.4C183.08 29.26 183.4 29.05 183.66 28.78C183.93 28.51 184.14 28.2 184.29 27.85C184.44 27.5 184.51 27.13 184.51 26.75H184.49V26.74ZM191.49 28.08C191.22 28.08 190.96 28 190.73 27.85C190.51 27.7 190.33 27.49 190.23 27.24C190.13 26.99 190.1 26.72 190.15 26.45C190.2 26.19 190.33 25.94 190.53 25.75C190.72 25.56 190.96 25.43 191.23 25.38C191.49 25.33 191.77 25.36 192.02 25.46C192.27 25.56 192.48 25.74 192.63 25.97C192.78 26.19 192.86 26.46 192.85 26.73C192.85 26.91 192.81 27.08 192.75 27.25C192.68 27.41 192.58 27.56 192.46 27.69C192.33 27.82 192.18 27.91 192.02 27.98C191.86 28.05 191.68 28.08 191.5 28.08H191.49ZM181.65 25.37C181.92 25.37 182.18 25.45 182.41 25.6C182.63 25.75 182.81 25.96 182.91 26.21C183.01 26.46 183.04 26.73 182.99 27C182.94 27.26 182.81 27.51 182.62 27.7C182.43 27.89 182.19 28.02 181.92 28.07C181.66 28.12 181.38 28.1 181.14 27.99C180.89 27.89 180.68 27.71 180.53 27.49C180.38 27.27 180.3 27 180.3 26.73C180.3 26.37 180.44 26.02 180.7 25.77C180.95 25.52 181.3 25.37 181.66 25.37H181.65ZM188.65 8.50002V14.02H184.53V8.50002H188.65ZM184.12 18.34H189.06L188.16 21.05H185.03L184.12 18.34Z" fill="#272727"/>
<path d="M185.87 9.86002H187.27V12.67H185.87V9.86002Z" fill="#272727"/>
<path d="M46.96 125.97V125.55C46.77 122.53 45.81 119.61 44.18 117.06L44.12 116.99C44.12 116.99 44.09 116.93 44.07 116.91C43.87 116.61 43.69 116.34 43.51 116.1L43.27 115.79L43.2 115.7C43.06 115.52 42.92 115.34 42.78 115.18L42.4 114.74L42.05 114.37C41.8 114.11 41.54 113.85 41.29 113.62L41.06 113.41C40.51 112.92 39.94 112.46 39.33 112.05C39.2 111.95 39.06 111.86 38.92 111.77L38.47 111.48C38.2 111.31 37.91 111.15 37.61 110.99L37.34 110.85H37.24C36.98 110.72 36.72 110.59 36.46 110.48H36.27C34.03 109.5 31.61 109 29.17 109.01C27.13 109.01 25.1 109.34 23.17 110.01H23.11C22.78 110.13 22.44 110.27 22.11 110.43L21.67 110.63L21.01 110.96C20.75 111.09 20.48 111.24 20.18 111.42L19.86 111.61C19.18 112.03 18.53 112.49 17.91 113L17.81 113.09C17.43 113.4 17.06 113.74 16.71 114.09L16.6 114.2C16.42 114.38 16.25 114.56 16.09 114.74L15.79 115.08L15.71 115.17L15.16 115.84L14.74 116.4L14.65 116.52L14.54 116.67C12.72 119.34 11.65 122.45 11.44 125.67V128.28C11.44 128.62 11.5 128.95 11.55 129.28C11.55 129.31 11.55 129.33 11.55 129.36C11.55 129.39 11.55 129.43 11.55 129.46C11.55 129.81 11.67 130.17 11.76 130.58C11.76 130.69 11.76 130.79 11.83 130.9C11.9 131.19 11.97 131.48 12.06 131.76V131.87C12.06 131.93 12.06 131.99 12.06 132.05C12.16 132.38 12.27 132.71 12.41 133.05C12.41 133.15 12.49 133.25 12.53 133.36V133.42C12.63 133.65 12.72 133.88 12.83 134.13V134.23L12.95 134.5C13.09 134.78 13.24 135.08 13.42 135.4L13.59 135.71L13.65 135.81C13.79 136.04 13.9 136.23 14.01 136.39L14.09 136.52C14.12 136.58 14.15 136.63 14.19 136.68C16.36 139.92 19.51 142.38 23.19 143.68C23.24 143.71 23.3 143.73 23.36 143.74H23.59L23.87 143.83L24.22 143.93H24.29L24.94 144.1L25.41 144.21H25.85L26.24 144.28H26.6L27.08 144.34H31.22L31.72 144.28L32.11 144.22L32.56 144.14L32.98 144.05L33.39 143.95L33.83 143.84L34.2 143.73L34.66 143.59L35.01 143.47L35.45 143.31H35.59C39.03 141.98 41.97 139.61 44.01 136.54L44.11 136.37L44.19 136.24C44.3 136.06 44.42 135.88 44.54 135.67L44.59 135.57C44.66 135.47 44.72 135.36 44.78 135.26C44.94 134.95 45.1 134.65 45.24 134.36L45.37 134.08V133.99L45.67 133.28V133.16L45.76 132.91C45.89 132.58 46.01 132.24 46.11 131.91L46.17 131.72V131.62C46.26 131.33 46.33 131.04 46.4 130.76V130.66C46.4 130.59 46.4 130.51 46.4 130.44C46.49 130.05 46.56 129.68 46.61 129.32V129.14C46.66 128.82 46.69 128.49 46.72 128.14V126.65C46.72 126.3 46.97 126.25 46.96 125.97V125.97ZM36.96 112.31C38.81 113.32 40.44 114.68 41.77 116.31L41.85 116.41H41.73L37.58 115.9L36.87 112.24L36.96 112.31V112.31ZM37.21 117.39L43.01 118.11C44.33 120.25 45.12 122.67 45.34 125.17L40.9 128.41L36.32 127.41L34.05 120.41L37.21 117.39V117.39ZM34.83 127.9L29.04 132.11L23.25 127.9L25.46 121.09H32.66L34.83 127.9V127.9ZM22.66 116.13L23.83 111.13C25.49 110.58 27.24 110.3 28.99 110.3C31.09 110.3 33.17 110.7 35.12 111.49L36.12 116.36L32.87 119.54H25.26L22.7 116.18L22.66 116.13V116.13ZM16.66 115.87L16.78 115.73L16.97 115.52L17.31 115.16L17.58 114.9L17.88 114.61L18.24 114.29L18.31 114.23L18.49 114.08L18.94 113.71L19.02 113.65L19.13 113.56L19.7 113.16H19.76C19.99 113 20.23 112.85 20.46 112.71L20.58 112.64H20.66L21.17 112.35L21.56 112.15L21.71 112.07L21.89 111.98H21.98V112.09L21.12 115.84L16.43 116.25L16.66 115.87V115.87ZM12.66 125.19C12.9 122.51 13.8 119.93 15.28 117.68L21.46 117.14L23.98 120.44L21.68 127.51L17.08 128.51L12.63 125.26L12.66 125.19V125.19ZM14.43 134.19L14.28 133.9C14.28 133.8 14.19 133.71 14.15 133.62L13.93 133.14C13.93 133.04 13.85 132.93 13.8 132.82L13.62 132.36C13.62 132.24 13.53 132.12 13.49 132C13.49 131.87 13.4 131.74 13.36 131.61C13.32 131.48 13.27 131.31 13.23 131.16C13.23 131.11 13.23 131.07 13.23 131.02L13.17 130.81C13.11 130.55 13.04 130.27 12.99 129.99C12.99 129.93 12.99 129.87 12.99 129.81V129.64L12.9 129.12V128.78C12.9 128.57 12.9 128.4 12.84 128.24C12.78 128.08 12.84 128.06 12.84 127.97V127.08L12.93 127.15L16.3 129.61L14.75 134.33L14.43 134.19V134.19ZM23.22 142C20.13 140.82 17.47 138.73 15.59 136V135.93L17.59 129.86L22.19 128.86L28.3 133.3V138.06L23.22 142V142ZM33.45 142.45H33.34C33.04 142.53 32.78 142.6 32.53 142.65H32.4L31.4 142.83H31.27C30.99 142.83 30.7 142.91 30.42 142.93H29C28.4 142.93 27.79 142.9 27.19 142.83H27.04L26.22 142.71H25.98L25.2 142.55H25.01L25.09 142.49L29.18 139.37L33.54 142.37L33.45 142.45V142.45ZM42.45 136.01C40.67 138.58 38.19 140.58 35.3 141.79L29.78 137.96V133.4L35.89 128.96L40.47 129.96L42.47 136.03L42.45 136.01V136.01ZM45.39 127.11V128.16C45.39 128.32 45.39 128.49 45.33 128.7V129.04C45.33 129.23 45.26 129.43 45.23 129.61C45.23 129.65 45.23 129.68 45.23 129.72V129.91C45.17 130.19 45.11 130.46 45.04 130.73C45.04 130.81 44.99 130.89 44.97 130.96C44.97 131 44.97 131.05 44.97 131.09V131.16L44.85 131.55L44.73 131.9V132.06L44.62 132.36C44.57 132.51 44.5 132.67 44.44 132.83C44.38 132.99 44.35 133.03 44.31 133.14L44.09 133.62L43.96 133.89L43.86 134.08L43.75 134.29V134.18L42.22 129.53L45.68 127L45.39 127.11V127.11Z" fill="#272727"/>
<path d="M16.23 63.13H17.52V64.88H17.07L14.17 73.7H12.49L16.22 63.13H16.23ZM14.77 69.52H19.4L19.86 70.84H14.3L14.76 69.52H14.77ZM17.11 64.88V63.13H17.96L21.68 73.7H20L17.11 64.88Z" fill="#272727"/>
<path d="M22.61 65.99H24.16V67.31H24.19C24.31 66.86 24.52 66.5 24.82 66.24C25.12 65.98 25.49 65.85 25.91 65.85C26.02 65.85 26.13 65.85 26.22 65.87C26.31 65.88 26.39 65.9 26.44 65.91V67.38C26.38 67.36 26.29 67.34 26.16 67.32C26.03 67.3 25.9 67.29 25.75 67.29C25.42 67.29 25.14 67.36 24.9 67.51C24.66 67.65 24.47 67.86 24.35 68.13C24.22 68.4 24.16 68.73 24.16 69.11V73.7H22.61V65.99V65.99Z" fill="#272727"/>
<path d="M28.38 73.33C28.02 72.99 27.84 72.43 27.84 71.66V67.25H26.77V65.99H27.84V63.98H29.42V65.99H30.82V67.25H29.42V71.57C29.42 71.96 29.5 72.23 29.67 72.37C29.84 72.51 30.08 72.59 30.41 72.59C30.49 72.59 30.57 72.59 30.63 72.58C30.7 72.58 30.76 72.57 30.82 72.56V73.78C30.73 73.79 30.62 73.81 30.48 73.82C30.34 73.83 30.2 73.84 30.04 73.84C29.3 73.84 28.75 73.67 28.39 73.32L28.38 73.33Z" fill="#272727"/>
<path d="M33.21 73.36C32.68 73.04 32.28 72.57 32 71.98C31.72 71.38 31.58 70.68 31.58 69.87C31.58 69.06 31.72 68.36 32.01 67.76C32.3 67.16 32.69 66.69 33.21 66.35C33.73 66.02 34.33 65.85 35.03 65.85C35.73 65.85 36.33 66.01 36.84 66.33C37.34 66.65 37.73 67.1 38.01 67.69C38.29 68.28 38.42 68.95 38.42 69.72V70.25H32.35V69.13H37.68L36.92 70.18V69.56C36.92 69.02 36.84 68.57 36.68 68.21C36.52 67.85 36.3 67.58 36.02 67.41C35.74 67.23 35.41 67.15 35.04 67.15C34.67 67.15 34.35 67.24 34.06 67.43C33.77 67.62 33.54 67.89 33.38 68.25C33.21 68.61 33.13 69.05 33.13 69.57V70.19C33.13 70.69 33.21 71.11 33.38 71.47C33.54 71.82 33.78 72.1 34.08 72.28C34.38 72.47 34.74 72.56 35.15 72.56C35.45 72.56 35.72 72.51 35.95 72.42C36.18 72.33 36.37 72.2 36.53 72.04C36.68 71.88 36.79 71.7 36.85 71.51L36.87 71.45H38.33V71.53C38.25 71.83 38.14 72.12 37.97 72.4C37.8 72.68 37.58 72.93 37.31 73.15C37.04 73.37 36.72 73.55 36.35 73.67C35.98 73.8 35.57 73.86 35.11 73.86C34.38 73.86 33.75 73.7 33.22 73.37L33.21 73.36Z" fill="#272727"/>
<path d="M40.78 73.55C40.33 73.35 39.98 73.08 39.72 72.72C39.46 72.37 39.31 71.95 39.26 71.49V71.42H40.77V71.49C40.86 71.84 41.03 72.12 41.29 72.31C41.55 72.51 41.91 72.61 42.38 72.61C42.69 72.61 42.96 72.57 43.18 72.49C43.4 72.41 43.57 72.29 43.68 72.14C43.8 71.99 43.86 71.81 43.86 71.6C43.86 71.34 43.78 71.14 43.63 70.99C43.48 70.84 43.19 70.71 42.79 70.61L41.57 70.32C40.86 70.15 40.33 69.89 39.97 69.53C39.62 69.17 39.44 68.71 39.44 68.16C39.44 67.69 39.56 67.28 39.8 66.93C40.04 66.58 40.38 66.31 40.82 66.12C41.26 65.93 41.76 65.83 42.33 65.83C42.9 65.83 43.42 65.93 43.85 66.14C44.28 66.35 44.61 66.62 44.85 66.98C45.09 67.34 45.22 67.73 45.24 68.16V68.25H43.8V68.2C43.75 67.86 43.6 67.59 43.35 67.38C43.1 67.17 42.76 67.06 42.33 67.06C42.06 67.06 41.82 67.1 41.61 67.18C41.41 67.26 41.25 67.38 41.14 67.54C41.03 67.69 40.98 67.87 40.98 68.08C40.98 68.32 41.06 68.52 41.24 68.69C41.42 68.86 41.7 68.99 42.09 69.08L43.31 69.37C44.07 69.55 44.61 69.81 44.93 70.14C45.25 70.47 45.41 70.91 45.41 71.47C45.41 71.95 45.28 72.36 45.02 72.72C44.76 73.08 44.4 73.35 43.94 73.55C43.48 73.75 42.96 73.85 42.37 73.85C41.75 73.85 41.21 73.75 40.76 73.55H40.78Z" fill="#272727"/>
<path d="M89.34 73.75C89.24 73.73 89.15 73.71 89.08 73.7V72.24C89.08 72.24 89.19 72.26 89.27 72.27C89.35 72.28 89.43 72.29 89.5 72.29C89.82 72.29 90.08 72.19 90.29 72C90.5 71.81 90.65 71.51 90.75 71.11C90.86 70.71 90.93 70.2 90.96 69.57L91.31 63.12H97.9V73.69H96.3V64.54H92.75L92.45 69.66C92.4 70.59 92.27 71.35 92.06 71.96C91.85 72.57 91.55 73.02 91.17 73.32C90.78 73.62 90.29 73.77 89.69 73.77C89.57 73.77 89.46 73.77 89.36 73.74L89.34 73.75Z" fill="#272727"/>
<path d="M101.02 73.36C100.49 73.04 100.07 72.57 99.78 71.98C99.49 71.38 99.34 70.67 99.34 69.85C99.34 69.02 99.49 68.31 99.78 67.71C100.08 67.11 100.49 66.66 101.02 66.33C101.55 66 102.17 65.85 102.88 65.85C103.59 65.85 104.21 66.01 104.75 66.33C105.28 66.65 105.7 67.11 105.99 67.7C106.28 68.3 106.43 69.01 106.43 69.83C106.43 70.67 106.28 71.39 105.99 71.98C105.69 72.58 105.28 73.04 104.75 73.36C104.22 73.68 103.6 73.85 102.89 73.85C102.18 73.85 101.55 73.69 101.02 73.36V73.36ZM103.94 72.2C104.23 71.99 104.46 71.69 104.62 71.29C104.78 70.89 104.86 70.41 104.86 69.84C104.86 69.26 104.78 68.78 104.62 68.39C104.46 67.99 104.23 67.69 103.93 67.48C103.63 67.27 103.28 67.17 102.89 67.17C102.5 67.17 102.15 67.27 101.86 67.48C101.56 67.69 101.33 67.99 101.17 68.39C101.01 68.79 100.92 69.26 100.92 69.83C100.92 70.41 101 70.89 101.16 71.29C101.32 71.69 101.55 71.99 101.85 72.2C102.15 72.41 102.5 72.51 102.9 72.51C103.3 72.51 103.64 72.41 103.94 72.2V72.2Z" fill="#272727"/>
<path d="M107.62 65.99H109.17V67.18H109.2C109.36 66.77 109.62 66.45 109.99 66.21C110.36 65.97 110.78 65.84 111.27 65.84C111.61 65.84 111.92 65.9 112.2 66.02C112.48 66.14 112.71 66.31 112.91 66.54C113.11 66.77 113.26 67.04 113.35 67.36H113.39C113.52 67.05 113.7 66.78 113.93 66.55C114.16 66.32 114.43 66.15 114.73 66.03C115.03 65.91 115.36 65.85 115.72 65.85C116.21 65.85 116.64 65.96 117.01 66.17C117.38 66.38 117.66 66.68 117.86 67.06C118.06 67.44 118.16 67.89 118.16 68.4V73.7H116.61V68.79C116.61 68.29 116.49 67.91 116.24 67.63C115.99 67.35 115.64 67.22 115.18 67.22C114.88 67.22 114.61 67.29 114.38 67.43C114.15 67.57 113.97 67.77 113.84 68.02C113.71 68.27 113.64 68.56 113.64 68.88V73.7H112.13V68.67C112.13 68.22 112 67.87 111.75 67.6C111.5 67.34 111.15 67.21 110.72 67.21C110.42 67.21 110.16 67.28 109.92 67.43C109.68 67.58 109.5 67.78 109.37 68.04C109.24 68.3 109.17 68.6 109.17 68.93V73.69H107.62V65.98V65.99Z" fill="#272727"/>
<path d="M120.98 73.36C120.45 73.04 120.03 72.57 119.74 71.98C119.45 71.38 119.3 70.67 119.3 69.85C119.3 69.02 119.45 68.31 119.75 67.71C120.04 67.11 120.46 66.66 120.99 66.33C121.52 66.01 122.14 65.85 122.85 65.85C123.56 65.85 124.18 66.01 124.71 66.33C125.24 66.65 125.66 67.11 125.95 67.7C126.24 68.29 126.39 69.01 126.39 69.83C126.39 70.67 126.24 71.39 125.95 71.98C125.66 72.57 125.24 73.04 124.71 73.36C124.18 73.68 123.56 73.85 122.85 73.85C122.14 73.85 121.51 73.69 120.98 73.36V73.36ZM123.9 72.2C124.19 71.99 124.42 71.69 124.58 71.29C124.74 70.89 124.82 70.41 124.82 69.84C124.82 69.26 124.74 68.78 124.58 68.39C124.42 67.99 124.19 67.69 123.89 67.48C123.59 67.27 123.24 67.17 122.85 67.17C122.46 67.17 122.11 67.27 121.81 67.48C121.52 67.69 121.28 67.99 121.12 68.39C120.96 68.79 120.87 69.26 120.87 69.83C120.87 70.41 120.95 70.89 121.12 71.29C121.28 71.69 121.51 71.99 121.81 72.2C122.11 72.41 122.46 72.51 122.86 72.51C123.26 72.51 123.6 72.41 123.9 72.2V72.2Z" fill="#272727"/>
<path d="M164.73 73.2C164.02 72.76 163.47 72.12 163.08 71.31C162.69 70.49 162.5 69.52 162.5 68.41C162.5 67.28 162.69 66.32 163.08 65.5C163.47 64.68 164.02 64.06 164.73 63.61C165.44 63.17 166.28 62.95 167.25 62.95C168 62.95 168.68 63.1 169.29 63.4C169.9 63.7 170.4 64.11 170.79 64.64C171.18 65.17 171.43 65.78 171.54 66.48V66.55H169.96L169.92 66.4C169.81 65.98 169.63 65.63 169.39 65.33C169.15 65.03 168.85 64.8 168.49 64.65C168.13 64.49 167.72 64.41 167.26 64.41C166.63 64.41 166.07 64.57 165.61 64.9C165.14 65.23 164.78 65.69 164.53 66.28C164.28 66.87 164.15 67.58 164.15 68.4C164.15 69.22 164.28 69.92 164.53 70.53C164.79 71.13 165.15 71.6 165.62 71.93C166.09 72.26 166.64 72.42 167.27 72.42C167.73 72.42 168.13 72.34 168.49 72.18C168.85 72.02 169.15 71.79 169.4 71.48C169.65 71.17 169.84 70.8 169.96 70.35L169.98 70.28H171.56V70.35C171.44 71.05 171.19 71.67 170.8 72.2C170.41 72.73 169.91 73.14 169.3 73.43C168.69 73.72 168.01 73.87 167.25 73.87C166.28 73.87 165.44 73.65 164.73 73.2V73.2Z" fill="#272727"/>
<path d="M174.11 73.36C173.58 73.04 173.18 72.57 172.9 71.98C172.62 71.38 172.48 70.68 172.48 69.87C172.48 69.06 172.62 68.36 172.91 67.76C173.2 67.16 173.59 66.69 174.11 66.35C174.63 66.02 175.23 65.85 175.93 65.85C176.63 65.85 177.23 66.01 177.74 66.33C178.24 66.65 178.63 67.1 178.91 67.69C179.19 68.28 179.32 68.95 179.32 69.72V70.25H173.25V69.13H178.58L177.82 70.18V69.56C177.82 69.02 177.74 68.57 177.58 68.21C177.42 67.85 177.2 67.58 176.92 67.41C176.64 67.23 176.31 67.15 175.94 67.15C175.57 67.15 175.25 67.24 174.96 67.43C174.67 67.62 174.44 67.89 174.28 68.25C174.11 68.61 174.03 69.05 174.03 69.57V70.19C174.03 70.69 174.11 71.11 174.28 71.47C174.44 71.82 174.68 72.1 174.98 72.28C175.28 72.47 175.64 72.56 176.05 72.56C176.35 72.56 176.62 72.51 176.85 72.42C177.08 72.33 177.28 72.2 177.43 72.04C177.58 71.88 177.69 71.7 177.75 71.51L177.77 71.45H179.23V71.53C179.15 71.83 179.04 72.12 178.87 72.4C178.7 72.68 178.48 72.93 178.21 73.15C177.94 73.37 177.62 73.55 177.25 73.67C176.88 73.8 176.47 73.86 176.01 73.86C175.28 73.86 174.65 73.7 174.12 73.37L174.11 73.36Z" fill="#272727"/>
<path d="M180.48 65.99H182.03V67.31H182.06C182.18 66.86 182.39 66.5 182.69 66.24C182.99 65.98 183.36 65.85 183.78 65.85C183.89 65.85 184 65.85 184.09 65.87C184.18 65.88 184.26 65.9 184.31 65.91V67.38C184.25 67.36 184.16 67.34 184.03 67.32C183.9 67.3 183.77 67.29 183.62 67.29C183.29 67.29 183.01 67.36 182.77 67.51C182.53 67.66 182.34 67.86 182.22 68.13C182.09 68.4 182.03 68.73 182.03 69.11V73.7H180.48V65.99V65.99Z" fill="#272727"/>
<path d="M184.63 65.99H186.26L188.14 72.14H188.18L190.05 65.99H191.66L188.98 73.7H187.32L184.63 65.99Z" fill="#272727"/>
<path d="M193.56 73.36C193.03 73.04 192.63 72.57 192.35 71.98C192.07 71.38 191.93 70.68 191.93 69.87C191.93 69.06 192.07 68.36 192.36 67.76C192.65 67.16 193.04 66.69 193.56 66.35C194.08 66.02 194.68 65.85 195.38 65.85C196.08 65.85 196.68 66.01 197.19 66.33C197.69 66.65 198.08 67.1 198.36 67.69C198.64 68.28 198.77 68.95 198.77 69.72V70.25H192.7V69.13H198.03L197.27 70.18V69.56C197.27 69.02 197.19 68.57 197.03 68.21C196.87 67.85 196.65 67.58 196.37 67.41C196.09 67.23 195.76 67.15 195.39 67.15C195.02 67.15 194.7 67.24 194.41 67.43C194.12 67.62 193.89 67.89 193.73 68.25C193.56 68.61 193.48 69.05 193.48 69.57V70.19C193.48 70.69 193.56 71.11 193.73 71.47C193.89 71.82 194.13 72.1 194.43 72.28C194.73 72.47 195.09 72.56 195.5 72.56C195.8 72.56 196.07 72.51 196.3 72.42C196.53 72.33 196.73 72.2 196.88 72.04C197.03 71.88 197.14 71.7 197.2 71.51L197.22 71.45H198.68V71.53C198.6 71.83 198.49 72.12 198.32 72.4C198.15 72.68 197.93 72.93 197.66 73.15C197.39 73.37 197.07 73.55 196.7 73.67C196.33 73.8 195.92 73.86 195.46 73.86C194.73 73.86 194.1 73.7 193.57 73.37L193.56 73.36Z" fill="#272727"/>
<path d="M198.89 76.27C198.82 76.27 198.77 76.27 198.72 76.26V74.96H198.94C199.32 74.96 199.59 74.89 199.75 74.74C199.91 74.59 199.99 74.33 199.99 73.94V65.99H201.53V73.96C201.53 74.74 201.33 75.32 200.93 75.7C200.53 76.08 199.91 76.27 199.08 76.27C199.02 76.27 198.96 76.27 198.9 76.27H198.89ZM200.12 64.54C199.94 64.36 199.86 64.15 199.86 63.9C199.86 63.65 199.95 63.42 200.12 63.25C200.29 63.07 200.51 62.99 200.75 62.99C200.99 62.99 201.22 63.08 201.39 63.25C201.56 63.42 201.65 63.64 201.65 63.9C201.65 64.16 201.56 64.36 201.39 64.54C201.22 64.72 201 64.81 200.75 64.81C200.5 64.81 200.29 64.72 200.12 64.54Z" fill="#272727"/>
<path d="M203.99 73.54C203.62 73.34 203.32 73.07 203.12 72.72C202.91 72.37 202.81 71.96 202.81 71.5C202.81 70.81 203.05 70.28 203.54 69.89C204.03 69.5 204.71 69.27 205.59 69.22L208.42 69.04V70.15L205.8 70.32C205.34 70.35 204.99 70.46 204.74 70.66C204.49 70.86 204.37 71.12 204.37 71.45C204.37 71.8 204.49 72.07 204.74 72.26C204.99 72.46 205.32 72.55 205.73 72.55C206.09 72.55 206.41 72.47 206.7 72.32C206.99 72.17 207.21 71.96 207.38 71.69C207.55 71.42 207.63 71.12 207.63 70.79V68.5C207.63 68.08 207.5 67.74 207.25 67.5C206.99 67.26 206.63 67.14 206.15 67.14C205.71 67.14 205.36 67.24 205.09 67.43C204.82 67.62 204.66 67.88 204.59 68.18V68.25H203.13V68.17C203.17 67.73 203.32 67.33 203.57 66.97C203.82 66.61 204.17 66.34 204.61 66.13C205.05 65.92 205.58 65.82 206.19 65.82C206.8 65.82 207.33 65.92 207.77 66.13C208.21 66.34 208.56 66.64 208.81 67.02C209.06 67.4 209.18 67.85 209.18 68.36V73.67H207.63V72.45H207.6C207.45 72.73 207.26 72.97 207.03 73.17C206.8 73.37 206.54 73.53 206.24 73.64C205.95 73.75 205.64 73.8 205.31 73.8C204.81 73.8 204.38 73.7 204 73.51L203.99 73.54Z" fill="#272727"/>
<path d="M164.85 86.2C164.14 85.76 163.59 85.12 163.2 84.31C162.81 83.49 162.62 82.52 162.62 81.41C162.62 80.28 162.81 79.32 163.2 78.5C163.59 77.68 164.14 77.06 164.85 76.61C165.56 76.17 166.4 75.95 167.37 75.95C168.12 75.95 168.8 76.1 169.41 76.4C170.02 76.7 170.52 77.11 170.91 77.64C171.3 78.17 171.55 78.78 171.66 79.48V79.55H170.08L170.04 79.4C169.93 78.98 169.75 78.63 169.51 78.33C169.27 78.03 168.97 77.8 168.61 77.65C168.25 77.49 167.84 77.41 167.38 77.41C166.75 77.41 166.19 77.57 165.73 77.9C165.26 78.23 164.9 78.69 164.65 79.28C164.4 79.87 164.27 80.58 164.27 81.4C164.27 82.22 164.4 82.92 164.65 83.53C164.91 84.13 165.27 84.6 165.74 84.93C166.21 85.26 166.76 85.42 167.39 85.42C167.85 85.42 168.25 85.34 168.61 85.18C168.97 85.02 169.27 84.79 169.52 84.48C169.77 84.17 169.96 83.8 170.08 83.35L170.1 83.28H171.68V83.35C171.56 84.05 171.31 84.67 170.92 85.2C170.53 85.73 170.03 86.14 169.42 86.43C168.81 86.72 168.13 86.87 167.37 86.87C166.4 86.87 165.56 86.65 164.85 86.2V86.2Z" fill="#272727"/>
<path d="M173.8 86.54C173.43 86.34 173.13 86.07 172.93 85.72C172.72 85.37 172.62 84.96 172.62 84.5C172.62 83.81 172.86 83.28 173.35 82.89C173.84 82.5 174.52 82.27 175.4 82.22L178.23 82.04V83.15L175.61 83.32C175.15 83.35 174.8 83.46 174.55 83.66C174.3 83.86 174.18 84.12 174.18 84.45C174.18 84.8 174.3 85.07 174.55 85.26C174.8 85.46 175.13 85.55 175.54 85.55C175.9 85.55 176.22 85.47 176.51 85.32C176.8 85.17 177.02 84.96 177.19 84.69C177.36 84.42 177.44 84.12 177.44 83.79V81.5C177.44 81.08 177.31 80.74 177.06 80.5C176.8 80.26 176.44 80.14 175.96 80.14C175.52 80.14 175.17 80.24 174.9 80.43C174.63 80.62 174.47 80.88 174.4 81.18V81.25H172.94V81.17C172.98 80.73 173.13 80.33 173.38 79.97C173.63 79.61 173.98 79.34 174.42 79.13C174.86 78.92 175.39 78.82 176 78.82C176.61 78.82 177.14 78.92 177.58 79.13C178.02 79.34 178.37 79.64 178.62 80.02C178.87 80.4 178.99 80.85 178.99 81.36V86.67H177.44V85.45H177.41C177.26 85.73 177.07 85.97 176.84 86.17C176.61 86.37 176.35 86.53 176.05 86.64C175.76 86.75 175.45 86.8 175.12 86.8C174.62 86.8 174.19 86.7 173.81 86.51L173.8 86.54Z" fill="#272727"/>
<path d="M181.66 86.55C181.21 86.35 180.86 86.08 180.61 85.72C180.35 85.37 180.2 84.95 180.15 84.49V84.42H181.66V84.49C181.75 84.84 181.92 85.12 182.18 85.31C182.44 85.51 182.8 85.61 183.27 85.61C183.58 85.61 183.85 85.57 184.07 85.49C184.29 85.41 184.46 85.29 184.57 85.14C184.69 84.99 184.75 84.81 184.75 84.6C184.75 84.34 184.67 84.14 184.52 83.99C184.37 83.84 184.08 83.71 183.68 83.61L182.46 83.32C181.75 83.15 181.22 82.89 180.87 82.53C180.52 82.17 180.34 81.71 180.34 81.16C180.34 80.69 180.46 80.28 180.7 79.93C180.94 79.58 181.28 79.31 181.72 79.12C182.16 78.93 182.66 78.83 183.23 78.83C183.8 78.83 184.32 78.93 184.75 79.14C185.18 79.35 185.51 79.62 185.75 79.98C185.99 80.34 186.12 80.73 186.14 81.16V81.25H184.7V81.2C184.65 80.86 184.5 80.59 184.25 80.38C184 80.17 183.66 80.06 183.23 80.06C182.96 80.06 182.72 80.1 182.51 80.18C182.31 80.26 182.15 80.38 182.04 80.54C181.93 80.69 181.88 80.87 181.88 81.08C181.88 81.32 181.96 81.52 182.14 81.69C182.31 81.86 182.59 81.99 182.99 82.08L184.21 82.37C184.97 82.55 185.51 82.81 185.83 83.14C186.15 83.47 186.31 83.91 186.31 84.47C186.31 84.95 186.18 85.36 185.92 85.72C185.66 86.08 185.3 86.35 184.84 86.55C184.38 86.75 183.86 86.85 183.27 86.85C182.65 86.85 182.11 86.75 181.66 86.55Z" fill="#272727"/>
<path d="M188.8 86.36C188.27 86.04 187.87 85.57 187.59 84.98C187.31 84.38 187.17 83.68 187.17 82.87C187.17 82.06 187.31 81.36 187.6 80.76C187.89 80.16 188.28 79.69 188.8 79.35C189.32 79.02 189.92 78.85 190.62 78.85C191.32 78.85 191.92 79.01 192.43 79.33C192.93 79.65 193.32 80.1 193.6 80.69C193.88 81.28 194.01 81.95 194.01 82.72V83.25H187.94V82.13H193.27L192.51 83.18V82.56C192.51 82.02 192.43 81.57 192.27 81.21C192.11 80.85 191.89 80.58 191.61 80.41C191.33 80.23 191 80.15 190.63 80.15C190.26 80.15 189.94 80.24 189.65 80.43C189.36 80.62 189.13 80.89 188.97 81.25C188.8 81.61 188.72 82.05 188.72 82.57V83.19C188.72 83.69 188.8 84.11 188.97 84.47C189.13 84.82 189.37 85.1 189.67 85.28C189.97 85.47 190.33 85.56 190.74 85.56C191.04 85.56 191.31 85.51 191.54 85.42C191.77 85.33 191.97 85.2 192.12 85.04C192.27 84.88 192.38 84.7 192.44 84.51L192.46 84.45H193.92V84.53C193.84 84.83 193.73 85.12 193.56 85.4C193.39 85.68 193.17 85.93 192.9 86.15C192.63 86.37 192.31 86.55 191.94 86.67C191.57 86.8 191.16 86.86 190.7 86.86C189.97 86.86 189.34 86.7 188.81 86.37L188.8 86.36Z" fill="#272727"/>
<path d="M195.37 77.54C195.2 77.36 195.11 77.15 195.11 76.9C195.11 76.65 195.2 76.42 195.37 76.25C195.54 76.08 195.76 75.99 196 75.99C196.24 75.99 196.46 76.08 196.64 76.25C196.82 76.42 196.9 76.64 196.9 76.9C196.9 77.16 196.81 77.36 196.64 77.54C196.47 77.72 196.26 77.81 196 77.81C195.74 77.81 195.54 77.72 195.37 77.54ZM195.23 78.99H196.78V86.7H195.23V78.99Z" fill="#272727"/>
<path d="M198.35 78.99H199.9V80.31H199.93C200.05 79.86 200.26 79.5 200.56 79.24C200.86 78.98 201.23 78.85 201.65 78.85C201.76 78.85 201.87 78.85 201.96 78.87C202.05 78.88 202.13 78.9 202.18 78.91V80.38C202.12 80.36 202.03 80.34 201.9 80.32C201.77 80.3 201.64 80.29 201.49 80.29C201.16 80.29 200.88 80.36 200.64 80.51C200.4 80.66 200.21 80.86 200.09 81.13C199.96 81.4 199.9 81.73 199.9 82.11V86.7H198.35V78.99V78.99Z" fill="#272727"/>
<path d="M203.87 86.54C203.5 86.34 203.2 86.07 203 85.72C202.79 85.37 202.69 84.96 202.69 84.5C202.69 83.81 202.93 83.28 203.42 82.89C203.91 82.5 204.59 82.27 205.47 82.22L208.3 82.04V83.15L205.68 83.32C205.22 83.35 204.87 83.46 204.62 83.66C204.37 83.86 204.25 84.12 204.25 84.45C204.25 84.8 204.37 85.07 204.62 85.26C204.87 85.46 205.2 85.55 205.61 85.55C205.97 85.55 206.29 85.47 206.58 85.32C206.87 85.17 207.09 84.96 207.26 84.69C207.43 84.42 207.51 84.12 207.51 83.79V81.5C207.51 81.08 207.38 80.74 207.13 80.5C206.87 80.26 206.51 80.14 206.03 80.14C205.59 80.14 205.24 80.24 204.97 80.43C204.7 80.62 204.54 80.88 204.47 81.18V81.25H203.01V81.17C203.05 80.73 203.2 80.33 203.45 79.97C203.7 79.61 204.05 79.34 204.49 79.13C204.93 78.92 205.46 78.82 206.07 78.82C206.68 78.82 207.21 78.92 207.65 79.13C208.09 79.34 208.44 79.64 208.69 80.02C208.94 80.4 209.06 80.85 209.06 81.36V86.67H207.51V85.45H207.48C207.33 85.73 207.14 85.97 206.91 86.17C206.68 86.37 206.42 86.53 206.12 86.64C205.83 86.75 205.52 86.8 205.19 86.8C204.69 86.8 204.26 86.7 203.88 86.51L203.87 86.54Z" fill="#272727"/>
<path d="M74.2 171.37C73.62 171.13 73.17 170.79 72.83 170.34C72.49 169.89 72.3 169.36 72.26 168.74V168.63H73.81V168.72C73.87 169.04 74 169.32 74.22 169.56C74.44 169.8 74.72 169.98 75.07 170.1C75.42 170.23 75.82 170.29 76.28 170.29C76.74 170.29 77.13 170.22 77.47 170.09C77.8 169.96 78.06 169.77 78.24 169.53C78.42 169.29 78.51 169 78.51 168.67C78.51 168.24 78.36 167.9 78.07 167.65C77.77 167.4 77.28 167.2 76.6 167.05L75.48 166.81C74.48 166.59 73.73 166.24 73.23 165.75C72.74 165.26 72.49 164.63 72.49 163.85C72.49 163.24 72.66 162.71 72.97 162.26C73.29 161.8 73.73 161.45 74.28 161.19C74.84 160.93 75.48 160.81 76.2 160.81C76.92 160.81 77.54 160.93 78.08 161.18C78.62 161.43 79.06 161.78 79.37 162.22C79.69 162.67 79.87 163.19 79.9 163.78V163.9H78.35V163.8C78.29 163.47 78.18 163.18 77.98 162.95C77.79 162.72 77.54 162.54 77.23 162.41C76.92 162.29 76.56 162.22 76.16 162.22C75.76 162.22 75.37 162.28 75.06 162.41C74.75 162.54 74.51 162.72 74.34 162.95C74.17 163.18 74.08 163.45 74.08 163.76C74.08 164.16 74.23 164.49 74.53 164.73C74.83 164.98 75.3 165.17 75.94 165.32L77.06 165.57C78.12 165.8 78.89 166.15 79.37 166.62C79.85 167.09 80.09 167.74 80.09 168.55C80.09 169.2 79.93 169.76 79.62 170.23C79.3 170.7 78.86 171.06 78.27 171.32C77.69 171.58 76.99 171.7 76.18 171.7C75.41 171.7 74.74 171.58 74.17 171.34L74.2 171.37Z" fill="#272727"/>
<path d="M81.36 163.85H82.91V165.01H82.94C83.14 164.62 83.43 164.3 83.81 164.06C84.19 163.82 84.67 163.7 85.23 163.7C86.05 163.7 86.68 163.95 87.13 164.47C87.58 164.98 87.8 165.68 87.8 166.57V171.56H86.26V166.88C86.26 166.3 86.13 165.85 85.87 165.54C85.61 165.23 85.21 165.07 84.68 165.07C84.32 165.07 84.01 165.15 83.74 165.32C83.47 165.49 83.27 165.72 83.12 166.02C82.98 166.32 82.9 166.67 82.9 167.07V171.56H81.35V163.85H81.36Z" fill="#272727"/>
<path d="M90.64 171.22C90.11 170.89 89.69 170.43 89.4 169.84C89.11 169.24 88.96 168.53 88.96 167.71C88.96 166.88 89.11 166.17 89.4 165.57C89.69 164.97 90.11 164.52 90.64 164.19C91.17 163.87 91.79 163.71 92.5 163.71C93.21 163.71 93.83 163.87 94.36 164.19C94.89 164.51 95.31 164.97 95.6 165.56C95.9 166.16 96.04 166.87 96.04 167.69C96.04 168.53 95.89 169.25 95.6 169.84C95.3 170.44 94.89 170.9 94.36 171.22C93.83 171.54 93.21 171.71 92.5 171.71C91.79 171.71 91.16 171.55 90.63 171.22H90.64ZM93.56 170.06C93.85 169.85 94.08 169.55 94.24 169.15C94.4 168.75 94.48 168.27 94.48 167.7C94.48 167.12 94.4 166.64 94.24 166.25C94.08 165.85 93.85 165.55 93.55 165.34C93.25 165.13 92.9 165.03 92.51 165.03C92.12 165.03 91.77 165.13 91.48 165.34C91.19 165.55 90.95 165.85 90.79 166.25C90.63 166.65 90.54 167.12 90.54 167.69C90.54 168.27 90.62 168.75 90.79 169.15C90.95 169.55 91.18 169.85 91.48 170.06C91.78 170.27 92.13 170.37 92.53 170.37C92.93 170.37 93.27 170.27 93.57 170.06H93.56Z" fill="#272727"/>
<path d="M96.63 163.85H98.17L99.53 169.91H99.57L101.12 163.85H102.61L104.17 169.91H104.21L105.57 163.85H107.1L105.05 171.56H103.44L101.88 165.79H101.84L100.28 171.56H98.68L96.63 163.85V163.85Z" fill="#272727"/>
<path d="M110.59 171.32C110.19 171.06 109.88 170.7 109.66 170.25H109.62V171.55H108.08V160.98H109.62V165.15H109.66C109.88 164.7 110.2 164.34 110.61 164.08C111.02 163.82 111.49 163.69 112.02 163.69C112.64 163.69 113.19 163.85 113.65 164.18C114.11 164.5 114.48 164.97 114.74 165.56C115 166.16 115.13 166.86 115.13 167.68C115.13 168.51 115 169.22 114.74 169.81C114.48 170.41 114.12 170.87 113.65 171.2C113.18 171.53 112.63 171.69 112 171.69C111.46 171.69 110.99 171.56 110.59 171.3V171.32ZM112.63 170.03C112.92 169.82 113.15 169.52 113.31 169.12C113.47 168.72 113.55 168.25 113.55 167.71C113.55 167.16 113.47 166.69 113.31 166.3C113.15 165.91 112.93 165.6 112.63 165.39C112.34 165.18 111.99 165.07 111.59 165.07C111.19 165.07 110.87 165.18 110.57 165.4C110.27 165.62 110.04 165.92 109.87 166.32C109.7 166.71 109.61 167.18 109.61 167.71C109.61 168.25 109.69 168.71 109.86 169.11C110.03 169.51 110.26 169.81 110.56 170.03C110.86 170.25 111.2 170.36 111.58 170.36C111.98 170.36 112.33 170.26 112.62 170.04L112.63 170.03Z" fill="#272727"/>
<path d="M117.65 171.22C117.12 170.89 116.7 170.43 116.41 169.84C116.12 169.24 115.97 168.53 115.97 167.71C115.97 166.88 116.12 166.17 116.41 165.57C116.7 164.97 117.12 164.52 117.65 164.19C118.18 163.87 118.8 163.71 119.51 163.71C120.22 163.71 120.84 163.87 121.37 164.19C121.9 164.51 122.32 164.97 122.61 165.56C122.91 166.16 123.05 166.87 123.05 167.69C123.05 168.53 122.9 169.25 122.61 169.84C122.31 170.44 121.9 170.9 121.37 171.22C120.84 171.54 120.22 171.71 119.51 171.71C118.8 171.71 118.17 171.55 117.64 171.22H117.65ZM120.57 170.06C120.86 169.85 121.09 169.55 121.25 169.15C121.41 168.75 121.49 168.27 121.49 167.7C121.49 167.12 121.41 166.64 121.25 166.25C121.09 165.85 120.86 165.55 120.56 165.34C120.26 165.13 119.91 165.03 119.52 165.03C119.13 165.03 118.78 165.13 118.49 165.34C118.2 165.55 117.96 165.85 117.8 166.25C117.64 166.65 117.55 167.12 117.55 167.69C117.55 168.27 117.63 168.75 117.8 169.15C117.96 169.55 118.19 169.85 118.49 170.06C118.79 170.27 119.14 170.37 119.54 170.37C119.94 170.37 120.28 170.27 120.58 170.06H120.57Z" fill="#272727"/>
<path d="M125.14 171.4C124.77 171.21 124.47 170.93 124.27 170.58C124.06 170.23 123.96 169.82 123.96 169.37V169.35C123.96 168.68 124.2 168.14 124.69 167.75C125.18 167.36 125.86 167.13 126.74 167.08L129.57 166.9V168.01L126.95 168.18C126.49 168.21 126.14 168.32 125.89 168.52C125.64 168.72 125.52 168.98 125.52 169.31C125.52 169.66 125.64 169.93 125.89 170.12C126.14 170.32 126.47 170.41 126.88 170.41C127.24 170.41 127.56 170.33 127.85 170.18C128.14 170.03 128.36 169.82 128.53 169.55C128.7 169.28 128.78 168.98 128.78 168.65V166.36C128.78 165.93 128.65 165.6 128.4 165.36C128.14 165.12 127.78 165 127.3 165C126.86 165 126.51 165.1 126.24 165.29C125.97 165.49 125.81 165.74 125.74 166.04V166.11H124.28V166.03C124.32 165.59 124.47 165.19 124.72 164.83C124.97 164.48 125.32 164.2 125.76 163.99C126.2 163.78 126.73 163.68 127.34 163.68C127.95 163.68 128.48 163.79 128.92 163.99C129.36 164.2 129.71 164.5 129.96 164.88C130.21 165.26 130.33 165.71 130.33 166.22V171.53H128.78V170.31H128.75C128.6 170.59 128.41 170.83 128.18 171.03C127.95 171.23 127.69 171.39 127.39 171.5C127.1 171.61 126.79 171.66 126.46 171.66C125.96 171.66 125.53 171.56 125.15 171.37L125.14 171.4Z" fill="#272727"/>
<path d="M131.79 163.85H133.34V165.17H133.37C133.49 164.72 133.7 164.36 134 164.1C134.3 163.84 134.67 163.71 135.09 163.71C135.2 163.71 135.31 163.71 135.4 163.73C135.49 163.74 135.57 163.76 135.62 163.77V165.24C135.56 165.22 135.47 165.19 135.34 165.18C135.22 165.16 135.08 165.15 134.93 165.15C134.6 165.15 134.32 165.22 134.08 165.37C133.84 165.51 133.65 165.72 133.53 165.99C133.4 166.26 133.34 166.59 133.34 166.97V171.56H131.79V163.85Z" fill="#272727"/>
<path d="M137.41 171.22C136.94 170.89 136.58 170.43 136.32 169.83C136.06 169.23 135.94 168.52 135.94 167.7C135.94 166.87 136.07 166.16 136.33 165.57C136.59 164.98 136.95 164.51 137.42 164.19C137.89 163.86 138.43 163.7 139.06 163.7C139.59 163.7 140.05 163.83 140.46 164.09C140.87 164.35 141.19 164.71 141.42 165.16H141.45V160.99H143V171.56H141.45V170.26H141.42C141.2 170.71 140.88 171.06 140.48 171.33C140.08 171.59 139.61 171.72 139.07 171.72C138.44 171.72 137.88 171.56 137.41 171.23V171.22ZM140.5 170.01C140.8 169.79 141.03 169.49 141.2 169.09C141.37 168.69 141.45 168.23 141.45 167.7C141.45 167.16 141.36 166.7 141.19 166.3C141.02 165.91 140.79 165.6 140.49 165.38C140.2 165.16 139.86 165.05 139.47 165.05C139.08 165.05 138.72 165.16 138.43 165.37C138.14 165.58 137.91 165.89 137.75 166.28C137.59 166.67 137.51 167.14 137.51 167.68C137.51 168.23 137.59 168.7 137.75 169.1C137.91 169.5 138.13 169.8 138.43 170.01C138.72 170.22 139.07 170.33 139.47 170.33C139.87 170.33 140.2 170.22 140.5 170V170.01Z" fill="#272727"/>
<path d="M173.96 167.38L170.35 161.14H172.12L174.74 165.8H174.78L177.39 161.14H179.17L175.55 167.38V171.71H173.95V167.38H173.96Z" fill="#272727"/>
<path d="M180.04 171.37C179.51 171.04 179.09 170.58 178.8 169.99C178.51 169.39 178.36 168.68 178.36 167.86C178.36 167.03 178.51 166.32 178.8 165.72C179.09 165.12 179.51 164.67 180.04 164.34C180.57 164.02 181.19 163.86 181.9 163.86C182.61 163.86 183.23 164.02 183.76 164.34C184.29 164.66 184.71 165.12 185 165.71C185.3 166.31 185.44 167.02 185.44 167.84C185.44 168.68 185.29 169.4 185 169.99C184.7 170.59 184.29 171.05 183.76 171.37C183.23 171.69 182.61 171.86 181.9 171.86C181.19 171.86 180.56 171.7 180.03 171.37H180.04ZM182.96 170.21C183.25 170 183.48 169.7 183.64 169.3C183.8 168.9 183.88 168.42 183.88 167.85C183.88 167.27 183.8 166.79 183.64 166.4C183.48 166 183.25 165.7 182.95 165.49C182.65 165.28 182.3 165.18 181.91 165.18C181.52 165.18 181.17 165.28 180.88 165.49C180.59 165.7 180.35 166 180.19 166.4C180.03 166.8 179.94 167.27 179.94 167.84C179.94 168.42 180.02 168.9 180.19 169.3C180.35 169.7 180.58 170 180.88 170.21C181.18 170.42 181.53 170.52 181.93 170.52C182.33 170.52 182.67 170.42 182.97 170.21H182.96Z" fill="#272727"/>
<path d="M188.25 174.15C187.77 173.96 187.39 173.71 187.1 173.4C186.81 173.09 186.63 172.73 186.55 172.34V172.27H188.07L188.09 172.33C188.19 172.57 188.4 172.77 188.72 172.93C189.03 173.08 189.43 173.16 189.91 173.16C190.52 173.16 190.98 173 191.31 172.69C191.64 172.37 191.8 171.95 191.8 171.42V170.36H191.76C191.62 170.64 191.43 170.88 191.2 171.09C190.97 171.3 190.7 171.45 190.4 171.57C190.1 171.68 189.77 171.74 189.41 171.74C188.79 171.74 188.24 171.58 187.77 171.26C187.3 170.94 186.94 170.49 186.68 169.9C186.42 169.31 186.3 168.62 186.3 167.82C186.3 167.01 186.43 166.31 186.69 165.72C186.95 165.13 187.32 164.68 187.79 164.36C188.26 164.04 188.81 163.88 189.44 163.88C189.8 163.88 190.12 163.94 190.42 164.06C190.72 164.18 190.98 164.35 191.21 164.57C191.44 164.79 191.63 165.04 191.77 165.33H191.81V164.02H193.35V171.51C193.35 172.1 193.21 172.61 192.93 173.05C192.65 173.49 192.26 173.83 191.74 174.08C191.23 174.32 190.62 174.45 189.92 174.45C189.28 174.45 188.72 174.36 188.25 174.17V174.15ZM190.88 170.11C191.17 169.9 191.4 169.59 191.56 169.2C191.72 168.81 191.81 168.35 191.81 167.82C191.81 167.28 191.73 166.83 191.56 166.44C191.4 166.05 191.17 165.75 190.87 165.54C190.58 165.33 190.24 165.22 189.85 165.22C189.46 165.22 189.1 165.33 188.8 165.54C188.5 165.75 188.27 166.05 188.11 166.44C187.95 166.83 187.87 167.29 187.87 167.81C187.87 168.36 187.95 168.82 188.11 169.21C188.27 169.6 188.5 169.9 188.8 170.11C189.1 170.32 189.44 170.43 189.85 170.43C190.26 170.43 190.59 170.32 190.88 170.11V170.11Z" fill="#272727"/>
<path d="M195.75 171.55C195.38 171.36 195.08 171.08 194.88 170.73C194.67 170.38 194.57 169.97 194.57 169.52V169.5C194.57 168.83 194.81 168.29 195.3 167.9C195.79 167.51 196.47 167.28 197.35 167.23L200.18 167.05V168.16L197.56 168.33C197.1 168.36 196.75 168.47 196.5 168.67C196.25 168.87 196.13 169.13 196.13 169.46C196.13 169.81 196.25 170.08 196.5 170.27C196.75 170.47 197.08 170.56 197.49 170.56C197.85 170.56 198.17 170.48 198.46 170.33C198.75 170.18 198.97 169.97 199.14 169.7C199.31 169.43 199.39 169.13 199.39 168.8V166.51C199.39 166.08 199.26 165.75 199.01 165.51C198.75 165.27 198.39 165.15 197.91 165.15C197.47 165.15 197.12 165.25 196.85 165.44C196.58 165.64 196.42 165.89 196.35 166.19V166.26H194.89V166.18C194.93 165.74 195.08 165.34 195.33 164.98C195.58 164.63 195.93 164.35 196.37 164.14C196.81 163.93 197.34 163.83 197.95 163.83C198.56 163.83 199.09 163.94 199.53 164.14C199.97 164.35 200.32 164.65 200.57 165.03C200.82 165.41 200.94 165.86 200.94 166.37V171.68H199.39V170.46H199.36C199.21 170.74 199.02 170.98 198.79 171.18C198.56 171.38 198.3 171.54 198 171.65C197.71 171.76 197.4 171.81 197.07 171.81C196.57 171.81 196.14 171.71 195.76 171.52L195.75 171.55Z" fill="#272727"/>
<path d="M6.38 160.99H12.78V162.41H7.97V165.75H12.37V167.13H7.97V171.55H6.38V160.98V160.99Z" fill="#272727"/>
<path d="M15.13 171.36C14.74 171.13 14.45 170.8 14.25 170.37C14.05 169.94 13.94 169.43 13.94 168.84V163.85H15.49V168.54C15.49 169.12 15.62 169.57 15.88 169.88C16.14 170.19 16.54 170.34 17.07 170.34C17.43 170.34 17.74 170.26 18.01 170.09C18.28 169.92 18.48 169.69 18.63 169.39C18.77 169.09 18.85 168.74 18.85 168.35V163.85H20.39V171.56H18.85V170.4H18.81C18.62 170.79 18.33 171.11 17.95 171.35C17.57 171.59 17.09 171.71 16.53 171.71C15.97 171.71 15.52 171.59 15.13 171.36V171.36Z" fill="#272727"/>
<path d="M22.88 171.19C22.52 170.85 22.34 170.29 22.34 169.52V165.11H21.27V163.85H22.34V161.84H23.92V163.85H25.32V165.11H23.92V169.43C23.92 169.82 24 170.09 24.17 170.23C24.34 170.37 24.58 170.45 24.91 170.45C24.99 170.45 25.07 170.45 25.13 170.44C25.2 170.44 25.26 170.43 25.32 170.42V171.64C25.23 171.65 25.12 171.67 24.98 171.68C24.84 171.69 24.7 171.7 24.54 171.7C23.8 171.7 23.25 171.53 22.89 171.18L22.88 171.19Z" fill="#272727"/>
<path d="M27.71 171.22C27.18 170.89 26.78 170.43 26.5 169.84C26.22 169.24 26.08 168.54 26.08 167.73C26.08 166.92 26.22 166.22 26.51 165.62C26.79 165.02 27.19 164.55 27.71 164.21C28.23 163.88 28.83 163.71 29.53 163.71C30.23 163.71 30.83 163.87 31.34 164.19C31.84 164.51 32.23 164.96 32.51 165.55C32.79 166.13 32.92 166.81 32.92 167.58V168.12H26.85V167H32.18L31.42 168.05V167.43C31.42 166.89 31.34 166.44 31.18 166.08C31.02 165.72 30.8 165.45 30.52 165.28C30.24 165.1 29.91 165.02 29.54 165.02C29.17 165.02 28.85 165.11 28.56 165.3C28.27 165.49 28.04 165.76 27.88 166.12C27.71 166.48 27.63 166.92 27.63 167.44V168.06C27.63 168.56 27.71 168.98 27.88 169.34C28.04 169.69 28.28 169.96 28.58 170.15C28.88 170.34 29.24 170.43 29.65 170.43C29.95 170.43 30.22 170.38 30.45 170.29C30.68 170.2 30.87 170.07 31.03 169.91C31.18 169.75 31.29 169.58 31.35 169.38L31.37 169.32H32.83V169.4C32.75 169.7 32.64 169.99 32.47 170.27C32.3 170.55 32.08 170.8 31.81 171.02C31.54 171.24 31.22 171.42 30.85 171.54C30.48 171.67 30.07 171.73 29.61 171.73C28.88 171.73 28.25 171.57 27.72 171.24L27.71 171.22Z" fill="#272727"/>
<path d="M36.66 171.32C36.26 171.06 35.95 170.7 35.73 170.25H35.69V171.55H34.15V160.98H35.69V165.15H35.73C35.95 164.7 36.27 164.34 36.68 164.08C37.09 163.82 37.56 163.69 38.09 163.69C38.71 163.69 39.26 163.85 39.72 164.18C40.18 164.5 40.55 164.97 40.81 165.56C41.07 166.16 41.2 166.86 41.2 167.68C41.2 168.51 41.07 169.22 40.81 169.81C40.55 170.41 40.19 170.87 39.72 171.2C39.25 171.53 38.7 171.69 38.07 171.69C37.53 171.69 37.06 171.56 36.66 171.3V171.32ZM38.7 170.03C38.99 169.82 39.22 169.52 39.38 169.12C39.54 168.72 39.62 168.25 39.62 167.71C39.62 167.16 39.54 166.69 39.38 166.3C39.22 165.91 39 165.6 38.7 165.39C38.41 165.18 38.06 165.07 37.66 165.07C37.26 165.07 36.94 165.18 36.64 165.4C36.34 165.62 36.11 165.92 35.94 166.32C35.77 166.71 35.68 167.18 35.68 167.71C35.68 168.25 35.76 168.71 35.93 169.11C36.1 169.51 36.33 169.81 36.63 170.03C36.93 170.25 37.27 170.36 37.65 170.36C38.03 170.36 38.4 170.26 38.69 170.04L38.7 170.03Z" fill="#272727"/>
<path d="M43.72 171.22C43.19 170.89 42.77 170.43 42.48 169.84C42.19 169.24 42.04 168.53 42.04 167.71C42.04 166.88 42.19 166.17 42.48 165.57C42.77 164.97 43.19 164.52 43.72 164.19C44.25 163.87 44.87 163.71 45.58 163.71C46.29 163.71 46.91 163.87 47.45 164.19C47.98 164.51 48.4 164.97 48.69 165.56C48.98 166.15 49.13 166.87 49.13 167.69C49.13 168.53 48.98 169.25 48.69 169.84C48.4 170.43 47.98 170.9 47.45 171.22C46.92 171.54 46.3 171.71 45.59 171.71C44.88 171.71 44.25 171.55 43.72 171.22V171.22ZM46.64 170.06C46.93 169.85 47.16 169.55 47.32 169.15C47.48 168.75 47.56 168.27 47.56 167.7C47.56 167.12 47.48 166.64 47.32 166.25C47.16 165.85 46.93 165.55 46.63 165.34C46.33 165.13 45.98 165.03 45.59 165.03C45.2 165.03 44.85 165.13 44.56 165.34C44.26 165.55 44.03 165.85 43.87 166.25C43.71 166.65 43.62 167.12 43.62 167.69C43.62 168.27 43.7 168.75 43.87 169.15C44.03 169.55 44.26 169.85 44.56 170.06C44.86 170.27 45.21 170.37 45.61 170.37C46.01 170.37 46.35 170.27 46.65 170.06H46.64Z" fill="#272727"/>
<path d="M50.38 160.99H51.92V171.56H50.38V160.99Z" fill="#272727"/>
</g>
<defs>
<clipPath id="clip0_2_196">
<rect width="216" height="175" fill="white"/>
</clipPath>
</defs>
</svg>
