<svg width="740" height="174" viewBox="0 0 740 174" fill="none" xmlns="http://www.w3.org/2000/svg">
<path d="M328.52 31.52H343.69V38.47C346.28 35.62 349.17 33.49 352.34 32.08C355.51 30.67 358.97 29.97 362.71 29.97C366.45 29.97 369.9 30.9 372.94 32.75C375.98 34.6 378.43 37.31 380.28 40.86C382.69 37.3 385.65 34.6 389.15 32.75C392.65 30.9 396.48 29.97 400.64 29.97C404.8 29.97 408.72 30.97 411.99 32.97C415.25 34.97 417.6 37.58 419.03 40.81C420.46 44.03 421.17 49.28 421.17 56.54V92H405.89V61.32C405.89 54.47 405.04 49.83 403.33 47.4C401.63 44.98 399.07 43.76 395.66 43.76C393.07 43.76 390.74 44.5 388.69 45.98C386.63 47.46 385.11 49.51 384.11 52.12C383.11 54.73 382.61 58.93 382.61 64.71V92H367.33V62.71C367.33 57.3 366.93 53.38 366.13 50.96C365.33 48.53 364.13 46.73 362.54 45.54C360.94 44.35 359.01 43.76 356.75 43.76C354.22 43.76 351.93 44.51 349.87 46.01C347.81 47.51 346.27 49.61 345.25 52.32C344.23 55.02 343.72 59.29 343.72 65.1V92H328.55V31.52H328.52Z" fill="#003A5D"/>
<path d="M464.01 29.96C469.72 29.96 475.08 31.39 480.1 34.24C485.12 37.09 489.04 40.97 491.85 45.86C494.66 50.75 496.07 56.03 496.07 61.7C496.07 67.37 494.65 72.74 491.82 77.71C488.98 82.68 485.12 86.56 480.23 89.35C475.34 92.15 469.95 93.55 464.06 93.55C455.39 93.55 447.99 90.46 441.86 84.29C435.73 78.12 432.66 70.63 432.66 61.81C432.66 52.36 436.12 44.49 443.05 38.19C449.13 32.71 456.11 29.97 464 29.97L464.01 29.96ZM464.26 44.24C459.55 44.24 455.62 45.88 452.49 49.16C449.35 52.44 447.79 56.64 447.79 61.75C447.79 66.86 449.34 71.27 452.44 74.53C455.54 77.79 459.46 79.42 464.22 79.42C468.98 79.42 472.92 77.77 476.08 74.48C479.23 71.18 480.81 66.94 480.81 61.75C480.81 56.56 479.26 52.35 476.16 49.1C473.06 45.86 469.1 44.24 464.27 44.24H464.26Z" fill="#003A5D"/>
<path d="M508.48 31.52H523.65V37.72C527.09 34.82 530.21 32.8 533 31.67C535.79 30.54 538.65 29.97 541.57 29.97C547.56 29.97 552.65 32.06 556.83 36.25C560.35 39.81 562.1 45.07 562.1 52.03V91.99H547.1V65.51C547.1 58.29 546.78 53.5 546.13 51.13C545.48 48.76 544.35 46.96 542.75 45.72C541.14 44.48 539.15 43.86 536.79 43.86C533.72 43.86 531.09 44.89 528.89 46.94C526.69 49 525.16 51.84 524.31 55.46C523.87 57.35 523.65 61.44 523.65 67.73V91.99H508.48V31.52V31.52Z" fill="#003A5D"/>
<path d="M582.7 6.62001C585.36 6.62001 587.64 7.59001 589.55 9.51001C591.45 11.44 592.4 13.77 592.4 16.51C592.4 19.25 591.46 21.52 589.57 23.43C587.68 25.34 585.43 26.29 582.81 26.29C580.19 26.29 577.81 25.32 575.91 23.37C574.01 21.42 573.06 19.06 573.06 16.28C573.06 13.5 574 11.33 575.89 9.44001C577.77 7.55001 580.05 6.60001 582.71 6.60001L582.7 6.62001ZM575.11 31.52H590.28V91.99H575.11V31.52Z" fill="#003A5D"/>
<path d="M605.9 9.23001H621.07V31.52H630.07V44.58H621.07V91.99H605.9V44.58H598.12V31.52H605.9V9.23001Z" fill="#003A5D"/>
<path d="M666.59 29.96C672.3 29.96 677.66 31.39 682.68 34.24C687.7 37.09 691.62 40.97 694.43 45.86C697.24 50.75 698.65 56.03 698.65 61.7C698.65 67.37 697.23 72.74 694.4 77.71C691.56 82.68 687.7 86.56 682.81 89.35C677.92 92.15 672.53 93.55 666.64 93.55C657.97 93.55 650.57 90.46 644.44 84.29C638.31 78.12 635.24 70.63 635.24 61.81C635.24 52.36 638.7 44.49 645.63 38.19C651.71 32.71 658.69 29.97 666.58 29.97L666.59 29.96ZM666.84 44.24C662.13 44.24 658.2 45.88 655.07 49.16C651.93 52.44 650.37 56.64 650.37 61.75C650.37 66.86 651.92 71.27 655.02 74.53C658.12 77.79 662.04 79.42 666.8 79.42C671.56 79.42 675.5 77.77 678.66 74.48C681.81 71.18 683.39 66.94 683.39 61.75C683.39 56.56 681.84 52.35 678.74 49.1C675.64 45.86 671.68 44.24 666.85 44.24H666.84Z" fill="#003A5D"/>
<path d="M707.5 31.52H720.51V39.13C721.92 36.13 723.79 33.85 726.12 32.29C728.45 30.74 731.01 29.96 733.79 29.96C735.75 29.96 737.81 30.48 739.96 31.51L735.24 44.57C733.46 43.68 732 43.24 730.85 43.24C728.51 43.24 726.54 44.68 724.93 47.58C723.32 50.47 722.51 56.14 722.51 64.59L722.57 67.54V91.99H707.51V31.52H707.5Z" fill="#003A5D"/>
<path d="M328.67 121.36H331.67V148.48H343.22V151.38H328.67V121.36Z" fill="#003A5D"/>
<path d="M364.88 121.36H382.08V124.3H367.87V133.71H381.95V136.65H367.87V148.45H381.95V151.39H364.87V121.37L364.88 121.36Z" fill="#003A5D"/>
<path d="M433.12 126.4L430.79 128.6C429.12 126.95 427.28 125.71 425.29 124.86C423.3 124.01 421.35 123.59 419.46 123.59C417.11 123.59 414.86 124.17 412.74 125.32C410.61 126.48 408.96 128.04 407.79 130.02C406.62 132 406.04 134.09 406.04 136.3C406.04 138.51 406.65 140.7 407.86 142.74C409.07 144.77 410.74 146.37 412.88 147.54C415.02 148.7 417.36 149.28 419.9 149.28C422.99 149.28 425.6 148.41 427.74 146.67C429.88 144.93 431.14 142.67 431.54 139.89H421.97V136.99H434.91C434.88 141.63 433.5 145.31 430.78 148.04C428.05 150.77 424.4 152.13 419.83 152.13C414.28 152.13 409.88 150.24 406.65 146.46C404.16 143.55 402.91 140.18 402.91 136.36C402.91 133.52 403.62 130.87 405.05 128.42C406.48 125.97 408.44 124.06 410.93 122.67C413.42 121.29 416.24 120.6 419.38 120.6C421.92 120.6 424.32 121.06 426.56 121.98C428.8 122.9 431 124.37 433.13 126.4H433.12Z" fill="#003A5D"/>
<path d="M457.06 121.36H460.06V151.38H457.06V121.36Z" fill="#003A5D"/>
<path d="M480.73 145.79L483.28 144.26C485.08 147.57 487.15 149.22 489.51 149.22C490.52 149.22 491.46 148.99 492.35 148.52C493.24 148.05 493.91 147.42 494.37 146.63C494.83 145.84 495.06 145 495.06 144.12C495.06 143.11 494.72 142.13 494.04 141.16C493.1 139.83 491.39 138.22 488.9 136.34C486.4 134.45 484.84 133.08 484.23 132.24C483.17 130.82 482.64 129.29 482.64 127.65C482.64 126.34 482.95 125.15 483.58 124.08C484.2 123 485.09 122.16 486.22 121.54C487.35 120.92 488.59 120.61 489.92 120.61C491.34 120.61 492.66 120.96 493.89 121.66C495.12 122.36 496.42 123.65 497.8 125.53L495.35 127.39C494.22 125.89 493.26 124.91 492.46 124.43C491.67 123.95 490.8 123.72 489.86 123.72C488.65 123.72 487.66 124.09 486.89 124.82C486.12 125.55 485.74 126.46 485.74 127.53C485.74 128.18 485.88 128.81 486.15 129.43C486.42 130.04 486.92 130.71 487.64 131.43C488.03 131.81 489.33 132.81 491.52 134.43C494.12 136.35 495.9 138.06 496.87 139.55C497.84 141.05 498.32 142.55 498.32 144.06C498.32 146.24 497.49 148.13 495.84 149.74C494.19 151.34 492.18 152.15 489.81 152.15C487.99 152.15 486.33 151.66 484.85 150.69C483.37 149.72 482 148.09 480.75 145.8L480.73 145.79Z" fill="#003A5D"/>
<path d="M521.54 121.36H524.54V148.48H536.09V151.38H521.54V121.36Z" fill="#003A5D"/>
<path d="M569.99 121.36L583.99 151.38H580.75L576.03 141.5H563.1L558.42 151.38H555.07L569.26 121.36H569.99V121.36ZM569.61 127.74L564.46 138.61H574.72L569.6 127.74H569.61Z" fill="#003A5D"/>
<path d="M599.17 124.3V121.36H615.62V124.3H608.92V151.38H605.86V124.3H599.16H599.17Z" fill="#003A5D"/>
<path d="M636.4 121.36H639.4V151.38H636.4V121.36Z" fill="#003A5D"/>
<path d="M660.88 121.36H664.15L674.1 144.56L684.21 121.36H687.48L674.42 151.38H673.77L660.89 121.36H660.88Z" fill="#003A5D"/>
<path d="M723.7 120.6C728.25 120.6 732.05 122.12 735.12 125.15C738.18 128.19 739.72 131.92 739.72 136.36C739.72 140.8 738.19 144.48 735.13 147.54C732.07 150.6 728.35 152.13 723.95 152.13C719.55 152.13 715.74 150.61 712.68 147.56C709.62 144.51 708.08 140.82 708.08 136.5C708.08 133.62 708.78 130.94 710.17 128.48C711.57 126.02 713.47 124.09 715.88 122.69C718.29 121.3 720.9 120.6 723.7 120.6V120.6ZM723.83 123.52C721.61 123.52 719.5 124.1 717.51 125.26C715.52 126.42 713.97 127.98 712.85 129.94C711.73 131.9 711.17 134.09 711.17 136.5C711.17 140.07 712.41 143.08 714.88 145.54C717.35 148 720.33 149.23 723.82 149.23C726.15 149.23 728.31 148.67 730.29 147.54C732.27 146.41 733.82 144.86 734.93 142.9C736.04 140.94 736.6 138.76 736.6 136.37C736.6 133.98 736.05 131.83 734.93 129.9C733.82 127.97 732.26 126.43 730.24 125.27C728.22 124.11 726.08 123.53 723.82 123.53L723.83 123.52Z" fill="#003A5D"/>
<path d="M278.55 72.69C262.98 67.32 252.66 55.49 243.14 42.72C235.08 31.89 227.48 20.52 218.09 10.94C207.01 -0.370019 192.67 -2.59002 177.68 2.83998C166.54 6.87998 159.1 15.37 152.29 24.73C143.71 36.54 135.32 48.65 125.41 59.29C114.7 70.78 100.65 76.52 84.54 76.41C64.71 76.27 44.88 76.26 25.05 76.38C23.98 76.38 1.44006 78.81 0.810059 78.56V96.83C7.18006 96.87 35.08 97.07 41.22 96.76C59.64 95.81 78.15 97.94 96.54 95.04C116.58 91.88 133.74 82.63 146.61 66.72C156.09 55.01 164.95 42.78 173.66 30.48C182.06 18.61 196.72 17.03 206.7 27.65C210.09 31.26 212.77 35.52 215.86 39.42C226.09 52.33 234.13 66.81 247.93 77.05C263.1 88.3 279.51 94.84 297.97 96.75V76.93C291.07 76.28 284.09 74.62 278.53 72.7L278.55 72.69Z" fill="#284D84"/>
<path d="M273.68 76.36C253.85 76.24 234.02 76.25 214.19 76.39C198.08 76.5 184.02 70.77 173.32 59.27C163.07 48.27 155.43 37.08 146.44 24.71C139.63 15.35 132.2 6.85999 121.05 2.81999C106.06 -2.61001 91.72 -0.390008 80.64 10.92C71.25 20.5 63.65 31.88 55.59 42.7C46.08 55.48 35.7501 67.31 20.1801 72.67C14.2401 74.72 7.86005 75.5 1.05005 76.91V96.68C19.39 94.73 35.7 88.2 50.78 77.01C64.58 66.77 72.62 52.29 82.85 39.38C85.94 35.48 88.62 31.22 92.01 27.61C101.99 16.99 116.66 18.57 125.05 30.44C133.75 42.74 142.62 54.97 152.1 66.68C164.97 82.58 182.29 90.97 202.17 95C220.57 98.73 239.07 95.76 257.49 96.72C263.11 97.01 292.29 96.87 298.1 96.81V76.32C297.82 76.34 274 76.35 273.67 76.35L273.68 76.36Z" fill="#88CF00"/>
<path d="M20.3199 100.39C35.8899 105.76 46.21 117.59 55.73 130.36C63.79 141.19 71.39 152.56 80.78 162.14C91.86 173.45 106.2 175.67 121.19 170.24C132.33 166.2 139.77 157.71 146.58 148.35C155.16 136.54 163.55 124.43 173.46 113.79C184.17 102.3 198.22 96.56 214.33 96.67C234.16 96.81 253.99 96.82 273.82 96.7C274.89 96.7 297.43 96.79 298.06 97.05V76.26C291.69 76.22 263.79 76.32 257.65 76.33C239.26 76.37 220.73 74.32 202.33 78.05C182.45 82.08 165.13 90.46 152.26 106.37C142.78 118.08 133.92 130.31 125.21 142.61C116.81 154.48 102.15 156.06 92.17 145.44C88.78 141.83 86.1 137.57 83.01 133.67C72.78 120.76 64.7399 106.28 50.9399 96.04C35.7699 84.79 19.36 78.25 0.900024 76.34V96.16C7.80002 96.81 14.78 98.47 20.34 100.39H20.3199Z" fill="#003A5D"/>
<path d="M25.1801 96.72C25.1801 96.72 64.84 96.83 84.67 96.69C100.78 96.58 114.84 102.31 125.54 113.81C135.45 124.45 143.83 136.56 152.42 148.37C159.23 157.73 166.66 166.22 177.81 170.26C192.8 175.69 207.14 173.47 218.22 162.16C227.61 152.58 235.21 141.2 243.27 130.38C252.78 117.6 263.11 105.77 278.68 100.41C284.62 98.36 291.09 98.01 298.11 96.84V76.35C279.77 78.3 263.16 84.88 248.07 96.07C234.27 106.31 226.23 120.79 216 133.7C212.91 137.6 210.23 141.86 206.84 145.47C196.86 156.09 182.19 154.51 173.8 142.64C165.1 130.34 156.23 118.11 146.75 106.4C133.88 90.5 116.56 82.11 96.6801 78.08C78.2801 74.35 41.36 76.36 41.36 76.36C41.36 76.36 6.56 76.21 0.75 76.27V96.76C1.03 96.74 25.1801 96.73 25.1801 96.73V96.72Z" fill="#4FA9A3"/>
</svg>
